<?xml version="1.0" encoding="UTF-8"?>
<!DOCTYPE svg PUBLIC "-//W3C//DTD SVG 1.1//EN" "http://www.w3.org/Graphics/SVG/1.1/DTD/svg11.dtd">
<svg xmlns="http://www.w3.org/2000/svg" version="1.1" width="561px" height="797px" style="shape-rendering:geometricPrecision; text-rendering:geometricPrecision; image-rendering:optimizeQuality; fill-rule:evenodd; clip-rule:evenodd" xmlns:xlink="http://www.w3.org/1999/xlink">
<g><path style="opacity:1" fill="#f49105" d="M 139.5,1.5 C 234.833,1.5 330.167,1.5 425.5,1.5C 435.43,3.79804 444.43,8.29804 452.5,15C 478.87,33.0359 500.037,55.8692 516,83.5C 524.202,97.1815 531.702,111.182 538.5,125.5C 539.321,129.127 540.654,132.46 542.5,135.5C 543.321,139.127 544.654,142.46 546.5,145.5C 546.595,147.786 547.262,149.786 548.5,151.5C 548.595,153.786 549.262,155.786 550.5,157.5C 550.41,160.152 551.076,162.485 552.5,164.5C 552.5,164.833 552.5,165.167 552.5,165.5C 552.927,168.01 553.593,170.343 554.5,172.5C 554.5,172.833 554.5,173.167 554.5,173.5C 555.726,179.645 557.06,185.645 558.5,191.5C 559.833,220.167 559.833,248.833 558.5,277.5C 557.383,281.295 556.717,285.295 556.5,289.5C 555.469,291.961 554.802,294.627 554.5,297.5C 554.5,298.167 554.5,298.833 554.5,299.5C 553.262,301.214 552.595,303.214 552.5,305.5C 551.542,307.302 550.875,309.302 550.5,311.5C 550.5,311.833 550.5,312.167 550.5,312.5C 548.129,317.941 546.129,323.608 544.5,329.5C 542.648,332.551 541.314,335.884 540.5,339.5C 539.326,340.514 538.66,341.847 538.5,343.5C 534.674,349.818 531.341,356.484 528.5,363.5C 522.086,373.995 515.419,384.329 508.5,394.5C 490.306,416.272 470.306,436.272 448.5,454.5C 443.473,457.345 438.806,460.679 434.5,464.5C 432.147,465.34 430.147,466.674 428.5,468.5C 424.827,470 421.494,472 418.5,474.5C 414.827,476 411.494,478 408.5,480.5C 406.847,480.66 405.514,481.326 404.5,482.5C 402.847,482.66 401.514,483.326 400.5,484.5C 398.847,484.66 397.514,485.326 396.5,486.5C 394.847,486.66 393.514,487.326 392.5,488.5C 391.07,488.421 389.736,488.754 388.5,489.5C 387.511,493.107 387.177,496.774 387.5,500.5C 443.267,495.462 489.434,513.795 526,555.5C 539.221,572.678 548.721,591.678 554.5,612.5C 554.565,615.428 555.232,618.095 556.5,620.5C 556.5,621.833 556.5,623.167 556.5,624.5C 556.911,629.338 557.578,634.005 558.5,638.5C 558.5,644.833 558.5,651.167 558.5,657.5C 557.717,661.693 557.051,666.027 556.5,670.5C 556.5,672.5 556.5,674.5 556.5,676.5C 555.542,678.302 554.875,680.302 554.5,682.5C 554.5,683.167 554.5,683.833 554.5,684.5C 553.542,686.302 552.875,688.302 552.5,690.5C 552.5,690.833 552.5,691.167 552.5,691.5C 551.463,692.93 550.796,694.597 550.5,696.5C 550.5,696.833 550.5,697.167 550.5,697.5C 549.069,698.78 548.402,700.447 548.5,702.5C 547.326,703.514 546.66,704.847 546.5,706.5C 546.5,706.833 546.5,707.167 546.5,707.5C 545.599,708.29 544.932,709.29 544.5,710.5C 544.5,710.833 544.5,711.167 544.5,711.5C 543.069,712.78 542.402,714.447 542.5,716.5C 540,719.494 538,722.827 536.5,726.5C 523.833,745.833 507.833,761.833 488.5,774.5C 486.847,774.66 485.514,775.326 484.5,776.5C 481.996,777.584 479.663,778.917 477.5,780.5C 477.167,780.5 476.833,780.5 476.5,780.5C 475.005,780.989 473.671,781.655 472.5,782.5C 470.847,782.66 469.514,783.326 468.5,784.5C 466.597,784.796 464.93,785.463 463.5,786.5C 463.167,786.5 462.833,786.5 462.5,786.5C 460.847,786.66 459.514,787.326 458.5,788.5C 457.833,788.5 457.167,788.5 456.5,788.5C 455.005,788.989 453.671,789.655 452.5,790.5C 451.833,790.5 451.167,790.5 450.5,790.5C 448.302,790.875 446.302,791.542 444.5,792.5C 443.833,792.5 443.167,792.5 442.5,792.5C 439.67,792.963 437.003,793.629 434.5,794.5C 433.167,794.5 431.833,794.5 430.5,794.5C 424.018,795.045 417.685,795.712 411.5,796.5C 323.5,796.5 235.5,796.5 147.5,796.5C 140.991,795.671 134.324,795.005 127.5,794.5C 126.5,794.5 125.5,794.5 124.5,794.5C 121.689,793.525 118.689,792.858 115.5,792.5C 115.167,792.5 114.833,792.5 114.5,792.5C 112.343,791.593 110.01,790.927 107.5,790.5C 107.167,790.5 106.833,790.5 106.5,790.5C 103.061,788.796 99.3948,787.462 95.5,786.5C 92.4493,784.648 89.116,783.314 85.5,782.5C 84.4863,781.326 83.153,780.66 81.5,780.5C 37.1065,756.417 10.4398,719.417 1.5,669.5C -4.14944,617.603 11.8506,573.769 49.5,538C 74.5286,516.661 103.529,504.328 136.5,501C 149.207,501.151 161.541,500.317 173.5,498.5C 173.5,495.167 173.5,491.833 173.5,488.5C 173.512,485.858 172.179,484.525 169.5,484.5C 136.009,469.186 106.176,448.519 80,422.5C 51.4159,390.86 29.7493,354.86 15,314.5C 5.88492,287.766 0.718249,260.432 -0.5,232.5C -0.5,224.833 -0.5,217.167 -0.5,209.5C 4.82309,142.023 31.8231,84.8568 80.5,38C 94.11,25.3918 109.11,14.7251 125.5,6C 130.004,3.55879 134.671,2.05879 139.5,1.5 Z M 414.5,55.5 C 414.721,56.7348 415.388,57.7348 416.5,58.5C 419.833,60.5 423.167,62.5 426.5,64.5C 436.167,74.1667 445.833,83.8333 455.5,93.5C 471.951,117.063 485.284,142.397 495.5,169.5C 510.815,217.257 509.481,264.59 491.5,311.5C 484.516,326.807 476.516,341.474 467.5,355.5C 453.229,371.773 438.229,387.44 422.5,402.5C 410.189,412.335 397.522,421.501 384.5,430C 373.633,434.286 362.967,438.953 352.5,444C 343.073,447.067 333.406,449.4 323.5,451C 321.167,452 318.833,453 316.5,454C 296.833,454.667 277.167,454.667 257.5,454C 214.761,445.112 175.428,427.945 139.5,402.5C 127.102,390.771 115.435,378.438 104.5,365.5C 100.289,359.284 96.9554,352.617 94.5,345.5C 84.6757,335.87 77.3423,324.537 72.5,311.5C 66.1596,294.808 60.4929,278.141 55.5,261.5C 55.5,261.167 55.5,260.833 55.5,260.5C 56.1083,255.056 55.4417,250.056 53.5,245.5C 53.5,230.167 53.5,214.833 53.5,199.5C 57.5926,182.823 62.5926,166.157 68.5,149.5C 77.5806,131.109 88.2473,113.775 100.5,97.5C 110.167,87.8333 119.833,78.1667 129.5,68.5C 135.156,64.0038 141.156,60.0038 147.5,56.5C 236.498,55.5 325.498,55.1667 414.5,55.5 Z M 347.5,109.5 C 357.477,111.135 364.144,116.801 367.5,126.5C 365.068,132.942 361.068,138.276 355.5,142.5C 352.167,143.833 348.833,143.833 345.5,142.5C 339.672,138.683 336.339,133.349 335.5,126.5C 335.833,124.833 336.167,123.167 336.5,121.5C 340.579,117.76 344.246,113.76 347.5,109.5 Z M 211.5,109.5 C 225.34,111.678 231.007,119.678 228.5,133.5C 225.5,136.5 222.5,139.5 219.5,142.5C 216.167,143.833 212.833,143.833 209.5,142.5C 204.36,138.365 200.36,133.365 197.5,127.5C 199.991,119.691 204.658,113.691 211.5,109.5 Z M 115.5,235.5 C 111.219,217.064 117.886,204.064 135.5,196.5C 149.592,195.05 159.925,200.717 166.5,213.5C 171.384,230.071 165.717,241.737 149.5,248.5C 138.178,250.843 128.844,247.51 121.5,238.5C 119.447,237.473 117.447,236.473 115.5,235.5 Z M 411.5,195.5 C 427.52,195.17 438.52,202.504 444.5,217.5C 445.833,220.833 445.833,224.167 444.5,227.5C 439.221,240.124 429.888,247.457 416.5,249.5C 412.565,249.416 408.898,248.416 405.5,246.5C 399.756,241.427 394.756,235.76 390.5,229.5C 388.92,223.232 389.586,217.232 392.5,211.5C 398.044,204.933 404.377,199.6 411.5,195.5 Z M 275.5,195.5 C 290.657,194.901 300.991,201.567 306.5,215.5C 308.133,222.429 307.467,229.095 304.5,235.5C 288.5,254.167 272.5,254.167 256.5,235.5C 250.7,221.542 253.7,209.876 265.5,200.5C 269.129,198.986 272.462,197.32 275.5,195.5 Z M 201.5,313.5 C 218.392,312.449 230.058,319.782 236.5,335.5C 237.833,338.833 237.833,342.167 236.5,345.5C 221.907,372.157 204.573,374.157 184.5,351.5C 180.5,344.167 180.5,336.833 184.5,329.5C 189.958,323.701 195.625,318.368 201.5,313.5 Z M 345.5,313.5 C 351.798,312.923 357.798,313.923 363.5,316.5C 369.244,321.573 374.244,327.24 378.5,333.5C 380.08,339.768 379.414,345.768 376.5,351.5C 356.427,374.157 339.093,372.157 324.5,345.5C 323.167,342.167 323.167,338.833 324.5,335.5C 329.213,325.791 336.213,318.458 345.5,313.5 Z M 422.5,540.5 C 424.279,542.344 426.612,543.01 429.5,542.5C 430.5,542.5 431.5,542.5 432.5,542.5C 433.918,544.308 435.918,544.975 438.5,544.5C 439.918,546.308 441.918,546.975 444.5,546.5C 454.638,551.573 464.638,557.24 474.5,563.5C 520.156,605.11 527.823,652.777 497.5,706.5C 493.38,710.411 490.547,715.077 489,720.5C 469.183,737.154 446.35,748.154 420.5,753.5C 327.169,754.5 233.836,754.833 140.5,754.5C 114.051,749.692 90.8848,738.358 71,720.5C 65.3048,712.637 59.8048,704.637 54.5,696.5C 45.3275,679.303 40.9941,660.969 41.5,641.5C 42.7097,635.237 43.3764,628.904 43.5,622.5C 44.9432,621.665 45.9432,620.332 46.5,618.5C 48.3837,611.515 51.0504,604.848 54.5,598.5C 57.8333,593.167 61.1667,587.833 64.5,582.5C 71.2417,576.095 77.5751,569.428 83.5,562.5C 84.9778,562.762 86.3112,562.429 87.5,561.5C 93.3135,558.282 98.6468,554.615 103.5,550.5C 107.606,550.696 110.939,549.363 113.5,546.5C 116.082,546.975 118.082,546.308 119.5,544.5C 122.082,544.975 124.082,544.308 125.5,542.5C 224.462,540.547 323.462,539.88 422.5,540.5 Z M 381.5,591.5 C 406.94,588.72 426.606,598.054 440.5,619.5C 452.946,646.189 447.946,669.189 425.5,688.5C 405.997,702.331 385.997,702.998 365.5,690.5C 360.5,685.5 355.5,680.5 350.5,675.5C 347.833,670.167 345.167,664.833 342.5,659.5C 341.167,650.167 341.167,640.833 342.5,631.5C 343.949,626.601 345.949,621.935 348.5,617.5C 354.833,611.167 361.167,604.833 367.5,598.5C 372.35,596.075 377.017,593.741 381.5,591.5 Z M 151.5,593.5 C 160.192,593.169 168.859,593.502 177.5,594.5C 182.399,595.949 187.065,597.949 191.5,600.5C 197.167,606.167 202.833,611.833 208.5,617.5C 211.921,622.412 214.588,627.746 216.5,633.5C 217.833,642.833 217.833,652.167 216.5,661.5C 213.833,666.833 211.167,672.167 208.5,677.5C 203.5,682.5 198.5,687.5 193.5,692.5C 166.277,707.721 142.61,703.387 122.5,679.5C 104.738,650.14 109.071,624.473 135.5,602.5C 141.282,599.952 146.616,596.952 151.5,593.5 Z"/></g>
<g><path style="opacity:0.207" fill="#d4d4d4" d="M 139.5,1.5 C 134.671,2.05879 130.004,3.55879 125.5,6C 109.11,14.7251 94.11,25.3918 80.5,38C 31.8231,84.8568 4.82309,142.023 -0.5,209.5C -0.5,201.5 -0.5,193.5 -0.5,185.5C 5.44754,153.345 16.4475,122.679 32.5,93.5C 40.5,81.5 48.5,69.5 56.5,57.5C 70.5533,42.6662 85.5533,28.9995 101.5,16.5C 110.167,11.8333 118.833,7.16667 127.5,2.5C 131.445,1.50909 135.445,1.17575 139.5,1.5 Z"/></g>
<g><path style="opacity:0.138" fill="#cdcdcd" d="M 425.5,1.5 C 432.426,0.910895 438.76,2.57756 444.5,6.5C 461.458,17.8306 477.125,30.8306 491.5,45.5C 510.001,68.0431 525.335,92.7097 537.5,119.5C 538.466,121.396 538.799,123.396 538.5,125.5C 531.702,111.182 524.202,97.1815 516,83.5C 500.037,55.8692 478.87,33.0359 452.5,15C 444.43,8.29804 435.43,3.79804 425.5,1.5 Z"/></g>
<g><path style="opacity:1" fill="#f49104" d="M 303.5,134.5 C 303.5,129.5 303.5,124.5 303.5,119.5C 310.488,91.3486 328.488,77.8486 357.5,79C 383.028,84.8621 396.695,100.862 398.5,127C 396.769,152.726 383.436,168.726 358.5,175C 328.925,176.573 310.591,163.073 303.5,134.5 Z M 347.5,109.5 C 344.246,113.76 340.579,117.76 336.5,121.5C 336.167,123.167 335.833,124.833 335.5,126.5C 336.339,133.349 339.672,138.683 345.5,142.5C 348.833,143.833 352.167,143.833 355.5,142.5C 361.068,138.276 365.068,132.942 367.5,126.5C 364.144,116.801 357.477,111.135 347.5,109.5 Z"/></g>
<g><path style="opacity:0.203" fill="#d7d7d7" d="M 199.5,77.5 C 209.522,77.1681 219.522,77.5015 229.5,78.5C 246.639,84.3077 257.639,95.9743 262.5,113.5C 267.27,135.184 261.603,153.517 245.5,168.5C 224.833,180.5 204.167,180.5 183.5,168.5C 166.97,152.896 161.303,133.896 166.5,111.5C 167.949,106.601 169.949,101.935 172.5,97.5C 176.833,93.1667 181.167,88.8333 185.5,84.5C 190.35,82.0748 195.017,79.7415 199.5,77.5 Z M 211.5,109.5 C 204.658,113.691 199.991,119.691 197.5,127.5C 200.36,133.365 204.36,138.365 209.5,142.5C 212.833,143.833 216.167,143.833 219.5,142.5C 222.5,139.5 225.5,136.5 228.5,133.5C 231.007,119.678 225.34,111.678 211.5,109.5 Z"/></g>
<g><path style="opacity:1" fill="#f49104" d="M 207.5,78.5 C 236.104,77.6213 253.937,90.9547 261,118.5C 263.716,148.6 250.55,167.433 221.5,175C 190.608,176.441 172.441,161.941 167,131.5C 167.042,103.368 180.542,85.7015 207.5,78.5 Z M 211.5,109.5 C 204.658,113.691 199.991,119.691 197.5,127.5C 200.36,133.365 204.36,138.365 209.5,142.5C 212.833,143.833 216.167,143.833 219.5,142.5C 222.5,139.5 225.5,136.5 228.5,133.5C 231.007,119.678 225.34,111.678 211.5,109.5 Z"/></g>
<g><path style="opacity:0.207" fill="#d8d8d8" d="M 346.5,108.5 C 362.083,108.25 369.249,115.917 368,131.5C 363.235,144.645 354.402,148.479 341.5,143C 333.124,135.604 331.29,126.771 336,116.5C 338.855,112.789 342.355,110.123 346.5,108.5 Z M 347.5,109.5 C 344.246,113.76 340.579,117.76 336.5,121.5C 336.167,123.167 335.833,124.833 335.5,126.5C 336.339,133.349 339.672,138.683 345.5,142.5C 348.833,143.833 352.167,143.833 355.5,142.5C 361.068,138.276 365.068,132.942 367.5,126.5C 364.144,116.801 357.477,111.135 347.5,109.5 Z"/></g>
<g><path style="opacity:0.095" fill="#a6a6a6" d="M 538.5,125.5 C 541.363,128.061 542.696,131.394 542.5,135.5C 540.654,132.46 539.321,129.127 538.5,125.5 Z"/></g>
<g><path style="opacity:0.168" fill="#d3d3d3" d="M 209.5,108.5 C 226.408,108.271 233.575,116.604 231,133.5C 226.015,144.239 217.849,147.739 206.5,144C 195.952,136.496 193.785,126.996 200,115.5C 202.825,112.524 205.992,110.191 209.5,108.5 Z M 211.5,109.5 C 204.658,113.691 199.991,119.691 197.5,127.5C 200.36,133.365 204.36,138.365 209.5,142.5C 212.833,143.833 216.167,143.833 219.5,142.5C 222.5,139.5 225.5,136.5 228.5,133.5C 231.007,119.678 225.34,111.678 211.5,109.5 Z"/></g>
<g><path style="opacity:0.095" fill="#a7a7a7" d="M 542.5,135.5 C 545.363,138.061 546.696,141.394 546.5,145.5C 544.654,142.46 543.321,139.127 542.5,135.5 Z"/></g>
<g><path style="opacity:0.213" fill="#d7d7d7" d="M 303.5,134.5 C 310.591,163.073 328.925,176.573 358.5,175C 383.436,168.726 396.769,152.726 398.5,127C 396.695,100.862 383.028,84.8621 357.5,79C 328.488,77.8486 310.488,91.3486 303.5,119.5C 304.727,98.5923 315.394,84.9256 335.5,78.5C 358.647,72.882 377.647,79.2154 392.5,97.5C 398.203,106.693 400.536,116.693 399.5,127.5C 399.959,152.892 387.959,169.225 363.5,176.5C 343.665,180.774 326.665,175.774 312.5,161.5C 306.305,153.583 303.305,144.583 303.5,134.5 Z"/></g>
<g><path style="opacity:0.076" fill="#9d9d9d" d="M 546.5,145.5 C 548.308,146.918 548.975,148.918 548.5,151.5C 547.262,149.786 546.595,147.786 546.5,145.5 Z"/></g>
<g><path style="opacity:0.094" fill="#adadad" d="M 548.5,151.5 C 550.308,152.918 550.975,154.918 550.5,157.5C 549.262,155.786 548.595,153.786 548.5,151.5 Z"/></g>
<g><path style="opacity:0.129" fill="#c2c2c2" d="M 417.5,55.5 C 416.5,55.5 415.5,55.5 414.5,55.5C 325.498,55.1667 236.498,55.5 147.5,56.5C 141.156,60.0038 135.156,64.0038 129.5,68.5C 119.833,78.1667 110.167,87.8333 100.5,97.5C 88.2473,113.775 77.5806,131.109 68.5,149.5C 62.5926,166.157 57.5926,182.823 53.5,199.5C 60.236,153.195 79.9027,113.362 112.5,80C 122.365,70.1306 133.365,61.7973 145.5,55C 236.334,54.1676 327.001,54.3343 417.5,55.5 Z"/></g>
<g><path style="opacity:0.095" fill="#acacac" d="M 550.5,157.5 C 552.344,159.279 553.01,161.612 552.5,164.5C 551.076,162.485 550.41,160.152 550.5,157.5 Z"/></g>
<g><path style="opacity:1" fill="#f49104" d="M 146.5,164.5 C 177.673,169.008 196.006,186.675 201.5,217.5C 201.5,221.167 201.5,224.833 201.5,228.5C 194.837,260.49 175.171,278.157 142.5,281.5C 140.833,281.5 139.167,281.5 137.5,281.5C 106.004,277.004 87.6703,259.004 82.5,227.5C 82.5613,193.936 98.8947,173.103 131.5,165C 136.489,164.501 141.489,164.334 146.5,164.5 Z M 115.5,235.5 C 117.447,236.473 119.447,237.473 121.5,238.5C 128.844,247.51 138.178,250.843 149.5,248.5C 165.717,241.737 171.384,230.071 166.5,213.5C 159.925,200.717 149.592,195.05 135.5,196.5C 117.886,204.064 111.219,217.064 115.5,235.5 Z"/></g>
<g><path style="opacity:1" fill="#f49104" d="M 286.5,164.5 C 319.297,169.967 337.297,189.3 340.5,222.5C 336.789,256.54 318.123,276.207 284.5,281.5C 281.833,281.5 279.167,281.5 276.5,281.5C 242.877,276.207 224.211,256.54 220.5,222.5C 225.42,183.71 247.42,164.376 286.5,164.5 Z M 275.5,195.5 C 272.462,197.32 269.129,198.986 265.5,200.5C 253.7,209.876 250.7,221.542 256.5,235.5C 272.5,254.167 288.5,254.167 304.5,235.5C 307.467,229.095 308.133,222.429 306.5,215.5C 300.991,201.567 290.657,194.901 275.5,195.5 Z"/></g>
<g><path style="opacity:1" fill="#f49104" d="M 421.5,164.5 C 447.546,167.268 465.046,180.934 474,205.5C 481.11,238.443 469.61,262.276 439.5,277C 433.215,279.323 426.882,280.823 420.5,281.5C 418.167,281.5 415.833,281.5 413.5,281.5C 390.714,279.023 373.881,267.689 363,247.5C 360.523,241.565 358.69,235.565 357.5,229.5C 357.5,225.167 357.5,220.833 357.5,216.5C 364.701,181.979 386.035,164.646 421.5,164.5 Z M 411.5,195.5 C 404.377,199.6 398.044,204.933 392.5,211.5C 389.586,217.232 388.92,223.232 390.5,229.5C 394.756,235.76 399.756,241.427 405.5,246.5C 408.898,248.416 412.565,249.416 416.5,249.5C 429.888,247.457 439.221,240.124 444.5,227.5C 445.833,224.167 445.833,220.833 444.5,217.5C 438.52,202.504 427.52,195.17 411.5,195.5 Z"/></g>
<g><path style="opacity:0.19" fill="#d4d4d4" d="M 146.5,164.5 C 146.5,164.167 146.5,163.833 146.5,163.5C 173.86,164.182 191.86,177.515 200.5,203.5C 201.493,208.12 201.827,212.786 201.5,217.5C 196.006,186.675 177.673,169.008 146.5,164.5 Z"/></g>
<g><path style="opacity:0.185" fill="#cacaca" d="M 421.5,163.5 C 421.5,163.833 421.5,164.167 421.5,164.5C 386.035,164.646 364.701,181.979 357.5,216.5C 358.909,189.083 372.909,171.75 399.5,164.5C 406.803,163.503 414.137,163.169 421.5,163.5 Z"/></g>
<g><path style="opacity:0.176" fill="#848484" d="M 552.5,165.5 C 554.344,167.279 555.01,169.612 554.5,172.5C 553.593,170.343 552.927,168.01 552.5,165.5 Z"/></g>
<g><path style="opacity:0.136" fill="#b0b0b0" d="M 554.5,173.5 C 556.036,175.025 557.036,177.025 557.5,179.5C 558.491,183.445 558.824,187.445 558.5,191.5C 557.06,185.645 555.726,179.645 554.5,173.5 Z"/></g>
<g><path style="opacity:0.135" fill="#c2c2c2" d="M 146.5,163.5 C 146.5,163.833 146.5,164.167 146.5,164.5C 141.489,164.334 136.489,164.501 131.5,165C 98.8947,173.103 82.5613,193.936 82.5,227.5C 82.1667,227.5 81.8333,227.5 81.5,227.5C 79.355,198.787 91.355,178.453 117.5,166.5C 127.005,164.023 136.671,163.023 146.5,163.5 Z"/></g>
<g><path style="opacity:0.238" fill="#d6d6d6" d="M 115.5,235.5 C 108.531,217.919 113.531,204.752 130.5,196C 148.523,190.788 161.69,196.621 170,213.5C 173.79,235.722 164.457,248.389 142,251.5C 134.259,251.365 127.426,248.865 121.5,244C 119.112,241.371 117.112,238.538 115.5,235.5 Z M 115.5,235.5 C 117.447,236.473 119.447,237.473 121.5,238.5C 128.844,247.51 138.178,250.843 149.5,248.5C 165.717,241.737 171.384,230.071 166.5,213.5C 159.925,200.717 149.592,195.05 135.5,196.5C 117.886,204.064 111.219,217.064 115.5,235.5 Z"/></g>
<g><path style="opacity:0.163" fill="#d1d1d1" d="M 409.5,194.5 C 427.376,191.848 439.542,198.848 446,215.5C 448.414,232.184 441.914,243.684 426.5,250C 409.504,253.751 397.004,247.918 389,232.5C 384.608,213.609 391.441,200.943 409.5,194.5 Z M 411.5,195.5 C 404.377,199.6 398.044,204.933 392.5,211.5C 389.586,217.232 388.92,223.232 390.5,229.5C 394.756,235.76 399.756,241.427 405.5,246.5C 408.898,248.416 412.565,249.416 416.5,249.5C 429.888,247.457 439.221,240.124 444.5,227.5C 445.833,224.167 445.833,220.833 444.5,217.5C 438.52,202.504 427.52,195.17 411.5,195.5 Z"/></g>
<g><path style="opacity:0.157" fill="#d1d1d1" d="M 421.5,164.5 C 421.5,164.167 421.5,163.833 421.5,163.5C 433.112,163.036 443.778,166.036 453.5,172.5C 475.083,189.913 482.75,212.246 476.5,239.5C 468.365,267.566 449.698,281.566 420.5,281.5C 426.882,280.823 433.215,279.323 439.5,277C 469.61,262.276 481.11,238.443 474,205.5C 465.046,180.934 447.546,167.268 421.5,164.5 Z"/></g>
<g><path style="opacity:0.277" fill="#dddddd" d="M 414.5,55.5 C 415.5,55.5 416.5,55.5 417.5,55.5C 439.481,68.6484 456.981,86.3151 470,108.5C 489.942,139.73 502.608,173.73 508,210.5C 514.088,285.463 489.255,347.963 433.5,398C 365.789,459.084 289.122,473.417 203.5,441C 150.69,421.188 110.523,386.688 83,337.5C 69.1623,313.817 59.9957,288.484 55.5,261.5C 60.4929,278.141 66.1596,294.808 72.5,311.5C 77.3423,324.537 84.6757,335.87 94.5,345.5C 96.9554,352.617 100.289,359.284 104.5,365.5C 115.435,378.438 127.102,390.771 139.5,402.5C 175.428,427.945 214.761,445.112 257.5,454C 277.167,454.667 296.833,454.667 316.5,454C 318.833,453 321.167,452 323.5,451C 333.406,449.4 343.073,447.067 352.5,444C 362.967,438.953 373.633,434.286 384.5,430C 397.522,421.501 410.189,412.335 422.5,402.5C 438.229,387.44 453.229,371.773 467.5,355.5C 476.516,341.474 484.516,326.807 491.5,311.5C 509.481,264.59 510.815,217.257 495.5,169.5C 485.284,142.397 471.951,117.063 455.5,93.5C 445.833,83.8333 436.167,74.1667 426.5,64.5C 423.167,62.5 419.833,60.5 416.5,58.5C 415.388,57.7348 414.721,56.7348 414.5,55.5 Z M 201.5,313.5 C 195.625,318.368 189.958,323.701 184.5,329.5C 180.5,336.833 180.5,344.167 184.5,351.5C 204.573,374.157 221.907,372.157 236.5,345.5C 237.833,342.167 237.833,338.833 236.5,335.5C 230.058,319.782 218.392,312.449 201.5,313.5 Z M 345.5,313.5 C 336.213,318.458 329.213,325.791 324.5,335.5C 323.167,338.833 323.167,342.167 324.5,345.5C 339.093,372.157 356.427,374.157 376.5,351.5C 379.414,345.768 380.08,339.768 378.5,333.5C 374.244,327.24 369.244,321.573 363.5,316.5C 357.798,313.923 351.798,312.923 345.5,313.5 Z"/></g>
<g><path style="opacity:0.156" fill="#cfcfcf" d="M 272.5,194.5 C 294.064,192.093 306.731,201.426 310.5,222.5C 305.959,246.194 291.959,255.027 268.5,249C 252.991,240.812 247.825,228.312 253,211.5C 257.402,203.389 263.902,197.722 272.5,194.5 Z M 275.5,195.5 C 272.462,197.32 269.129,198.986 265.5,200.5C 253.7,209.876 250.7,221.542 256.5,235.5C 272.5,254.167 288.5,254.167 304.5,235.5C 307.467,229.095 308.133,222.429 306.5,215.5C 300.991,201.567 290.657,194.901 275.5,195.5 Z"/></g>
<g><path style="opacity:0.175" fill="#d6d6d6" d="M 201.5,228.5 C 201.119,246.595 193.786,261.262 179.5,272.5C 168.782,278.683 157.449,282.516 145.5,284C 144.058,283.623 143.058,282.79 142.5,281.5C 175.171,278.157 194.837,260.49 201.5,228.5 Z"/></g>
<g><path style="opacity:0.148" fill="#cfcfcf" d="M 286.5,163.5 C 286.5,163.833 286.5,164.167 286.5,164.5C 247.42,164.376 225.42,183.71 220.5,222.5C 224.211,256.54 242.877,276.207 276.5,281.5C 264.522,282.175 253.522,279.175 243.5,272.5C 238.5,267.5 233.5,262.5 228.5,257.5C 216.5,234.167 216.5,210.833 228.5,187.5C 233.5,182.5 238.5,177.5 243.5,172.5C 256.739,164.541 271.072,161.541 286.5,163.5 Z"/></g>
<g><path style="opacity:0.148" fill="#d5d5d5" d="M 286.5,164.5 C 286.5,164.167 286.5,163.833 286.5,163.5C 297.744,163.247 308.078,166.247 317.5,172.5C 322.5,177.5 327.5,182.5 332.5,187.5C 344.5,210.833 344.5,234.167 332.5,257.5C 327.5,262.5 322.5,267.5 317.5,272.5C 307.478,279.175 296.478,282.175 284.5,281.5C 318.123,276.207 336.789,256.54 340.5,222.5C 337.297,189.3 319.297,169.967 286.5,164.5 Z"/></g>
<g><path style="opacity:0.136" fill="#b1b1b1" d="M 53.5,245.5 C 55.4417,250.056 56.1083,255.056 55.5,260.5C 54.2751,255.71 53.6084,250.71 53.5,245.5 Z"/></g>
<g><path style="opacity:0.191" fill="#d7d7d7" d="M 81.5,227.5 C 81.8333,227.5 82.1667,227.5 82.5,227.5C 87.6703,259.004 106.004,277.004 137.5,281.5C 109.791,281.139 91.4576,267.805 82.5,241.5C 81.5067,236.88 81.1734,232.214 81.5,227.5 Z"/></g>
<g><path style="opacity:0.166" fill="#d1d1d1" d="M 357.5,229.5 C 358.69,235.565 360.523,241.565 363,247.5C 373.881,267.689 390.714,279.023 413.5,281.5C 394.194,282.015 378.528,274.681 366.5,259.5C 363.833,254.167 361.167,248.833 358.5,243.5C 357.507,238.88 357.173,234.214 357.5,229.5 Z"/></g>
<g><path style="opacity:1" fill="#f49104" d="M 206.5,281.5 C 208.167,281.5 209.833,281.5 211.5,281.5C 238.453,284.064 256.62,298.064 266,323.5C 273.122,358.354 260.288,382.52 227.5,396C 219.316,398.178 210.983,399.011 202.5,398.5C 173.317,393.315 155.651,376.315 149.5,347.5C 149.5,342.833 149.5,338.167 149.5,333.5C 153.035,311.949 164.702,296.449 184.5,287C 191.727,284.193 199.061,282.36 206.5,281.5 Z M 201.5,313.5 C 195.625,318.368 189.958,323.701 184.5,329.5C 180.5,336.833 180.5,344.167 184.5,351.5C 204.573,374.157 221.907,372.157 236.5,345.5C 237.833,342.167 237.833,338.833 236.5,335.5C 230.058,319.782 218.392,312.449 201.5,313.5 Z"/></g>
<g><path style="opacity:1" fill="#f49104" d="M 349.5,281.5 C 351.167,281.5 352.833,281.5 354.5,281.5C 377.695,283.682 394.862,295.016 406,315.5C 408.477,321.435 410.31,327.435 411.5,333.5C 411.5,338.167 411.5,342.833 411.5,347.5C 405.094,377.236 386.761,394.236 356.5,398.5C 330.289,399.313 310.789,388.313 298,365.5C 287.138,337.449 292.972,313.616 315.5,294C 325.783,286.679 337.116,282.513 349.5,281.5 Z M 345.5,313.5 C 336.213,318.458 329.213,325.791 324.5,335.5C 323.167,338.833 323.167,342.167 324.5,345.5C 339.093,372.157 356.427,374.157 376.5,351.5C 379.414,345.768 380.08,339.768 378.5,333.5C 374.244,327.24 369.244,321.573 363.5,316.5C 357.798,313.923 351.798,312.923 345.5,313.5 Z"/></g>
<g><path style="opacity:0.175" fill="#d1d1d1" d="M 354.5,281.5 C 374.207,280.686 390.207,288.019 402.5,303.5C 405.167,308.833 407.833,314.167 410.5,319.5C 411.493,324.12 411.827,328.786 411.5,333.5C 410.31,327.435 408.477,321.435 406,315.5C 394.862,295.016 377.695,283.682 354.5,281.5 Z"/></g>
<g><path style="opacity:0.171" fill="#cbcbcb" d="M 206.5,281.5 C 199.061,282.36 191.727,284.193 184.5,287C 164.702,296.449 153.035,311.949 149.5,333.5C 149.173,328.786 149.507,324.12 150.5,319.5C 156.712,303.289 167.712,291.623 183.5,284.5C 191.004,282.233 198.671,281.233 206.5,281.5 Z"/></g>
<g><path style="opacity:0.093" fill="#bcbcbc" d="M 558.5,277.5 C 559.089,281.971 558.423,285.971 556.5,289.5C 556.717,285.295 557.383,281.295 558.5,277.5 Z"/></g>
<g><path style="opacity:0.183" fill="#cbcbcb" d="M 349.5,281.5 C 337.116,282.513 325.783,286.679 315.5,294C 292.972,313.616 287.138,337.449 298,365.5C 310.789,388.313 330.289,399.313 356.5,398.5C 356.5,398.833 356.5,399.167 356.5,399.5C 341.727,401.365 328.061,398.365 315.5,390.5C 293.917,373.087 286.25,350.754 292.5,323.5C 300.856,295.147 319.856,281.147 349.5,281.5 Z"/></g>
<g><path style="opacity:0.068" fill="#afafaf" d="M 556.5,289.5 C 557.036,292.698 556.369,295.365 554.5,297.5C 554.802,294.627 555.469,291.961 556.5,289.5 Z"/></g>
<g><path style="opacity:0.071" fill="#b1b1b1" d="M 554.5,299.5 C 554.975,302.082 554.308,304.082 552.5,305.5C 552.595,303.214 553.262,301.214 554.5,299.5 Z"/></g>
<g><path style="opacity:0.129" fill="#969696" d="M 552.5,305.5 C 552.975,308.082 552.308,310.082 550.5,311.5C 550.875,309.302 551.542,307.302 552.5,305.5 Z"/></g>
<g><path style="opacity:0.071" fill="#c3c3c3" d="M 550.5,312.5 C 550.311,316.998 549.311,321.331 547.5,325.5C 546.943,327.332 545.943,328.665 544.5,329.5C 546.129,323.608 548.129,317.941 550.5,312.5 Z"/></g>
<g><path style="opacity:0.056" fill="#b4b4b4" d="M 544.5,329.5 C 544.696,333.606 543.363,336.939 540.5,339.5C 541.314,335.884 542.648,332.551 544.5,329.5 Z"/></g>
<g><path style="opacity:0.037" fill="#c7c7c7" d="M 540.5,339.5 C 540.843,341.483 540.176,342.817 538.5,343.5C 538.66,341.847 539.326,340.514 540.5,339.5 Z"/></g>
<g><path style="opacity:0.218" fill="#d4d4d4" d="M 204.5,311.5 C 221.098,310.707 232.264,318.041 238,333.5C 239.827,354.679 230.161,366.679 209,369.5C 186.152,366.124 176.819,353.124 181,330.5C 185.768,320.219 193.602,313.885 204.5,311.5 Z M 201.5,313.5 C 195.625,318.368 189.958,323.701 184.5,329.5C 180.5,336.833 180.5,344.167 184.5,351.5C 204.573,374.157 221.907,372.157 236.5,345.5C 237.833,342.167 237.833,338.833 236.5,335.5C 230.058,319.782 218.392,312.449 201.5,313.5 Z"/></g>
<g><path style="opacity:0.218" fill="#d3d3d3" d="M 347.5,311.5 C 367.518,311.195 378.851,320.862 381.5,340.5C 379.495,358.004 369.662,367.671 352,369.5C 330.839,366.679 321.173,354.679 323,333.5C 327.286,321.708 335.453,314.374 347.5,311.5 Z M 345.5,313.5 C 336.213,318.458 329.213,325.791 324.5,335.5C 323.167,338.833 323.167,342.167 324.5,345.5C 339.093,372.157 356.427,374.157 376.5,351.5C 379.414,345.768 380.08,339.768 378.5,333.5C 374.244,327.24 369.244,321.573 363.5,316.5C 357.798,313.923 351.798,312.923 345.5,313.5 Z"/></g>
<g><path style="opacity:0.057" fill="#cecece" d="M 538.5,343.5 C 537.316,349.881 534.982,355.881 531.5,361.5C 530.735,362.612 529.735,363.279 528.5,363.5C 531.341,356.484 534.674,349.818 538.5,343.5 Z"/></g>
<g><path style="opacity:0.175" fill="#d4d4d4" d="M 149.5,347.5 C 155.651,376.315 173.317,393.315 202.5,398.5C 202.5,398.833 202.5,399.167 202.5,399.5C 184.405,399.119 169.738,391.786 158.5,377.5C 152.458,368.376 149.458,358.376 149.5,347.5 Z"/></g>
<g><path style="opacity:0.175" fill="#d7d7d7" d="M 411.5,347.5 C 409.819,373.527 396.485,390.527 371.5,398.5C 366.544,399.494 361.544,399.827 356.5,399.5C 356.5,399.167 356.5,398.833 356.5,398.5C 386.761,394.236 405.094,377.236 411.5,347.5 Z"/></g>
<g><path style="opacity:0.136" fill="#d0d0d0" d="M 211.5,281.5 C 241.144,281.147 260.144,295.147 268.5,323.5C 274.75,350.754 267.083,373.087 245.5,390.5C 232.261,398.459 217.928,401.459 202.5,399.5C 202.5,399.167 202.5,398.833 202.5,398.5C 210.983,399.011 219.316,398.178 227.5,396C 260.288,382.52 273.122,358.354 266,323.5C 256.62,298.064 238.453,284.064 211.5,281.5 Z"/></g>
<g><path style="opacity:0.029" fill="#cacaca" d="M 528.5,363.5 C 526.045,371.038 522.545,378.038 518,384.5C 515.852,385.977 514.518,387.977 514,390.5C 512.27,392.076 510.437,393.41 508.5,394.5C 515.419,384.329 522.086,373.995 528.5,363.5 Z"/></g>
<g><path style="opacity:0.171" fill="#d3d3d3" d="M -0.5,232.5 C 0.718249,260.432 5.88492,287.766 15,314.5C 29.7493,354.86 51.4159,390.86 80,422.5C 106.176,448.519 136.009,469.186 169.5,484.5C 167.396,484.799 165.396,484.466 163.5,483.5C 145.513,474.511 128.18,464.511 111.5,453.5C 104.167,447.5 96.8333,441.5 89.5,435.5C 60.2185,406.543 37.2185,373.21 20.5,335.5C 10.3619,311.456 3.36193,286.789 -0.5,261.5C -0.5,251.833 -0.5,242.167 -0.5,232.5 Z"/></g>
<g><path style="opacity:0.169" fill="#d0d0d0" d="M 508.5,394.5 C 508.762,395.978 508.429,397.311 507.5,398.5C 490.5,418.167 472.167,436.5 452.5,453.5C 451.311,454.429 449.978,454.762 448.5,454.5C 470.306,436.272 490.306,416.272 508.5,394.5 Z"/></g>
<g><path style="opacity:0.196" fill="#c4c4c4" d="M 448.5,454.5 C 447.594,456.417 446.261,458.083 444.5,459.5C 441.344,461.689 438.011,463.356 434.5,464.5C 438.806,460.679 443.473,457.345 448.5,454.5 Z"/></g>
<g><path style="opacity:0.2" fill="#c3c3c3" d="M 434.5,464.5 C 433.554,467.313 431.554,468.646 428.5,468.5C 430.147,466.674 432.147,465.34 434.5,464.5 Z"/></g>
<g><path style="opacity:0.143" fill="#c7c7c7" d="M 428.5,468.5 C 428.279,469.735 427.612,470.735 426.5,471.5C 424.01,473.083 421.343,474.083 418.5,474.5C 421.494,472 424.827,470 428.5,468.5 Z"/></g>
<g><path style="opacity:0.134" fill="#cecece" d="M 418.5,474.5 C 418.279,475.735 417.612,476.735 416.5,477.5C 414.01,479.083 411.343,480.083 408.5,480.5C 411.494,478 414.827,476 418.5,474.5 Z"/></g>
<g><path style="opacity:0.141" fill="#c5c5c5" d="M 408.5,480.5 C 407.817,482.176 406.483,482.843 404.5,482.5C 405.514,481.326 406.847,480.66 408.5,480.5 Z"/></g>
<g><path style="opacity:0.143" fill="#c5c5c5" d="M 404.5,482.5 C 403.817,484.176 402.483,484.843 400.5,484.5C 401.514,483.326 402.847,482.66 404.5,482.5 Z"/></g>
<g><path style="opacity:0.143" fill="#c5c5c5" d="M 400.5,484.5 C 399.817,486.176 398.483,486.843 396.5,486.5C 397.514,485.326 398.847,484.66 400.5,484.5 Z"/></g>
<g><path style="opacity:0.318" fill="#dbdbdb" d="M 169.5,484.5 C 172.179,484.525 173.512,485.858 173.5,488.5C 171.5,487.833 170.167,486.5 169.5,484.5 Z"/></g>
<g><path style="opacity:0.145" fill="#c9c9c9" d="M 396.5,486.5 C 395.817,488.176 394.483,488.843 392.5,488.5C 393.514,487.326 394.847,486.66 396.5,486.5 Z"/></g>
<g><path style="opacity:0.19" fill="#d5d5d5" d="M 173.5,498.5 C 161.541,500.317 149.207,501.151 136.5,501C 103.529,504.328 74.5286,516.661 49.5,538C 11.8506,573.769 -4.14944,617.603 1.5,669.5C 1.5,670.5 1.5,671.5 1.5,672.5C 0.833333,672.5 0.166667,672.5 -0.5,672.5C -0.5,655.833 -0.5,639.167 -0.5,622.5C 3.57608,604.629 9.90941,587.296 18.5,570.5C 43.425,529.525 79.7583,505.858 127.5,499.5C 142.819,498.501 158.152,498.167 173.5,498.5 Z"/></g>
<g><path style="opacity:0.124" fill="#d3d3d3" d="M 392.5,488.5 C 391.934,490.078 390.934,491.412 389.5,492.5C 388.534,494.396 388.201,496.396 388.5,498.5C 427.412,494.746 463.412,503.079 496.5,523.5C 510.167,534.5 522.5,546.833 533.5,560.5C 541.771,573.71 548.438,587.71 553.5,602.5C 554.487,605.768 554.82,609.102 554.5,612.5C 548.721,591.678 539.221,572.678 526,555.5C 489.434,513.795 443.267,495.462 387.5,500.5C 387.177,496.774 387.511,493.107 388.5,489.5C 389.736,488.754 391.07,488.421 392.5,488.5 Z"/></g>
<g><path style="opacity:0.08" fill="#9c9c9c" d="M 422.5,540.5 C 424.952,541.065 427.285,541.732 429.5,542.5C 426.612,543.01 424.279,542.344 422.5,540.5 Z"/></g>
<g><path style="opacity:0.204" fill="#939393" d="M 125.5,542.5 C 124.082,544.308 122.082,544.975 119.5,544.5C 121.302,543.542 123.302,542.875 125.5,542.5 Z"/></g>
<g><path style="opacity:0.12" fill="#aeaeae" d="M 432.5,542.5 C 434.698,542.875 436.698,543.542 438.5,544.5C 435.918,544.975 433.918,544.308 432.5,542.5 Z"/></g>
<g><path style="opacity:0.125" fill="#ababab" d="M 438.5,544.5 C 441.152,544.41 443.485,545.076 445.5,546.5C 445.167,546.5 444.833,546.5 444.5,546.5C 441.918,546.975 439.918,546.308 438.5,544.5 Z"/></g>
<g><path style="opacity:0.12" fill="#adadad" d="M 119.5,544.5 C 118.082,546.308 116.082,546.975 113.5,546.5C 115.214,545.262 117.214,544.595 119.5,544.5 Z"/></g>
<g><path style="opacity:0.128" fill="#c3c3c3" d="M 113.5,546.5 C 110.939,549.363 107.606,550.696 103.5,550.5C 106.37,548.206 109.703,546.872 113.5,546.5 Z"/></g>
<g><path style="opacity:0.125" fill="#cecece" d="M 103.5,550.5 C 98.6468,554.615 93.3135,558.282 87.5,561.5C 86.3112,562.429 84.9778,562.762 83.5,562.5C 89.1962,556.981 95.8629,552.981 103.5,550.5 Z"/></g>
<g><path style="opacity:1" fill="#f49104" d="M 476.5,622.5 C 476.753,626.04 477.419,629.373 478.5,632.5C 478.5,641.167 478.5,649.833 478.5,658.5C 477.469,660.961 476.802,663.627 476.5,666.5C 476.5,666.833 476.5,667.167 476.5,667.5C 475.388,669.599 474.721,671.933 474.5,674.5C 473.326,675.514 472.66,676.847 472.5,678.5C 472.5,678.833 472.5,679.167 472.5,679.5C 470.262,682.972 468.262,686.638 466.5,690.5C 462.916,696.092 458.916,701.426 454.5,706.5C 450.183,709.486 446.183,712.82 442.5,716.5C 438.827,718 435.494,720 432.5,722.5C 428.873,723.321 425.54,724.654 422.5,726.5C 420.302,726.875 418.302,727.542 416.5,728.5C 413.273,728.676 410.273,729.343 407.5,730.5C 398.5,730.5 389.5,730.5 380.5,730.5C 348.48,723.655 326.314,704.989 314,674.5C 302.125,634.487 312.291,601.32 344.5,575C 370.572,557.82 398.239,554.82 427.5,566C 452.303,577.627 468.636,596.46 476.5,622.5 Z M 381.5,591.5 C 377.017,593.741 372.35,596.075 367.5,598.5C 361.167,604.833 354.833,611.167 348.5,617.5C 345.949,621.935 343.949,626.601 342.5,631.5C 341.167,640.833 341.167,650.167 342.5,659.5C 345.167,664.833 347.833,670.167 350.5,675.5C 355.5,680.5 360.5,685.5 365.5,690.5C 385.997,702.998 405.997,702.331 425.5,688.5C 447.946,669.189 452.946,646.189 440.5,619.5C 426.606,598.054 406.94,588.72 381.5,591.5 Z"/></g>
<g><path style="opacity:1" fill="#f49104" d="M 203.5,724.5 C 201.847,724.66 200.514,725.326 199.5,726.5C 192.805,728.735 186.138,730.735 179.5,732.5C 169.833,732.5 160.167,732.5 150.5,732.5C 147.727,731.343 144.727,730.676 141.5,730.5C 139.786,729.262 137.786,728.595 135.5,728.5C 101.758,713.411 83.0913,687.411 79.5,650.5C 79.5,648.5 79.5,646.5 79.5,644.5C 84.1178,599.708 108.451,572.208 152.5,562C 193.215,558.436 223.049,574.603 242,610.5C 259.329,659.016 246.496,697.016 203.5,724.5 Z M 151.5,593.5 C 146.616,596.952 141.282,599.952 135.5,602.5C 109.071,624.473 104.738,650.14 122.5,679.5C 142.61,703.387 166.277,707.721 193.5,692.5C 198.5,687.5 203.5,682.5 208.5,677.5C 211.167,672.167 213.833,666.833 216.5,661.5C 217.833,652.167 217.833,642.833 216.5,633.5C 214.588,627.746 211.921,622.412 208.5,617.5C 202.833,611.833 197.167,606.167 191.5,600.5C 187.065,597.949 182.399,595.949 177.5,594.5C 168.859,593.502 160.192,593.169 151.5,593.5 Z"/></g>
<g><path style="opacity:0.175" fill="#d0d0d0" d="M 476.5,622.5 C 468.636,596.46 452.303,577.627 427.5,566C 398.239,554.82 370.572,557.82 344.5,575C 312.291,601.32 302.125,634.487 314,674.5C 326.314,704.989 348.48,723.655 380.5,730.5C 374.601,730.718 368.934,729.884 363.5,728C 354.833,723.333 346.167,718.667 337.5,714C 312.672,690.49 303.006,661.657 308.5,627.5C 316.627,590.706 338.96,567.706 375.5,558.5C 414.574,552.564 445.408,565.564 468,597.5C 469.623,601.71 471.623,605.71 474,609.5C 475.894,613.568 476.727,617.902 476.5,622.5 Z"/></g>
<g><path style="opacity:0.171" fill="#d2d2d2" d="M 203.5,724.5 C 246.496,697.016 259.329,659.016 242,610.5C 223.049,574.603 193.215,558.436 152.5,562C 108.451,572.208 84.1178,599.708 79.5,644.5C 78.4296,625.712 83.4296,608.712 94.5,593.5C 102.987,583.671 112.654,575.337 123.5,568.5C 154.127,555.517 184.127,556.851 213.5,572.5C 233.837,586.195 246.171,605.195 250.5,629.5C 255.765,663.374 246.098,692.04 221.5,715.5C 216.014,719.577 210.014,722.577 203.5,724.5 Z"/></g>
<g><path style="opacity:0.169" fill="#d1d1d1" d="M 390.5,588.5 C 425.943,590.775 445.61,609.608 449.5,645C 448.002,671.338 435.002,689.338 410.5,699C 378.414,705.707 355.581,694.207 342,664.5C 333.907,634.768 342.74,611.602 368.5,595C 375.606,591.623 382.94,589.457 390.5,588.5 Z M 381.5,591.5 C 377.017,593.741 372.35,596.075 367.5,598.5C 361.167,604.833 354.833,611.167 348.5,617.5C 345.949,621.935 343.949,626.601 342.5,631.5C 341.167,640.833 341.167,650.167 342.5,659.5C 345.167,664.833 347.833,670.167 350.5,675.5C 355.5,680.5 360.5,685.5 365.5,690.5C 385.997,702.998 405.997,702.331 425.5,688.5C 447.946,669.189 452.946,646.189 440.5,619.5C 426.606,598.054 406.94,588.72 381.5,591.5 Z"/></g>
<g><path style="opacity:0.125" fill="#cecece" d="M 83.5,562.5 C 77.5751,569.428 71.2417,576.095 64.5,582.5C 61.1667,587.833 57.8333,593.167 54.5,598.5C 51.0504,604.848 48.3837,611.515 46.5,618.5C 45.9432,620.332 44.9432,621.665 43.5,622.5C 49.383,597.364 62.7163,577.364 83.5,562.5 Z"/></g>
<g><path style="opacity:0.086" fill="#aeaeae" d="M 554.5,612.5 C 556.369,614.635 557.036,617.302 556.5,620.5C 555.232,618.095 554.565,615.428 554.5,612.5 Z"/></g>
<g><path style="opacity:0.139" fill="#a4a4a4" d="M 476.5,622.5 C 477.117,622.611 477.617,622.944 478,623.5C 478.498,626.482 478.665,629.482 478.5,632.5C 477.419,629.373 476.753,626.04 476.5,622.5 Z"/></g>
<g><path style="opacity:0.114" fill="#b4b4b4" d="M 43.5,622.5 C 43.3764,628.904 42.7097,635.237 41.5,641.5C 41.1667,641.5 40.8333,641.5 40.5,641.5C 40.6246,634.902 41.6246,628.569 43.5,622.5 Z"/></g>
<g><path style="opacity:0.251" fill="#757575" d="M 556.5,624.5 C 558.436,628.715 559.103,633.381 558.5,638.5C 557.578,634.005 556.911,629.338 556.5,624.5 Z"/></g>
<g><path style="opacity:0.281" fill="#d1d1d1" d="M 444.5,546.5 C 444.833,546.5 445.167,546.5 445.5,546.5C 486.958,561.816 511.124,591.483 518,635.5C 521.187,678.316 505.687,712.483 471.5,738C 454.692,748.603 436.359,754.603 416.5,756C 324.46,756.828 232.46,756.662 140.5,755.5C 140.5,755.167 140.5,754.833 140.5,754.5C 233.836,754.833 327.169,754.5 420.5,753.5C 446.35,748.154 469.183,737.154 489,720.5C 490.547,715.077 493.38,710.411 497.5,706.5C 527.823,652.777 520.156,605.11 474.5,563.5C 464.638,557.24 454.638,551.573 444.5,546.5 Z"/></g>
<g><path style="opacity:0.116" fill="#b4b4b4" d="M 478.5,658.5 C 479.036,661.698 478.369,664.365 476.5,666.5C 476.802,663.627 477.469,660.961 478.5,658.5 Z"/></g>
<g><path style="opacity:0.168" fill="#d5d5d5" d="M 154.5,591.5 C 193.95,589.618 215.95,608.284 220.5,647.5C 217.856,677.639 201.856,696.139 172.5,703C 142.52,704.662 122.354,691.495 112,663.5C 105.405,626.999 119.572,602.999 154.5,591.5 Z M 151.5,593.5 C 146.616,596.952 141.282,599.952 135.5,602.5C 109.071,624.473 104.738,650.14 122.5,679.5C 142.61,703.387 166.277,707.721 193.5,692.5C 198.5,687.5 203.5,682.5 208.5,677.5C 211.167,672.167 213.833,666.833 216.5,661.5C 217.833,652.167 217.833,642.833 216.5,633.5C 214.588,627.746 211.921,622.412 208.5,617.5C 202.833,611.833 197.167,606.167 191.5,600.5C 187.065,597.949 182.399,595.949 177.5,594.5C 168.859,593.502 160.192,593.169 151.5,593.5 Z"/></g>
<g><path style="opacity:0.125" fill="#6f6f6f" d="M 558.5,657.5 C 559.097,662.294 558.43,666.627 556.5,670.5C 557.051,666.027 557.717,661.693 558.5,657.5 Z"/></g>
<g><path style="opacity:0.206" fill="#dadada" d="M 40.5,641.5 C 40.8333,641.5 41.1667,641.5 41.5,641.5C 40.9941,660.969 45.3275,679.303 54.5,696.5C 59.8048,704.637 65.3048,712.637 71,720.5C 90.8848,738.358 114.051,749.692 140.5,754.5C 140.5,754.833 140.5,755.167 140.5,755.5C 91.5429,750.272 59.3762,724.272 44,677.5C 40.9847,665.69 39.8181,653.69 40.5,641.5 Z"/></g>
<g><path style="opacity:0.119" fill="#cccccc" d="M 476.5,667.5 C 477.01,670.388 476.344,672.721 474.5,674.5C 474.721,671.933 475.388,669.599 476.5,667.5 Z"/></g>
<g><path style="opacity:0.096" fill="#b6b6b6" d="M 474.5,674.5 C 474.843,676.483 474.176,677.817 472.5,678.5C 472.66,676.847 473.326,675.514 474.5,674.5 Z"/></g>
<g><path style="opacity:0.125" fill="#adadad" d="M 556.5,676.5 C 556.975,679.082 556.308,681.082 554.5,682.5C 554.875,680.302 555.542,678.302 556.5,676.5 Z"/></g>
<g><path style="opacity:0.121" fill="#c9c9c9" d="M 472.5,679.5 C 472.336,682.748 471.336,685.748 469.5,688.5C 468.735,689.612 467.735,690.279 466.5,690.5C 468.262,686.638 470.262,682.972 472.5,679.5 Z"/></g>
<g><path style="opacity:0.184" fill="#cdcdcd" d="M 79.5,650.5 C 83.0913,687.411 101.758,713.411 135.5,728.5C 126.788,726.479 118.788,722.812 111.5,717.5C 105.833,711.833 100.167,706.167 94.5,700.5C 83.7152,685.59 78.7152,668.923 79.5,650.5 Z"/></g>
<g><path style="opacity:0.129" fill="#a2a2a2" d="M 554.5,684.5 C 554.975,687.082 554.308,689.082 552.5,690.5C 552.875,688.302 553.542,686.302 554.5,684.5 Z"/></g>
<g><path style="opacity:0.073" fill="#b6b6b6" d="M 552.5,691.5 C 552.923,693.781 552.256,695.448 550.5,696.5C 550.796,694.597 551.463,692.93 552.5,691.5 Z"/></g>
<g><path style="opacity:0.08" fill="#c9c9c9" d="M 466.5,690.5 C 464.794,697.541 460.794,702.874 454.5,706.5C 458.916,701.426 462.916,696.092 466.5,690.5 Z"/></g>
<g><path style="opacity:0.073" fill="#b4b4b4" d="M 550.5,697.5 C 550.923,699.781 550.256,701.448 548.5,702.5C 548.402,700.447 549.069,698.78 550.5,697.5 Z"/></g>
<g><path style="opacity:0.167" fill="#d0d0d0" d="M 1.5,669.5 C 10.4398,719.417 37.1065,756.417 81.5,780.5C 79.396,780.799 77.396,780.466 75.5,779.5C 46.1759,762.843 24.5093,739.176 10.5,708.5C 5.6406,696.93 2.6406,684.93 1.5,672.5C 1.5,671.5 1.5,670.5 1.5,669.5 Z"/></g>
<g><path style="opacity:0.039" fill="#a8a8a8" d="M 548.5,702.5 C 548.843,704.483 548.176,705.817 546.5,706.5C 546.66,704.847 547.326,703.514 548.5,702.5 Z"/></g>
<g><path style="opacity:0.039" fill="#b3b3b3" d="M 546.5,707.5 C 546.715,709.179 546.048,710.179 544.5,710.5C 544.932,709.29 545.599,708.29 546.5,707.5 Z"/></g>
<g><path style="opacity:0.106" fill="#bababa" d="M 454.5,706.5 C 452.249,709.758 449.583,712.758 446.5,715.5C 445.311,716.429 443.978,716.762 442.5,716.5C 446.183,712.82 450.183,709.486 454.5,706.5 Z"/></g>
<g><path style="opacity:0.073" fill="#b6b6b6" d="M 544.5,711.5 C 544.923,713.781 544.256,715.448 542.5,716.5C 542.402,714.447 543.069,712.78 544.5,711.5 Z"/></g>
<g><path style="opacity:0.093" fill="#d4d4d4" d="M 442.5,716.5 C 442.279,717.735 441.612,718.735 440.5,719.5C 438.01,721.083 435.343,722.083 432.5,722.5C 435.494,720 438.827,718 442.5,716.5 Z"/></g>
<g><path style="opacity:0.077" fill="#c6c6c6" d="M 542.5,716.5 C 542.083,719.343 541.083,722.01 539.5,724.5C 538.735,725.612 537.735,726.279 536.5,726.5C 538,722.827 540,719.494 542.5,716.5 Z"/></g>
<g><path style="opacity:0.049" fill="#d6d6d6" d="M 203.5,724.5 C 202.817,726.176 201.483,726.843 199.5,726.5C 200.514,725.326 201.847,724.66 203.5,724.5 Z"/></g>
<g><path style="opacity:0.111" fill="#bbbbbb" d="M 432.5,722.5 C 429.939,725.363 426.606,726.696 422.5,726.5C 425.54,724.654 428.873,723.321 432.5,722.5 Z"/></g>
<g><path style="opacity:0.092" fill="#c4c4c4" d="M 422.5,726.5 C 421.082,728.308 419.082,728.975 416.5,728.5C 418.302,727.542 420.302,726.875 422.5,726.5 Z"/></g>
<g><path style="opacity:0.083" fill="#cacaca" d="M 199.5,726.5 C 197.752,728.55 195.419,729.884 192.5,730.5C 188.325,732.064 183.992,732.731 179.5,732.5C 186.138,730.735 192.805,728.735 199.5,726.5 Z"/></g>
<g><path style="opacity:0.108" fill="#b1b1b1" d="M 135.5,728.5 C 137.786,728.595 139.786,729.262 141.5,730.5C 138.918,730.975 136.918,730.308 135.5,728.5 Z"/></g>
<g><path style="opacity:0.118" fill="#b7b7b7" d="M 416.5,728.5 C 414.012,730.388 411.012,731.055 407.5,730.5C 410.273,729.343 413.273,728.676 416.5,728.5 Z"/></g>
<g><path style="opacity:0.118" fill="#afafaf" d="M 141.5,730.5 C 144.727,730.676 147.727,731.343 150.5,732.5C 146.988,733.055 143.988,732.388 141.5,730.5 Z"/></g>
<g><path style="opacity:0.067" fill="#c9c9c9" d="M 536.5,726.5 C 536.083,729.343 535.083,732.01 533.5,734.5C 522.5,748.167 510.167,760.5 496.5,771.5C 494.01,773.083 491.343,774.083 488.5,774.5C 507.833,761.833 523.833,745.833 536.5,726.5 Z"/></g>
<g><path style="opacity:0.076" fill="#c0c0c0" d="M 488.5,774.5 C 487.817,776.176 486.483,776.843 484.5,776.5C 485.514,775.326 486.847,774.66 488.5,774.5 Z"/></g>
<g><path style="opacity:0.076" fill="#bebebe" d="M 484.5,776.5 C 483.256,779.543 480.923,780.876 477.5,780.5C 479.663,778.917 481.996,777.584 484.5,776.5 Z"/></g>
<g><path style="opacity:0.075" fill="#b8b8b8" d="M 81.5,780.5 C 83.153,780.66 84.4863,781.326 85.5,782.5C 83.5168,782.843 82.1834,782.176 81.5,780.5 Z"/></g>
<g><path style="opacity:0.043" fill="#9f9f9f" d="M 476.5,780.5 C 475.817,782.176 474.483,782.843 472.5,782.5C 473.671,781.655 475.005,780.989 476.5,780.5 Z"/></g>
<g><path style="opacity:0.043" fill="#b1b1b1" d="M 472.5,782.5 C 471.817,784.176 470.483,784.843 468.5,784.5C 469.514,783.326 470.847,782.66 472.5,782.5 Z"/></g>
<g><path style="opacity:0.094" fill="#a9a9a9" d="M 85.5,782.5 C 89.116,783.314 92.4493,784.648 95.5,786.5C 91.3942,786.696 88.0608,785.363 85.5,782.5 Z"/></g>
<g><path style="opacity:0.076" fill="#b3b3b3" d="M 468.5,784.5 C 467.448,786.256 465.781,786.923 463.5,786.5C 464.93,785.463 466.597,784.796 468.5,784.5 Z"/></g>
<g><path style="opacity:0.043" fill="#a7a7a7" d="M 462.5,786.5 C 461.817,788.176 460.483,788.843 458.5,788.5C 459.514,787.326 460.847,786.66 462.5,786.5 Z"/></g>
<g><path style="opacity:0.108" fill="#afafaf" d="M 95.5,786.5 C 99.3948,787.462 103.061,788.796 106.5,790.5C 102.042,790.857 98.3755,789.524 95.5,786.5 Z"/></g>
<g><path style="opacity:0.043" fill="#a1a1a1" d="M 456.5,788.5 C 455.817,790.176 454.483,790.843 452.5,790.5C 453.671,789.655 455.005,788.989 456.5,788.5 Z"/></g>
<g><path style="opacity:0.075" fill="#979797" d="M 107.5,790.5 C 110.01,790.927 112.343,791.593 114.5,792.5C 111.612,793.01 109.279,792.344 107.5,790.5 Z"/></g>
<g><path style="opacity:0.125" fill="#8f8f8f" d="M 450.5,790.5 C 449.082,792.308 447.082,792.975 444.5,792.5C 446.302,791.542 448.302,790.875 450.5,790.5 Z"/></g>
<g><path style="opacity:0.093" fill="#909090" d="M 115.5,792.5 C 118.689,792.858 121.689,793.525 124.5,794.5C 120.988,795.055 117.988,794.388 115.5,792.5 Z"/></g>
<g><path style="opacity:0.076" fill="#9d9d9d" d="M 442.5,792.5 C 440.365,794.369 437.698,795.036 434.5,794.5C 437.003,793.629 439.67,792.963 442.5,792.5 Z"/></g>
<g><path style="opacity:0.251" fill="#838383" d="M 127.5,794.5 C 134.324,795.005 140.991,795.671 147.5,796.5C 140.833,796.5 134.167,796.5 127.5,796.5C 127.5,795.833 127.5,795.167 127.5,794.5 Z"/></g>
<g><path style="opacity:0.102" fill="#9e9e9e" d="M 430.5,794.5 C 430.5,795.167 430.5,795.833 430.5,796.5C 424.167,796.5 417.833,796.5 411.5,796.5C 417.685,795.712 424.018,795.045 430.5,794.5 Z"/></g>
</svg>
