<?xml version="1.0" encoding="UTF-8"?>
<!DOCTYPE svg PUBLIC "-//W3C//DTD SVG 1.1//EN" "http://www.w3.org/Graphics/SVG/1.1/DTD/svg11.dtd">
<svg xmlns="http://www.w3.org/2000/svg" version="1.1" width="2000px" height="2828px" style="shape-rendering:geometricPrecision; text-rendering:geometricPrecision; image-rendering:optimizeQuality; fill-rule:evenodd; clip-rule:evenodd" xmlns:xlink="http://www.w3.org/1999/xlink">
<g><path style="opacity:0.989" fill="#000000" d="M 707.5,515.5 C 906.862,515.007 1106.2,515.507 1305.5,517C 1310.74,518.413 1315.74,520.413 1320.5,523C 1355.94,546.087 1388.77,572.587 1419,602.5C 1488.72,684.938 1535.38,779.272 1559,885.5C 1585.78,1040.37 1553.11,1181.04 1461,1307.5C 1405.83,1378.03 1339.66,1435.53 1262.5,1480C 1247.77,1487.7 1232.77,1494.86 1217.5,1501.5C 1216.5,1507.8 1216.17,1514.13 1216.5,1520.5C 1268.94,1516.23 1319.94,1522.73 1369.5,1540C 1444.72,1570.56 1499.89,1622.39 1535,1695.5C 1567.32,1770.77 1569.98,1847.1 1543,1924.5C 1501.48,2027.01 1426.65,2090.18 1318.5,2114C 1303.28,2116.72 1287.95,2118.39 1272.5,2119C 1089.17,2119.67 905.833,2119.67 722.5,2119C 613.198,2111.96 530.031,2062.13 473,1969.5C 431.111,1893.17 422.445,1813.17 447,1729.5C 472.339,1653.93 519.506,1596.43 588.5,1557C 628.116,1535.51 670.449,1523.51 715.5,1521C 737.831,1520.5 760.164,1520.33 782.5,1520.5C 783.037,1511.47 783.037,1502.47 782.5,1493.5C 721.972,1467.43 667.305,1432.6 618.5,1389C 532.717,1304.65 474.884,1203.82 445,1086.5C 408.593,913.801 446.593,760.135 559,625.5C 584.392,597.432 612.225,572.265 642.5,550C 659.647,538.869 677.314,528.536 695.5,519C 699.623,517.808 703.623,516.641 707.5,515.5 Z M 729.5,623.5 C 911.167,623.333 1092.83,623.5 1274.5,624C 1292.4,636.568 1309.74,649.901 1326.5,664C 1346,683.15 1362.83,704.317 1377,727.5C 1414.01,783.158 1439.34,843.825 1453,909.5C 1462.65,972.988 1459.98,1035.99 1445,1098.5C 1428.52,1153.79 1402.86,1204.12 1368,1249.5C 1324.79,1302.06 1274.29,1345.89 1216.5,1381C 1192.96,1394.96 1167.96,1405.63 1141.5,1413C 1119.97,1419.47 1098.3,1425.47 1076.5,1431C 1019.54,1438.02 963.204,1434.69 907.5,1421C 883.229,1412.8 858.896,1404.8 834.5,1397C 769.33,1371.47 713.163,1332.97 666,1281.5C 613.61,1221.41 576.276,1152.75 554,1075.5C 536.201,1003.12 536.201,930.789 554,858.5C 561.911,827.757 573.911,798.757 590,771.5C 604.762,746.969 620.762,723.302 638,700.5C 664.834,670.14 695.334,644.474 729.5,623.5 Z M 860.5,732.5 C 884.895,732.533 898.228,744.699 900.5,769C 898.619,790.046 887.286,802.212 866.5,805.5C 844.955,802.619 833.288,790.286 831.5,768.5C 833.151,749.866 842.817,737.866 860.5,732.5 Z M 1135.5,732.5 C 1163.86,733.366 1177.03,748.032 1175,776.5C 1168.18,799.662 1153.01,808.495 1129.5,803C 1112.79,794.249 1105.62,780.416 1108,761.5C 1111.58,746.42 1120.75,736.754 1135.5,732.5 Z M 710.5,905.5 C 746.718,903.248 769.218,919.581 778,954.5C 779.157,987.675 763.657,1008.51 731.5,1017C 700.782,1021.06 678.615,1009.23 665,981.5C 656.734,953.294 664.568,930.794 688.5,914C 695.618,910.245 702.951,907.412 710.5,905.5 Z M 990.5,905.5 C 1016.69,903.041 1036.85,912.708 1051,934.5C 1064.43,964.601 1057.93,989.434 1031.5,1009C 1006.16,1022.81 982.163,1020.81 959.5,1003C 939.163,981.552 935.996,957.718 950,931.5C 960.115,917.371 973.615,908.704 990.5,905.5 Z M 1265.5,905.5 C 1294.22,903.105 1315.39,914.438 1329,939.5C 1339.15,969.049 1331.32,992.549 1305.5,1010C 1276.07,1024.26 1250.23,1019.43 1228,995.5C 1210.4,967.746 1213.23,942.246 1236.5,919C 1245.23,912.3 1254.9,907.8 1265.5,905.5 Z M 848.5,1142.5 C 886.991,1142.16 908.991,1161 914.5,1199C 909.02,1237.15 887.02,1255.81 848.5,1255C 817.347,1249.18 800.014,1230.51 796.5,1199C 800.199,1167.47 817.532,1148.64 848.5,1142.5 Z M 1136.5,1142.5 C 1162.58,1141.12 1182.41,1151.46 1196,1173.5C 1208.46,1203.78 1201.29,1228.28 1174.5,1247C 1143.62,1262.05 1117.12,1256.55 1095,1230.5C 1079.38,1202.93 1082.88,1178.1 1105.5,1156C 1114.86,1149.05 1125.19,1144.55 1136.5,1142.5 Z M 716.5,1603.5 C 903.834,1603.33 1091.17,1603.5 1278.5,1604C 1354.32,1612.13 1411.82,1648.63 1451,1713.5C 1482.01,1771.31 1487.01,1831.31 1466,1893.5C 1438.59,1962.23 1389.43,2007.4 1318.5,2029C 1304.07,2032.85 1289.41,2035.18 1274.5,2036C 1089.83,2036.67 905.167,2036.67 720.5,2036C 644.447,2029.18 586.28,1993.68 546,1929.5C 511.132,1866.11 507.132,1800.77 534,1733.5C 562.897,1671.61 610.064,1630.77 675.5,1611C 689.153,1607.62 702.82,1605.12 716.5,1603.5 Z M 1217.5,1701.5 C 1266.9,1699.78 1303.4,1720.44 1327,1763.5C 1348.45,1815.53 1338.95,1861.03 1298.5,1900C 1258.71,1930.14 1216.71,1933.48 1172.5,1910C 1134.36,1884.89 1116.53,1849.39 1119,1803.5C 1125.38,1753.45 1152.55,1720.62 1200.5,1705C 1206.31,1703.87 1211.98,1702.7 1217.5,1701.5 Z M 758.5,1705.5 C 812.14,1705.56 849.306,1730.22 870,1779.5C 886.119,1837.5 869.286,1883 819.5,1916C 776.488,1937.17 735.821,1933.5 697.5,1905C 661.909,1872.82 649.742,1833.32 661,1786.5C 673.098,1748.07 698.265,1722.57 736.5,1710C 743.859,1707.95 751.193,1706.45 758.5,1705.5 Z"/></g>
<g><path style="opacity:0.981" fill="#000000" d="M 857.5,669.5 C 903.648,668.643 936.481,688.977 956,730.5C 971.454,775.852 961.621,814.685 926.5,847C 885.638,875.751 844.972,875.417 804.5,846C 769.091,812.188 760.258,772.355 778,726.5C 794.352,693.31 820.852,674.31 857.5,669.5 Z M 860.5,732.5 C 842.817,737.866 833.151,749.866 831.5,768.5C 833.288,790.286 844.955,802.619 866.5,805.5C 887.286,802.212 898.619,790.046 900.5,769C 898.228,744.699 884.895,732.533 860.5,732.5 Z"/></g>
<g><path style="opacity:0.981" fill="#000000" d="M 1133.5,669.5 C 1179.06,668.52 1211.56,688.52 1231,729.5C 1247.43,776.613 1236.93,816.446 1199.5,849C 1162.25,873.932 1124.58,874.598 1086.5,851C 1047.81,819.793 1035.98,780.293 1051,732.5C 1066.56,695.766 1094.06,674.766 1133.5,669.5 Z M 1135.5,732.5 C 1120.75,736.754 1111.58,746.42 1108,761.5C 1105.62,780.416 1112.79,794.249 1129.5,803C 1153.01,808.495 1168.18,799.662 1175,776.5C 1177.03,748.032 1163.86,733.366 1135.5,732.5 Z"/></g>
<g><path style="opacity:0.981" fill="#000000" d="M 707.5,842.5 C 766.092,840.004 807.925,865.004 833,917.5C 850.79,970.846 838.956,1016.35 797.5,1054C 757.605,1083.35 714.605,1088.68 668.5,1070C 636.002,1054.16 614.169,1029 603,994.5C 590.327,936.709 608.494,891.542 657.5,859C 673.202,850.154 689.869,844.654 707.5,842.5 Z M 710.5,905.5 C 702.951,907.412 695.618,910.245 688.5,914C 664.568,930.794 656.734,953.294 665,981.5C 678.615,1009.23 700.782,1021.06 731.5,1017C 763.657,1008.51 779.157,987.675 778,954.5C 769.218,919.581 746.718,903.248 710.5,905.5 Z"/></g>
<g><path style="opacity:0.981" fill="#000000" d="M 986.5,842.5 C 1038.6,839.463 1078.43,859.797 1106,903.5C 1128.4,948.61 1125.4,991.943 1097,1033.5C 1061.69,1074.71 1017.53,1088.88 964.5,1076C 923.735,1062.9 896.568,1036.07 883,995.5C 870.614,945.176 883.781,903.009 922.5,869C 941.458,854.352 962.791,845.519 986.5,842.5 Z M 990.5,905.5 C 973.615,908.704 960.115,917.371 950,931.5C 935.996,957.718 939.163,981.552 959.5,1003C 982.163,1020.81 1006.16,1022.81 1031.5,1009C 1057.93,989.434 1064.43,964.601 1051,934.5C 1036.85,912.708 1016.69,903.041 990.5,905.5 Z"/></g>
<g><path style="opacity:0.981" fill="#000000" d="M 1262.5,842.5 C 1312.21,839.775 1351.05,858.775 1379,899.5C 1403.73,944.515 1402.06,988.515 1374,1031.5C 1340.04,1073.27 1296.54,1088.44 1243.5,1077C 1205.1,1065.93 1177.93,1042.1 1162,1005.5C 1144.41,953.379 1155.57,908.545 1195.5,871C 1215.27,855.358 1237.6,845.858 1262.5,842.5 Z M 1265.5,905.5 C 1254.9,907.8 1245.23,912.3 1236.5,919C 1213.23,942.246 1210.4,967.746 1228,995.5C 1250.23,1019.43 1276.07,1024.26 1305.5,1010C 1331.32,992.549 1339.15,969.049 1329,939.5C 1315.39,914.438 1294.22,903.105 1265.5,905.5 Z"/></g>
<g><path style="opacity:0.982" fill="#000000" d="M 847.5,1079.5 C 903.44,1078.87 943.606,1103.54 968,1153.5C 986.665,1207.01 975.165,1252.84 933.5,1291C 889.993,1322.62 843.993,1326.62 795.5,1303C 743.062,1269.38 724.562,1222.21 740,1161.5C 759.284,1112.37 795.118,1085.04 847.5,1079.5 Z M 848.5,1142.5 C 817.532,1148.64 800.199,1167.47 796.5,1199C 800.014,1230.51 817.347,1249.18 848.5,1255C 887.02,1255.81 909.02,1237.15 914.5,1199C 908.991,1161 886.991,1142.16 848.5,1142.5 Z"/></g>
<g><path style="opacity:0.981" fill="#000000" d="M 1135.5,1079.5 C 1181.37,1078.36 1217.87,1096.02 1245,1132.5C 1270.9,1174.59 1271.9,1217.26 1248,1260.5C 1217.07,1305.87 1174.23,1324.37 1119.5,1316C 1079.1,1306.93 1049.93,1283.76 1032,1246.5C 1012.4,1193.07 1023.23,1146.9 1064.5,1108C 1085.3,1091.26 1108.97,1081.76 1135.5,1079.5 Z M 1136.5,1142.5 C 1125.19,1144.55 1114.86,1149.05 1105.5,1156C 1082.88,1178.1 1079.38,1202.93 1095,1230.5C 1117.12,1256.55 1143.62,1262.05 1174.5,1247C 1201.29,1228.28 1208.46,1203.78 1196,1173.5C 1182.41,1151.46 1162.58,1141.12 1136.5,1142.5 Z"/></g>
<g><path style="opacity:0.981" fill="#000000" d="M 1217.5,1638.5 C 1293.09,1637.68 1348.59,1670.35 1384,1736.5C 1409.18,1793.31 1406.84,1848.98 1377,1903.5C 1337.01,1965.08 1280.17,1992.91 1206.5,1987C 1134.38,1974.55 1086.55,1933.71 1063,1864.5C 1045.25,1796.12 1060.75,1736.62 1109.5,1686C 1140.06,1657.89 1176.06,1642.06 1217.5,1638.5 Z M 1217.5,1701.5 C 1211.98,1702.7 1206.31,1703.87 1200.5,1705C 1152.55,1720.62 1125.38,1753.45 1119,1803.5C 1116.53,1849.39 1134.36,1884.89 1172.5,1910C 1216.71,1933.48 1258.71,1930.14 1298.5,1900C 1338.95,1861.03 1348.45,1815.53 1327,1763.5C 1303.4,1720.44 1266.9,1699.78 1217.5,1701.5 Z"/></g>
<g><path style="opacity:0.981" fill="#000000" d="M 760.5,1642.5 C 837.069,1643.85 891.903,1678.85 925,1747.5C 950.179,1812.91 941.846,1873.58 900,1929.5C 858.367,1977.28 805.867,1997.78 742.5,1991C 681.766,1980.24 637.6,1947.41 610,1892.5C 586.217,1837.04 588.55,1782.71 617,1729.5C 649.787,1675.85 697.621,1646.85 760.5,1642.5 Z M 758.5,1705.5 C 751.193,1706.45 743.859,1707.95 736.5,1710C 698.265,1722.57 673.098,1748.07 661,1786.5C 649.742,1833.32 661.909,1872.82 697.5,1905C 735.821,1933.5 776.488,1937.17 819.5,1916C 869.286,1883 886.119,1837.5 870,1779.5C 849.306,1730.22 812.14,1705.56 758.5,1705.5 Z"/></g>
</svg>
