<?xml version="1.0" encoding="UTF-8"?>
<!DOCTYPE svg PUBLIC "-//W3C//DTD SVG 1.1//EN" "http://www.w3.org/Graphics/SVG/1.1/DTD/svg11.dtd">
<svg xmlns="http://www.w3.org/2000/svg" version="1.1" width="561px" height="797px" style="shape-rendering:geometricPrecision; text-rendering:geometricPrecision; image-rendering:optimizeQuality; fill-rule:evenodd; clip-rule:evenodd" xmlns:xlink="http://www.w3.org/1999/xlink">
<g><path style="opacity:0.983" fill="#010101" d="M 137.5,1.5 C 235.5,1.5 333.5,1.5 431.5,1.5C 442.274,7.39292 452.607,14.0596 462.5,21.5C 473.43,29.7606 483.43,39.0939 492.5,49.5C 498.512,57.5383 504.512,65.5383 510.5,73.5C 511.34,75.8525 512.674,77.8525 514.5,79.5C 516,83.173 518,86.5063 520.5,89.5C 523.33,95.8302 526.663,101.83 530.5,107.5C 530.66,109.153 531.326,110.486 532.5,111.5C 532.66,113.153 533.326,114.486 534.5,115.5C 534.66,117.153 535.326,118.486 536.5,119.5C 536.796,121.403 537.463,123.07 538.5,124.5C 538.5,124.833 538.5,125.167 538.5,125.5C 538.932,126.71 539.599,127.71 540.5,128.5C 540.5,128.833 540.5,129.167 540.5,129.5C 540.989,130.995 541.655,132.329 542.5,133.5C 542.5,134.167 542.5,134.833 542.5,135.5C 542.427,137.027 543.094,138.027 544.5,138.5C 544.5,138.833 544.5,139.167 544.5,139.5C 544.989,140.995 545.655,142.329 546.5,143.5C 546.5,144.167 546.5,144.833 546.5,145.5C 546.989,146.995 547.655,148.329 548.5,149.5C 548.5,150.167 548.5,150.833 548.5,151.5C 548.989,152.995 549.655,154.329 550.5,155.5C 550.5,156.167 550.5,156.833 550.5,157.5C 551.048,159.626 551.715,161.626 552.5,163.5C 554.45,168.633 555.783,173.967 556.5,179.5C 556.99,182.655 557.656,185.655 558.5,188.5C 559.819,218.542 559.819,248.542 558.5,278.5C 557.475,281.974 556.808,285.64 556.5,289.5C 556.5,289.833 556.5,290.167 556.5,290.5C 555.593,292.657 554.927,294.99 554.5,297.5C 554.5,298.5 554.5,299.5 554.5,300.5C 553.463,301.93 552.796,303.597 552.5,305.5C 552.5,305.833 552.5,306.167 552.5,306.5C 551.691,308.028 551.024,309.694 550.5,311.5C 550.5,312.167 550.5,312.833 550.5,313.5C 549.262,315.214 548.595,317.214 548.5,319.5C 547.262,321.214 546.595,323.214 546.5,325.5C 545.326,326.514 544.66,327.847 544.5,329.5C 544.5,329.833 544.5,330.167 544.5,330.5C 543.463,331.93 542.796,333.597 542.5,335.5C 541.326,336.514 540.66,337.847 540.5,339.5C 539.655,340.671 538.989,342.005 538.5,343.5C 538.5,343.833 538.5,344.167 538.5,344.5C 534.928,350.641 531.595,356.974 528.5,363.5C 527.326,364.514 526.66,365.847 526.5,367.5C 524,370.494 522,373.827 520.5,377.5C 516.922,382.32 513.588,387.32 510.5,392.5C 509.5,392.833 508.833,393.5 508.5,394.5C 506.122,396.878 504.122,399.545 502.5,402.5C 501.5,402.833 500.833,403.5 500.5,404.5C 495.467,409.532 490.801,414.865 486.5,420.5C 485.5,420.833 484.833,421.5 484.5,422.5C 483.5,422.833 482.833,423.5 482.5,424.5C 481.5,424.833 480.833,425.5 480.5,426.5C 479.5,426.833 478.833,427.5 478.5,428.5C 477.5,428.833 476.833,429.5 476.5,430.5C 475.5,430.833 474.833,431.5 474.5,432.5C 473.5,432.833 472.833,433.5 472.5,434.5C 467.533,438.132 462.867,442.132 458.5,446.5C 457.5,446.833 456.833,447.5 456.5,448.5C 453.527,450.147 450.86,452.147 448.5,454.5C 447.5,454.833 446.833,455.5 446.5,456.5C 444.223,457.449 442.223,458.782 440.5,460.5C 438.246,461.124 436.579,462.457 435.5,464.5C 435.167,464.5 434.833,464.5 434.5,464.5C 433.5,464.833 432.833,465.5 432.5,466.5C 430.847,466.66 429.514,467.326 428.5,468.5C 426.205,469.475 424.205,470.808 422.5,472.5C 421.29,472.932 420.29,473.599 419.5,474.5C 419.167,474.5 418.833,474.5 418.5,474.5C 416.205,475.475 414.205,476.808 412.5,478.5C 410.973,478.427 409.973,479.094 409.5,480.5C 409.167,480.5 408.833,480.5 408.5,480.5C 407.29,480.932 406.29,481.599 405.5,482.5C 405.167,482.5 404.833,482.5 404.5,482.5C 403.29,482.932 402.29,483.599 401.5,484.5C 401.167,484.5 400.833,484.5 400.5,484.5C 399.29,484.932 398.29,485.599 397.5,486.5C 397.167,486.5 396.833,486.5 396.5,486.5C 395.005,486.989 393.671,487.655 392.5,488.5C 390.83,488.751 389.33,489.418 388,490.5C 387.502,493.817 387.335,497.15 387.5,500.5C 441.802,495.315 487.302,512.648 524,552.5C 532.977,563.63 540.477,575.63 546.5,588.5C 546.66,590.153 547.326,591.486 548.5,592.5C 548.796,594.403 549.463,596.07 550.5,597.5C 550.5,597.833 550.5,598.167 550.5,598.5C 551.895,602.59 553.228,606.59 554.5,610.5C 554.5,611.167 554.5,611.833 554.5,612.5C 555.024,614.306 555.691,615.972 556.5,617.5C 558.627,635.105 558.96,652.772 557.5,670.5C 556.682,678.104 555.015,685.437 552.5,692.5C 551.655,693.671 550.989,695.005 550.5,696.5C 550.5,696.833 550.5,697.167 550.5,697.5C 549.463,698.93 548.796,700.597 548.5,702.5C 547.715,706.068 546.382,709.401 544.5,712.5C 543.326,713.514 542.66,714.847 542.5,716.5C 541.326,717.514 540.66,718.847 540.5,720.5C 538.808,722.205 537.475,724.205 536.5,726.5C 536.5,726.833 536.5,727.167 536.5,727.5C 535.599,728.29 534.932,729.29 534.5,730.5C 532.147,732.86 530.147,735.527 528.5,738.5C 524.82,742.183 521.486,746.183 518.5,750.5C 517.5,750.833 516.833,751.5 516.5,752.5C 515.5,752.833 514.833,753.5 514.5,754.5C 513.5,754.833 512.833,755.5 512.5,756.5C 511.5,756.833 510.833,757.5 510.5,758.5C 506.873,760.794 503.539,763.46 500.5,766.5C 497.527,768.147 494.86,770.147 492.5,772.5C 490.847,772.66 489.514,773.326 488.5,774.5C 487.29,774.932 486.29,775.599 485.5,776.5C 485.167,776.5 484.833,776.5 484.5,776.5C 483.5,776.833 482.833,777.5 482.5,778.5C 480.847,778.66 479.514,779.326 478.5,780.5C 476.718,781.72 474.718,782.386 472.5,782.5C 471.29,782.932 470.29,783.599 469.5,784.5C 469.167,784.5 468.833,784.5 468.5,784.5C 467.005,784.989 465.671,785.655 464.5,786.5C 453.248,790.805 441.915,794.138 430.5,796.5C 329.5,796.5 228.5,796.5 127.5,796.5C 120.023,794.623 112.356,792.623 104.5,790.5C 102.077,788.145 99.0774,787.145 95.5,787.5C 95.1583,786.662 94.4916,786.328 93.5,786.5C 92.4863,785.326 91.153,784.66 89.5,784.5C 88.3285,783.655 86.9952,782.989 85.5,782.5C 85.1667,782.5 84.8333,782.5 84.5,782.5C 83.7095,781.599 82.7095,780.932 81.5,780.5C 81.1667,780.5 80.8333,780.5 80.5,780.5C 78.3374,778.917 76.0041,777.584 73.5,776.5C 72.4863,775.326 71.153,774.66 69.5,774.5C 62.7332,769.579 56.0666,764.413 49.5,759C 43.2698,752.938 37.2698,746.771 31.5,740.5C -4.03764,690.261 -9.20431,636.928 16,580.5C 38.6077,539.589 72.7744,513.756 118.5,503C 137.116,501.383 155.45,499.883 173.5,498.5C 173.5,495.167 173.5,491.833 173.5,488.5C 173.5,487.5 173.5,486.5 173.5,485.5C 172.041,485.567 170.708,485.234 169.5,484.5C 169.167,484.5 168.833,484.5 168.5,484.5C 167.07,483.463 165.403,482.796 163.5,482.5C 162.486,481.326 161.153,480.66 159.5,480.5C 158.486,479.326 157.153,478.66 155.5,478.5C 151.194,475.343 146.528,472.676 141.5,470.5C 140.486,469.326 139.153,468.66 137.5,468.5C 135.882,466.684 133.882,465.351 131.5,464.5C 129.795,462.808 127.795,461.475 125.5,460.5C 114.574,452.916 103.908,444.916 93.5,436.5C 81.6882,424.169 70.3548,411.503 59.5,398.5C 36.6986,367.684 19.8652,333.684 9,296.5C 6.28339,284.741 3.78339,273.074 1.5,261.5C 1.10145,253.33 0.434781,245.33 -0.5,237.5C -0.5,225.167 -0.5,212.833 -0.5,200.5C 0.399573,195.668 1.06624,190.668 1.5,185.5C 1.5,184.833 1.5,184.167 1.5,183.5C 4.58261,170.224 7.91595,156.891 11.5,143.5C 12.7384,141.786 13.405,139.786 13.5,137.5C 32.241,88.9147 62.5743,49.0814 104.5,18C 111.167,14 117.833,10 124.5,6C 128.715,3.76318 133.048,2.26318 137.5,1.5 Z M 414.5,55.5 C 414.721,56.7348 415.388,57.7348 416.5,58.5C 419.833,60.5 423.167,62.5 426.5,64.5C 436.167,74.1667 445.833,83.8333 455.5,93.5C 471.951,117.063 485.284,142.397 495.5,169.5C 510.815,217.257 509.481,264.59 491.5,311.5C 486.833,320.833 482.167,330.167 477.5,339.5C 472.167,347.5 466.833,355.5 461.5,363.5C 443.185,383.322 423.519,401.489 402.5,418C 395.977,421.185 389.977,425.185 384.5,430C 376.823,432.56 369.49,435.893 362.5,440C 347.124,444.753 331.791,449.42 316.5,454C 296.833,454.667 277.167,454.667 257.5,454C 214.761,445.112 175.428,427.945 139.5,402.5C 127.102,390.771 115.435,378.438 104.5,365.5C 100.289,359.284 96.9554,352.617 94.5,345.5C 91.8333,342.833 89.1667,340.167 86.5,337.5C 81.4462,328.708 76.4462,320.041 71.5,311.5C 71.6959,307.394 70.3625,304.061 67.5,301.5C 64.3078,290.25 61.3078,278.917 58.5,267.5C 58.0358,265.025 57.0358,263.025 55.5,261.5C 55.5,260.5 55.5,259.5 55.5,258.5C 56.0969,253.706 55.4302,249.373 53.5,245.5C 53.5,230.167 53.5,214.833 53.5,199.5C 57.5926,182.823 62.5926,166.157 68.5,149.5C 77.5806,131.109 88.2473,113.775 100.5,97.5C 110.167,87.8333 119.833,78.1667 129.5,68.5C 135.156,64.0038 141.156,60.0038 147.5,56.5C 236.498,55.5 325.498,55.1667 414.5,55.5 Z M 217.5,109.5 C 232.363,119.666 233.029,130.666 219.5,142.5C 216.167,143.833 212.833,143.833 209.5,142.5C 205.032,138.375 201.032,134.041 197.5,129.5C 197.5,128.167 197.5,126.833 197.5,125.5C 199.036,123.975 200.036,121.975 200.5,119.5C 202.833,117.167 205.167,114.833 207.5,112.5C 210.55,110.483 213.883,109.483 217.5,109.5 Z M 353.5,109.5 C 359.915,113.594 364.581,119.261 367.5,126.5C 365.068,132.942 361.068,138.276 355.5,142.5C 352.167,143.833 348.833,143.833 345.5,142.5C 339.672,138.683 336.339,133.349 335.5,126.5C 335.833,124.833 336.167,123.167 336.5,121.5C 340.167,117.833 343.833,114.167 347.5,110.5C 349.396,109.534 351.396,109.201 353.5,109.5 Z M 149.5,249.5 C 149.167,249.5 148.833,249.5 148.5,249.5C 137.576,250.538 128.576,246.871 121.5,238.5C 120.311,237.571 118.978,237.238 117.5,237.5C 117.5,236.167 116.833,235.5 115.5,235.5C 115.5,235.167 115.5,234.833 115.5,234.5C 111.526,216.454 118.193,203.787 135.5,196.5C 142.74,194.819 149.407,196.152 155.5,200.5C 168.854,210.521 171.854,222.854 164.5,237.5C 162.167,239.833 159.833,242.167 157.5,244.5C 154.367,245.716 151.7,247.383 149.5,249.5 Z M 422.5,195.5 C 422.833,195.5 423.167,195.5 423.5,195.5C 425.7,197.617 428.367,199.284 431.5,200.5C 439.212,205.929 443.878,213.262 445.5,222.5C 442.54,234.799 435.207,243.465 423.5,248.5C 417.232,250.08 411.232,249.414 405.5,246.5C 401.167,242.167 396.833,237.833 392.5,233.5C 388.5,226.167 388.5,218.833 392.5,211.5C 397.684,204.976 404.017,199.976 411.5,196.5C 415.107,195.511 418.774,195.177 422.5,195.5 Z M 275.5,195.5 C 290.657,194.901 300.991,201.567 306.5,215.5C 308.133,222.429 307.467,229.095 304.5,235.5C 288.5,254.167 272.5,254.167 256.5,235.5C 250.7,221.542 253.7,209.876 265.5,200.5C 269.129,198.986 272.462,197.32 275.5,195.5 Z M 215.5,313.5 C 224.787,318.458 231.787,325.791 236.5,335.5C 237.833,338.833 237.833,342.167 236.5,345.5C 221.907,372.157 204.573,374.157 184.5,351.5C 180.5,344.167 180.5,336.833 184.5,329.5C 189.573,323.756 195.24,318.756 201.5,314.5C 206.12,313.507 210.786,313.173 215.5,313.5 Z M 359.5,313.5 C 365.375,318.368 371.042,323.701 376.5,329.5C 380.5,336.833 380.5,344.167 376.5,351.5C 356.427,374.157 339.093,372.157 324.5,345.5C 323.167,342.167 323.167,338.833 324.5,335.5C 330.942,319.782 342.608,312.449 359.5,313.5 Z M 438.5,544.5 C 439.552,546.256 441.219,546.923 443.5,546.5C 443.833,546.5 444.167,546.5 444.5,546.5C 447.061,549.363 450.394,550.696 454.5,550.5C 455.183,552.176 456.517,552.843 458.5,552.5C 458.721,553.735 459.388,554.735 460.5,555.5C 465.492,557.661 470.159,560.328 474.5,563.5C 520.156,605.11 527.823,652.777 497.5,706.5C 493.38,710.411 490.547,715.077 489,720.5C 469.183,737.154 446.35,748.154 420.5,753.5C 326.167,754.833 231.833,754.833 137.5,753.5C 112.114,748.723 89.947,737.723 71,720.5C 67.7433,715.654 64.2433,710.988 60.5,706.5C 46.2174,684.644 39.8841,660.644 41.5,634.5C 43.4136,631.316 44.0803,627.649 43.5,623.5C 43.5,623.167 43.5,622.833 43.5,622.5C 44.9432,621.665 45.9432,620.332 46.5,618.5C 48.126,614.629 49.126,610.629 49.5,606.5C 51.7889,603.3 54.1222,599.966 56.5,596.5C 58.0828,594.01 59.0828,591.343 59.5,588.5C 62.3126,587.554 63.646,585.554 63.5,582.5C 70.1667,577.167 76.1667,571.167 81.5,564.5C 82.8333,564.5 83.5,563.833 83.5,562.5C 86.5539,562.646 88.5539,561.313 89.5,558.5C 92.3433,558.083 95.01,557.083 97.5,555.5C 98.6119,554.735 99.2786,553.735 99.5,552.5C 101.483,552.843 102.817,552.176 103.5,550.5C 103.833,550.5 104.167,550.5 104.5,550.5C 108.223,550.466 111.223,549.133 113.5,546.5C 113.833,546.5 114.167,546.5 114.5,546.5C 116.781,546.923 118.448,546.256 119.5,544.5C 124.831,543.634 130.165,542.634 135.5,541.5C 231.167,540.167 326.833,540.167 422.5,541.5C 427.835,542.634 433.169,543.634 438.5,544.5 Z M 406.5,591.5 C 406.833,591.5 407.167,591.5 407.5,591.5C 412.384,594.952 417.718,597.952 423.5,600.5C 434.945,609.733 442.612,621.4 446.5,635.5C 447.496,641.463 447.829,647.463 447.5,653.5C 447.5,654.167 447.5,654.833 447.5,655.5C 443.925,662.65 440.259,669.983 436.5,677.5C 432.833,681.167 429.167,684.833 425.5,688.5C 418.966,692.757 412.299,696.424 405.5,699.5C 405.167,699.5 404.833,699.5 404.5,699.5C 390.384,701.253 377.384,698.253 365.5,690.5C 360.5,685.5 355.5,680.5 350.5,675.5C 347.952,669.718 344.952,664.384 341.5,659.5C 341.5,659.167 341.5,658.833 341.5,658.5C 341.5,649.5 341.5,640.5 341.5,631.5C 343.741,627.017 346.075,622.35 348.5,617.5C 354.833,611.167 361.167,604.833 367.5,598.5C 371.935,595.949 376.601,593.949 381.5,592.5C 389.807,591.502 398.14,591.169 406.5,591.5 Z M 217.5,661.5 C 214.048,666.384 211.048,671.718 208.5,677.5C 203.5,682.5 198.5,687.5 193.5,692.5C 187.316,695.592 181.316,698.592 175.5,701.5C 153.804,703.817 136.138,696.484 122.5,679.5C 118.741,671.983 115.075,664.65 111.5,657.5C 110.401,627.37 123.734,606.37 151.5,594.5C 165.586,591.938 178.919,593.938 191.5,600.5C 197.167,606.167 202.833,611.833 208.5,617.5C 211.921,622.412 214.588,627.746 216.5,633.5C 217.498,642.81 217.832,652.143 217.5,661.5 Z"/></g>
<g><path style="opacity:0.131" fill="#e9e9e9" d="M 431.5,1.5 C 436.114,2.3021 440.448,3.96877 444.5,6.5C 448.5,9.16667 452.5,11.8333 456.5,14.5C 458.92,16.5782 460.92,18.9115 462.5,21.5C 452.607,14.0596 442.274,7.39292 431.5,1.5 Z"/></g>
<g><path style="opacity:0.206" fill="#eeeeee" d="M 137.5,1.5 C 133.048,2.26318 128.715,3.76318 124.5,6C 117.833,10 111.167,14 104.5,18C 62.5743,49.0814 32.241,88.9147 13.5,137.5C 13.874,133.371 14.874,129.371 16.5,125.5C 27.8164,101.517 41.1498,78.8501 56.5,57.5C 70.5533,42.6662 85.5533,28.9995 101.5,16.5C 110.167,11.8333 118.833,7.16667 127.5,2.5C 130.768,1.51298 134.102,1.17964 137.5,1.5 Z"/></g>
<g><path style="opacity:0.138" fill="#f2f2f2" d="M 462.5,21.5 C 466.011,22.6443 469.344,24.311 472.5,26.5C 478.833,32.8333 485.167,39.1667 491.5,45.5C 492.429,46.6888 492.762,48.0222 492.5,49.5C 483.43,39.0939 473.43,29.7606 462.5,21.5 Z"/></g>
<g><path style="opacity:0.125" fill="#ebebeb" d="M 492.5,49.5 C 495.758,51.7506 498.758,54.4172 501.5,57.5C 502.73,60.7323 504.73,63.3989 507.5,65.5C 509.083,67.99 510.083,70.6567 510.5,73.5C 504.512,65.5383 498.512,57.5383 492.5,49.5 Z"/></g>
<g><path style="opacity:0.162" fill="#cecece" d="M 417.5,55.5 C 416.5,55.5 415.5,55.5 414.5,55.5C 325.498,55.1667 236.498,55.5 147.5,56.5C 141.156,60.0038 135.156,64.0038 129.5,68.5C 119.833,78.1667 110.167,87.8333 100.5,97.5C 88.2473,113.775 77.5806,131.109 68.5,149.5C 62.5926,166.157 57.5926,182.823 53.5,199.5C 61.1517,150.026 83.1517,108.193 119.5,74C 127.946,66.8887 136.946,60.5554 146.5,55C 237.001,54.1676 327.334,54.3343 417.5,55.5 Z"/></g>
<g><path style="opacity:0.114" fill="#eaeaea" d="M 510.5,73.5 C 513.313,74.4461 514.646,76.4461 514.5,79.5C 512.674,77.8525 511.34,75.8525 510.5,73.5 Z"/></g>
<g><path style="opacity:0.181" fill="#ededed" d="M 303.5,135.5 C 311.137,164.162 329.804,177.329 359.5,175C 377.55,171.281 389.717,160.781 396,143.5C 402.853,119.052 396.019,99.5519 375.5,85C 352.325,73.3263 331.825,76.8263 314,95.5C 309.107,102.281 305.607,109.614 303.5,117.5C 305.666,97.656 316.332,84.656 335.5,78.5C 358.647,72.882 377.647,79.2154 392.5,97.5C 398.203,106.693 400.536,116.693 399.5,127.5C 399.959,152.892 387.959,169.225 363.5,176.5C 343.665,180.774 326.665,175.774 312.5,161.5C 306.515,153.88 303.515,145.214 303.5,135.5 Z"/></g>
<g><path style="opacity:0.981" fill="#020202" d="M 303.5,135.5 C 303.5,129.5 303.5,123.5 303.5,117.5C 305.607,109.614 309.107,102.281 314,95.5C 331.825,76.8263 352.325,73.3263 375.5,85C 396.019,99.5519 402.853,119.052 396,143.5C 389.717,160.781 377.55,171.281 359.5,175C 329.804,177.329 311.137,164.162 303.5,135.5 Z M 353.5,109.5 C 351.396,109.201 349.396,109.534 347.5,110.5C 343.833,114.167 340.167,117.833 336.5,121.5C 336.167,123.167 335.833,124.833 335.5,126.5C 336.339,133.349 339.672,138.683 345.5,142.5C 348.833,143.833 352.167,143.833 355.5,142.5C 361.068,138.276 365.068,132.942 367.5,126.5C 364.581,119.261 359.915,113.594 353.5,109.5 Z"/></g>
<g><path style="opacity:0.119" fill="#e5e5e5" d="M 514.5,79.5 C 515.735,79.7214 516.735,80.3881 517.5,81.5C 519.083,83.99 520.083,86.6567 520.5,89.5C 518,86.5063 516,83.173 514.5,79.5 Z"/></g>
<g><path style="opacity:0.105" fill="#e3e3e3" d="M 520.5,89.5 C 521.735,89.7214 522.735,90.3881 523.5,91.5C 526.408,96.6423 528.741,101.976 530.5,107.5C 526.663,101.83 523.33,95.8302 520.5,89.5 Z"/></g>
<g><path style="opacity:0.204" fill="#ededed" d="M 199.5,77.5 C 209.522,77.1681 219.522,77.5015 229.5,78.5C 246.639,84.3077 257.639,95.9743 262.5,113.5C 267.27,135.184 261.603,153.517 245.5,168.5C 224.833,180.5 204.167,180.5 183.5,168.5C 166.97,152.896 161.303,133.896 166.5,111.5C 167.949,106.601 169.949,101.935 172.5,97.5C 176.833,93.1667 181.167,88.8333 185.5,84.5C 190.35,82.0748 195.017,79.7415 199.5,77.5 Z M 217.5,109.5 C 232.363,119.666 233.029,130.666 219.5,142.5C 216.167,143.833 212.833,143.833 209.5,142.5C 205.032,138.375 201.032,134.041 197.5,129.5C 197.5,128.167 197.5,126.833 197.5,125.5C 199.036,123.975 200.036,121.975 200.5,119.5C 202.833,117.167 205.167,114.833 207.5,112.5C 210.55,110.483 213.883,109.483 217.5,109.5 Z"/></g>
<g><path style="opacity:0.983" fill="#020202" d="M 205.5,78.5 C 235.681,76.663 254.514,90.3297 262,119.5C 263.748,146.191 252.248,164.358 227.5,174C 205.926,179.143 188.426,172.977 175,155.5C 160.372,129.387 164.205,106.553 186.5,87C 192.446,83.0218 198.779,80.1885 205.5,78.5 Z M 217.5,109.5 C 232.363,119.666 233.029,130.666 219.5,142.5C 216.167,143.833 212.833,143.833 209.5,142.5C 205.032,138.375 201.032,134.041 197.5,129.5C 197.5,128.167 197.5,126.833 197.5,125.5C 199.036,123.975 200.036,121.975 200.5,119.5C 202.833,117.167 205.167,114.833 207.5,112.5C 210.55,110.483 213.883,109.483 217.5,109.5 Z"/></g>
<g><path style="opacity:0.105" fill="#e9e9e9" d="M 530.5,107.5 C 532.176,108.183 532.843,109.517 532.5,111.5C 531.326,110.486 530.66,109.153 530.5,107.5 Z"/></g>
<g><path style="opacity:0.152" fill="#e7e7e7" d="M 217.5,109.5 C 213.883,109.483 210.55,110.483 207.5,112.5C 205.167,114.833 202.833,117.167 200.5,119.5C 200.036,121.975 199.036,123.975 197.5,125.5C 198.744,115.756 204.244,110.089 214,108.5C 215.385,108.514 216.551,108.848 217.5,109.5 Z"/></g>
<g><path style="opacity:0.105" fill="#e2e2e2" d="M 532.5,111.5 C 534.176,112.183 534.843,113.517 534.5,115.5C 533.326,114.486 532.66,113.153 532.5,111.5 Z"/></g>
<g><path style="opacity:0.105" fill="#ebebeb" d="M 534.5,115.5 C 536.176,116.183 536.843,117.517 536.5,119.5C 535.326,118.486 534.66,117.153 534.5,115.5 Z"/></g>
<g><path style="opacity:0.103" fill="#ededed" d="M 536.5,119.5 C 538.256,120.552 538.923,122.219 538.5,124.5C 537.463,123.07 536.796,121.403 536.5,119.5 Z"/></g>
<g><path style="opacity:0.076" fill="#e5e5e5" d="M 538.5,125.5 C 540.048,125.821 540.715,126.821 540.5,128.5C 539.599,127.71 538.932,126.71 538.5,125.5 Z"/></g>
<g><path style="opacity:0.199" fill="#efefef" d="M 217.5,109.5 C 224.309,110.805 228.809,114.805 231,121.5C 232.832,137.665 225.666,145.498 209.5,145C 202.639,141.981 198.639,136.814 197.5,129.5C 201.032,134.041 205.032,138.375 209.5,142.5C 212.833,143.833 216.167,143.833 219.5,142.5C 233.029,130.666 232.363,119.666 217.5,109.5 Z"/></g>
<g><path style="opacity:0.225" fill="#e8e8e8" d="M 353.5,109.5 C 361.282,110.445 366.116,114.778 368,122.5C 369.251,138.246 362.084,145.746 346.5,145C 336.53,140.78 332.364,133.28 334,122.5C 335.736,115.763 339.903,111.263 346.5,109C 349.039,108.204 351.372,108.371 353.5,109.5 Z M 353.5,109.5 C 351.396,109.201 349.396,109.534 347.5,110.5C 343.833,114.167 340.167,117.833 336.5,121.5C 336.167,123.167 335.833,124.833 335.5,126.5C 336.339,133.349 339.672,138.683 345.5,142.5C 348.833,143.833 352.167,143.833 355.5,142.5C 361.068,138.276 365.068,132.942 367.5,126.5C 364.581,119.261 359.915,113.594 353.5,109.5 Z"/></g>
<g><path style="opacity:0.095" fill="#ececec" d="M 540.5,129.5 C 542.176,130.183 542.843,131.517 542.5,133.5C 541.655,132.329 540.989,130.995 540.5,129.5 Z"/></g>
<g><path style="opacity:0.322" fill="#8c8c8c" d="M 542.5,135.5 C 544.048,135.821 544.715,136.821 544.5,138.5C 543.094,138.027 542.427,137.027 542.5,135.5 Z"/></g>
<g><path style="opacity:0.15" fill="#f7f7f7" d="M 13.5,137.5 C 13.405,139.786 12.7384,141.786 11.5,143.5C 11.0254,140.918 11.6921,138.918 13.5,137.5 Z"/></g>
<g><path style="opacity:0.095" fill="#f6f6f6" d="M 544.5,139.5 C 546.176,140.183 546.843,141.517 546.5,143.5C 545.655,142.329 544.989,140.995 544.5,139.5 Z"/></g>
<g><path style="opacity:0.076" fill="#e1e1e1" d="M 546.5,145.5 C 548.176,146.183 548.843,147.517 548.5,149.5C 547.655,148.329 546.989,146.995 546.5,145.5 Z"/></g>
<g><path style="opacity:0.094" fill="#e9e9e9" d="M 548.5,151.5 C 550.176,152.183 550.843,153.517 550.5,155.5C 549.655,154.329 548.989,152.995 548.5,151.5 Z"/></g>
<g><path style="opacity:0.095" fill="#d6d6d6" d="M 550.5,157.5 C 552.308,158.918 552.975,160.918 552.5,163.5C 551.715,161.626 551.048,159.626 550.5,157.5 Z"/></g>
<g><path style="opacity:0.261" fill="#f7f7f7" d="M 11.5,143.5 C 7.91595,156.891 4.58261,170.224 1.5,183.5C 1.17338,178.786 1.50671,174.12 2.5,169.5C 4.81144,162.254 6.81144,154.921 8.5,147.5C 9.05684,145.668 10.0568,144.335 11.5,143.5 Z"/></g>
<g><path style="opacity:0.183" fill="#ebebeb" d="M 285.5,163.5 C 297.112,163.036 307.778,166.036 317.5,172.5C 322.5,177.5 327.5,182.5 332.5,187.5C 344.5,210.833 344.5,234.167 332.5,257.5C 327.5,262.5 322.5,267.5 317.5,272.5C 308.376,278.542 298.376,281.542 287.5,281.5C 320.694,274.835 338.361,254.502 340.5,220.5C 336.031,188.033 317.698,169.033 285.5,163.5 Z"/></g>
<g><path style="opacity:0.978" fill="#020202" d="M 133.5,163.5 C 137.833,163.5 142.167,163.5 146.5,163.5C 175.956,168.043 194.29,184.71 201.5,213.5C 201.5,218.833 201.5,224.167 201.5,229.5C 195.04,261.617 175.374,278.951 142.5,281.5C 138.833,281.5 135.167,281.5 131.5,281.5C 103.393,274.061 86.7268,256.061 81.5,227.5C 81.5,223.833 81.5,220.167 81.5,216.5C 87.3675,187.632 104.701,169.965 133.5,163.5 Z M 149.5,249.5 C 149.167,249.5 148.833,249.5 148.5,249.5C 137.576,250.538 128.576,246.871 121.5,238.5C 120.311,237.571 118.978,237.238 117.5,237.5C 117.5,236.167 116.833,235.5 115.5,235.5C 115.5,235.167 115.5,234.833 115.5,234.5C 111.526,216.454 118.193,203.787 135.5,196.5C 142.74,194.819 149.407,196.152 155.5,200.5C 168.854,210.521 171.854,222.854 164.5,237.5C 162.167,239.833 159.833,242.167 157.5,244.5C 154.367,245.716 151.7,247.383 149.5,249.5 Z"/></g>
<g><path style="opacity:0.98" fill="#020202" d="M 273.5,163.5 C 277.5,163.5 281.5,163.5 285.5,163.5C 317.698,169.033 336.031,188.033 340.5,220.5C 338.361,254.502 320.694,274.835 287.5,281.5C 282.167,281.5 276.833,281.5 271.5,281.5C 245.153,276.323 228.653,260.656 222,234.5C 217.91,206.848 227.743,185.681 251.5,171C 258.576,167.365 265.909,164.865 273.5,163.5 Z M 275.5,195.5 C 272.462,197.32 269.129,198.986 265.5,200.5C 253.7,209.876 250.7,221.542 256.5,235.5C 272.5,254.167 288.5,254.167 304.5,235.5C 307.467,229.095 308.133,222.429 306.5,215.5C 300.991,201.567 290.657,194.901 275.5,195.5 Z"/></g>
<g><path style="opacity:0.979" fill="#020202" d="M 408.5,163.5 C 412.833,163.5 417.167,163.5 421.5,163.5C 457.775,169.44 476.108,190.773 476.5,227.5C 474.427,247.148 465.094,262.315 448.5,273C 441.377,276.742 434.044,279.575 426.5,281.5C 419.833,281.5 413.167,281.5 406.5,281.5C 379.599,274.6 363.265,257.6 357.5,230.5C 357.5,224.167 357.5,217.833 357.5,211.5C 359.003,207.659 360.336,203.659 361.5,199.5C 371.354,179.987 387.021,167.987 408.5,163.5 Z M 422.5,195.5 C 422.833,195.5 423.167,195.5 423.5,195.5C 425.7,197.617 428.367,199.284 431.5,200.5C 439.212,205.929 443.878,213.262 445.5,222.5C 442.54,234.799 435.207,243.465 423.5,248.5C 417.232,250.08 411.232,249.414 405.5,246.5C 401.167,242.167 396.833,237.833 392.5,233.5C 388.5,226.167 388.5,218.833 392.5,211.5C 397.684,204.976 404.017,199.976 411.5,196.5C 415.107,195.511 418.774,195.177 422.5,195.5 Z"/></g>
<g><path style="opacity:0.19" fill="#ececec" d="M 146.5,163.5 C 173.86,164.182 191.86,177.515 200.5,203.5C 201.487,206.768 201.82,210.102 201.5,213.5C 194.29,184.71 175.956,168.043 146.5,163.5 Z"/></g>
<g><path style="opacity:0.185" fill="#f2f2f2" d="M 408.5,163.5 C 387.021,167.987 371.354,179.987 361.5,199.5C 362.011,194.467 363.677,189.801 366.5,185.5C 377.179,171.827 391.179,164.494 408.5,163.5 Z"/></g>
<g><path style="opacity:0.136" fill="#e6e6e6" d="M 421.5,163.5 C 433.112,163.036 443.778,166.036 453.5,172.5C 458.5,177.5 463.5,182.5 468.5,187.5C 476.312,199.722 479.312,213.055 477.5,227.5C 477.167,227.5 476.833,227.5 476.5,227.5C 476.108,190.773 457.775,169.44 421.5,163.5 Z"/></g>
<g><path style="opacity:0.136" fill="#ececec" d="M 556.5,179.5 C 558.388,181.988 559.055,184.988 558.5,188.5C 557.656,185.655 556.99,182.655 556.5,179.5 Z"/></g>
<g><path style="opacity:0.135" fill="#eeeeee" d="M 133.5,163.5 C 104.701,169.965 87.3675,187.632 81.5,216.5C 81.6678,205.994 84.6678,196.327 90.5,187.5C 95.5,182.5 100.5,177.5 105.5,172.5C 114.059,167.028 123.392,164.028 133.5,163.5 Z"/></g>
<g><path style="opacity:0.211" fill="#f8f8f8" d="M -0.5,185.5 C 0.166667,185.5 0.833333,185.5 1.5,185.5C 1.06624,190.668 0.399573,195.668 -0.5,200.5C -0.5,195.5 -0.5,190.5 -0.5,185.5 Z"/></g>
<g><path style="opacity:0.238" fill="#eaeaea" d="M 149.5,249.5 C 151.7,247.383 154.367,245.716 157.5,244.5C 159.833,242.167 162.167,239.833 164.5,237.5C 171.854,222.854 168.854,210.521 155.5,200.5C 149.407,196.152 142.74,194.819 135.5,196.5C 118.193,203.787 111.526,216.454 115.5,234.5C 108.827,215.281 115.16,202.115 134.5,195C 152.797,192.641 164.963,200.141 171,217.5C 172.327,233.987 165.16,244.654 149.5,249.5 Z"/></g>
<g><path style="opacity:0.176" fill="#f5f5f5" d="M 361.5,199.5 C 360.336,203.659 359.003,207.659 357.5,211.5C 357.187,208.753 357.52,206.086 358.5,203.5C 359.057,201.668 360.057,200.335 361.5,199.5 Z"/></g>
<g><path style="opacity:0.277" fill="#f0f0f0" d="M 414.5,55.5 C 415.5,55.5 416.5,55.5 417.5,55.5C 440.236,70.0702 458.402,89.0702 472,112.5C 490.936,142.973 502.936,175.973 508,211.5C 512.983,288.342 486.483,351.842 428.5,402C 373.517,449.914 310.184,466.58 238.5,452C 197.046,442.275 160.38,423.608 128.5,396C 103.644,371.789 84.644,343.623 71.5,311.5C 76.4462,320.041 81.4462,328.708 86.5,337.5C 89.1667,340.167 91.8333,342.833 94.5,345.5C 96.9554,352.617 100.289,359.284 104.5,365.5C 115.435,378.438 127.102,390.771 139.5,402.5C 175.428,427.945 214.761,445.112 257.5,454C 277.167,454.667 296.833,454.667 316.5,454C 331.791,449.42 347.124,444.753 362.5,440C 369.49,435.893 376.823,432.56 384.5,430C 389.977,425.185 395.977,421.185 402.5,418C 423.519,401.489 443.185,383.322 461.5,363.5C 466.833,355.5 472.167,347.5 477.5,339.5C 482.167,330.167 486.833,320.833 491.5,311.5C 509.481,264.59 510.815,217.257 495.5,169.5C 485.284,142.397 471.951,117.063 455.5,93.5C 445.833,83.8333 436.167,74.1667 426.5,64.5C 423.167,62.5 419.833,60.5 416.5,58.5C 415.388,57.7348 414.721,56.7348 414.5,55.5 Z M 215.5,313.5 C 210.786,313.173 206.12,313.507 201.5,314.5C 195.24,318.756 189.573,323.756 184.5,329.5C 180.5,336.833 180.5,344.167 184.5,351.5C 204.573,374.157 221.907,372.157 236.5,345.5C 237.833,342.167 237.833,338.833 236.5,335.5C 231.787,325.791 224.787,318.458 215.5,313.5 Z M 359.5,313.5 C 342.608,312.449 330.942,319.782 324.5,335.5C 323.167,338.833 323.167,342.167 324.5,345.5C 339.093,372.157 356.427,374.157 376.5,351.5C 380.5,344.167 380.5,336.833 376.5,329.5C 371.042,323.701 365.375,318.368 359.5,313.5 Z"/></g>
<g><path style="opacity:0.178" fill="#ececec" d="M 422.5,195.5 C 418.774,195.177 415.107,195.511 411.5,196.5C 404.017,199.976 397.684,204.976 392.5,211.5C 388.5,218.833 388.5,226.167 392.5,233.5C 396.833,237.833 401.167,242.167 405.5,246.5C 411.232,249.414 417.232,250.08 423.5,248.5C 435.207,243.465 442.54,234.799 445.5,222.5C 443.878,213.262 439.212,205.929 431.5,200.5C 428.367,199.284 425.7,197.617 423.5,195.5C 440.218,200.074 447.718,211.074 446,228.5C 439.76,246.375 427.26,253.541 408.5,250C 389.911,241.99 384.078,228.49 391,209.5C 398.47,197.506 408.97,192.839 422.5,195.5 Z M 422.5,195.5 C 422.833,195.5 423.167,195.5 423.5,195.5C 425.7,197.617 428.367,199.284 431.5,200.5C 439.212,205.929 443.878,213.262 445.5,222.5C 442.54,234.799 435.207,243.465 423.5,248.5C 417.232,250.08 411.232,249.414 405.5,246.5C 401.167,242.167 396.833,237.833 392.5,233.5C 388.5,226.167 388.5,218.833 392.5,211.5C 397.684,204.976 404.017,199.976 411.5,196.5C 415.107,195.511 418.774,195.177 422.5,195.5 Z"/></g>
<g><path style="opacity:0.035" fill="#dadada" d="M 115.5,235.5 C 116.833,235.5 117.5,236.167 117.5,237.5C 116.5,237.167 115.833,236.5 115.5,235.5 Z"/></g>
<g><path style="opacity:0.156" fill="#efefef" d="M 273.5,194.5 C 290.703,192.677 302.536,199.677 309,215.5C 311.529,232.615 304.695,244.115 288.5,250C 272.177,253.088 260.344,247.255 253,232.5C 248.596,213.634 255.43,200.967 273.5,194.5 Z M 275.5,195.5 C 272.462,197.32 269.129,198.986 265.5,200.5C 253.7,209.876 250.7,221.542 256.5,235.5C 272.5,254.167 288.5,254.167 304.5,235.5C 307.467,229.095 308.133,222.429 306.5,215.5C 300.991,201.567 290.657,194.901 275.5,195.5 Z"/></g>
<g><path style="opacity:0.182" fill="#efefef" d="M 117.5,237.5 C 118.978,237.238 120.311,237.571 121.5,238.5C 128.576,246.871 137.576,250.538 148.5,249.5C 135.266,252.978 124.932,248.978 117.5,237.5 Z"/></g>
<g><path style="opacity:0.153" fill="#ececec" d="M 201.5,229.5 C 200.822,247.189 193.489,261.522 179.5,272.5C 168.782,278.683 157.449,282.516 145.5,284C 144.058,283.623 143.058,282.79 142.5,281.5C 175.374,278.951 195.04,261.617 201.5,229.5 Z"/></g>
<g><path style="opacity:0.148" fill="#ededed" d="M 273.5,163.5 C 265.909,164.865 258.576,167.365 251.5,171C 227.743,185.681 217.91,206.848 222,234.5C 228.653,260.656 245.153,276.323 271.5,281.5C 261.366,281.122 252.032,278.122 243.5,272.5C 238.5,267.5 233.5,262.5 228.5,257.5C 216.5,234.167 216.5,210.833 228.5,187.5C 233.5,182.5 238.5,177.5 243.5,172.5C 252.624,166.458 262.624,163.458 273.5,163.5 Z"/></g>
<g><path style="opacity:0.136" fill="#d5d5d5" d="M 53.5,245.5 C 55.4302,249.373 56.0969,253.706 55.5,258.5C 54.6424,254.327 53.9758,249.993 53.5,245.5 Z"/></g>
<g><path style="opacity:0.191" fill="#ebebeb" d="M 81.5,227.5 C 86.7268,256.061 103.393,274.061 131.5,281.5C 106.537,278.881 90.2033,265.547 82.5,241.5C 81.5067,236.88 81.1734,232.214 81.5,227.5 Z"/></g>
<g><path style="opacity:0.187" fill="#dedede" d="M -0.5,237.5 C 0.434781,245.33 1.10145,253.33 1.5,261.5C 0.833333,261.5 0.166667,261.5 -0.5,261.5C -0.5,253.5 -0.5,245.5 -0.5,237.5 Z"/></g>
<g><path style="opacity:0.166" fill="#ededed" d="M 357.5,230.5 C 363.265,257.6 379.599,274.6 406.5,281.5C 382.92,278.604 366.92,265.937 358.5,243.5C 357.508,239.217 357.174,234.884 357.5,230.5 Z"/></g>
<g><path style="opacity:0.193" fill="#eeeeee" d="M 476.5,227.5 C 476.833,227.5 477.167,227.5 477.5,227.5C 476.516,254.46 463.183,272.127 437.5,280.5C 433.893,281.489 430.226,281.823 426.5,281.5C 434.044,279.575 441.377,276.742 448.5,273C 465.094,262.315 474.427,247.148 476.5,227.5 Z"/></g>
<g><path style="opacity:0.169" fill="#e4e4e4" d="M 55.5,261.5 C 57.0358,263.025 58.0358,265.025 58.5,267.5C 61.3078,278.917 64.3078,290.25 67.5,301.5C 65.9169,298.613 64.4169,295.613 63,292.5C 59.8041,282.359 57.3041,272.025 55.5,261.5 Z"/></g>
<g><path style="opacity:0.141" fill="#dfdfdf" d="M 200.5,281.5 C 197.781,282.913 194.781,283.58 191.5,283.5C 193.988,281.612 196.988,280.945 200.5,281.5 Z"/></g>
<g><path style="opacity:0.979" fill="#020202" d="M 200.5,281.5 C 206.167,281.5 211.833,281.5 217.5,281.5C 240.894,285.962 257.061,299.295 266,321.5C 273.479,350.07 265.312,372.904 241.5,390C 232.958,394.873 223.958,398.039 214.5,399.5C 209.833,399.5 205.167,399.5 200.5,399.5C 172.467,393.467 155.467,376.467 149.5,348.5C 149.5,342.5 149.5,336.5 149.5,330.5C 155.009,307.32 169.009,291.654 191.5,283.5C 194.781,283.58 197.781,282.913 200.5,281.5 Z M 215.5,313.5 C 210.786,313.173 206.12,313.507 201.5,314.5C 195.24,318.756 189.573,323.756 184.5,329.5C 180.5,336.833 180.5,344.167 184.5,351.5C 204.573,374.157 221.907,372.157 236.5,345.5C 237.833,342.167 237.833,338.833 236.5,335.5C 231.787,325.791 224.787,318.458 215.5,313.5 Z"/></g>
<g><path style="opacity:0.979" fill="#020202" d="M 341.5,281.5 C 346.833,281.5 352.167,281.5 357.5,281.5C 386.297,285.965 404.297,302.298 411.5,330.5C 411.5,336.5 411.5,342.5 411.5,348.5C 405.048,378.284 386.715,395.284 356.5,399.5C 352.167,399.5 347.833,399.5 343.5,399.5C 303.432,388.561 287.265,362.561 295,321.5C 303.62,300.038 319.12,286.705 341.5,281.5 Z M 359.5,313.5 C 342.608,312.449 330.942,319.782 324.5,335.5C 323.167,338.833 323.167,342.167 324.5,345.5C 339.093,372.157 356.427,374.157 376.5,351.5C 380.5,344.167 380.5,336.833 376.5,329.5C 371.042,323.701 365.375,318.368 359.5,313.5 Z"/></g>
<g><path style="opacity:0.175" fill="#eaeaea" d="M 357.5,281.5 C 376,281.583 391,288.916 402.5,303.5C 405.167,308.833 407.833,314.167 410.5,319.5C 411.489,323.107 411.823,326.774 411.5,330.5C 404.297,302.298 386.297,285.965 357.5,281.5 Z"/></g>
<g><path style="opacity:0.171" fill="#efefef" d="M 191.5,283.5 C 169.009,291.654 155.009,307.32 149.5,330.5C 151.549,308.433 162.882,293.099 183.5,284.5C 186.086,283.52 188.753,283.187 191.5,283.5 Z"/></g>
<g><path style="opacity:0.093" fill="#d0d0d0" d="M 558.5,278.5 C 559.08,282.649 558.414,286.316 556.5,289.5C 556.808,285.64 557.475,281.974 558.5,278.5 Z"/></g>
<g><path style="opacity:0.125" fill="#b8b8b8" d="M 556.5,290.5 C 557.01,293.388 556.344,295.721 554.5,297.5C 554.927,294.99 555.593,292.657 556.5,290.5 Z"/></g>
<g><path style="opacity:0.071" fill="#d5d5d5" d="M 554.5,300.5 C 554.923,302.781 554.256,304.448 552.5,305.5C 552.796,303.597 553.463,301.93 554.5,300.5 Z"/></g>
<g><path style="opacity:0.16" fill="#f6f6f6" d="M 67.5,301.5 C 70.3625,304.061 71.6959,307.394 71.5,311.5C 69.5968,308.47 68.2635,305.137 67.5,301.5 Z"/></g>
<g><path style="opacity:0.039" fill="#c0c0c0" d="M 552.5,306.5 C 552.923,308.781 552.256,310.448 550.5,311.5C 551.024,309.694 551.691,308.028 552.5,306.5 Z"/></g>
<g><path style="opacity:0.057" fill="#d5d5d5" d="M 550.5,313.5 C 550.975,316.082 550.308,318.082 548.5,319.5C 548.595,317.214 549.262,315.214 550.5,313.5 Z"/></g>
<g><path style="opacity:0.071" fill="#e1e1e1" d="M 548.5,319.5 C 548.975,322.082 548.308,324.082 546.5,325.5C 546.595,323.214 547.262,321.214 548.5,319.5 Z"/></g>
<g><path style="opacity:0.041" fill="#d3d3d3" d="M 546.5,325.5 C 546.843,327.483 546.176,328.817 544.5,329.5C 544.66,327.847 545.326,326.514 546.5,325.5 Z"/></g>
<g><path style="opacity:0.138" fill="#e7e7e7" d="M 1.5,261.5 C 3.78339,273.074 6.28339,284.741 9,296.5C 19.8652,333.684 36.6986,367.684 59.5,398.5C 56.9115,396.92 54.5782,394.92 52.5,392.5C 27.9579,357.734 11.2913,319.401 2.5,277.5C 1.50515,272.208 1.17182,266.875 1.5,261.5 Z"/></g>
<g><path style="opacity:0.056" fill="#dadada" d="M 544.5,330.5 C 544.923,332.781 544.256,334.448 542.5,335.5C 542.796,333.597 543.463,331.93 544.5,330.5 Z"/></g>
<g><path style="opacity:0.037" fill="#dddddd" d="M 542.5,335.5 C 542.843,337.483 542.176,338.817 540.5,339.5C 540.66,337.847 541.326,336.514 542.5,335.5 Z"/></g>
<g><path style="opacity:0.037" fill="#d2d2d2" d="M 540.5,339.5 C 540.843,341.483 540.176,342.817 538.5,343.5C 538.989,342.005 539.655,340.671 540.5,339.5 Z"/></g>
<g><path style="opacity:0.215" fill="#e8e8e8" d="M 215.5,313.5 C 227.317,315.815 234.817,322.815 238,334.5C 238.25,358.986 226.083,370.152 201.5,368C 185.433,362.591 178.266,351.424 180,334.5C 186.167,317.511 198.001,310.511 215.5,313.5 Z M 215.5,313.5 C 210.786,313.173 206.12,313.507 201.5,314.5C 195.24,318.756 189.573,323.756 184.5,329.5C 180.5,336.833 180.5,344.167 184.5,351.5C 204.573,374.157 221.907,372.157 236.5,345.5C 237.833,342.167 237.833,338.833 236.5,335.5C 231.787,325.791 224.787,318.458 215.5,313.5 Z"/></g>
<g><path style="opacity:0.215" fill="#e8e8e8" d="M 359.5,313.5 C 370.742,316.241 377.909,323.241 381,334.5C 381.235,358.99 369.068,370.157 344.5,368C 328.422,362.582 321.255,351.416 323,334.5C 326.071,323.762 332.904,316.596 343.5,313C 349.016,312.183 354.35,312.349 359.5,313.5 Z M 359.5,313.5 C 342.608,312.449 330.942,319.782 324.5,335.5C 323.167,338.833 323.167,342.167 324.5,345.5C 339.093,372.157 356.427,374.157 376.5,351.5C 380.5,344.167 380.5,336.833 376.5,329.5C 371.042,323.701 365.375,318.368 359.5,313.5 Z"/></g>
<g><path style="opacity:0.085" fill="#e4e4e4" d="M 538.5,344.5 C 537.026,350.457 534.693,356.124 531.5,361.5C 530.735,362.612 529.735,363.279 528.5,363.5C 531.595,356.974 534.928,350.641 538.5,344.5 Z"/></g>
<g><path style="opacity:0.175" fill="#eeeeee" d="M 149.5,348.5 C 155.467,376.467 172.467,393.467 200.5,399.5C 175.004,397.349 158.337,384.015 150.5,359.5C 149.511,355.893 149.177,352.226 149.5,348.5 Z"/></g>
<g><path style="opacity:0.175" fill="#ebebeb" d="M 411.5,348.5 C 409.349,373.996 396.015,390.663 371.5,398.5C 366.544,399.494 361.544,399.827 356.5,399.5C 386.715,395.284 405.048,378.284 411.5,348.5 Z"/></g>
<g><path style="opacity:0.039" fill="#dadada" d="M 528.5,363.5 C 528.843,365.483 528.176,366.817 526.5,367.5C 526.66,365.847 527.326,364.514 528.5,363.5 Z"/></g>
<g><path style="opacity:0.079" fill="#e1e1e1" d="M 526.5,367.5 C 526.246,370.014 525.413,372.348 524,374.5C 523.241,376.063 522.074,377.063 520.5,377.5C 522,373.827 524,370.494 526.5,367.5 Z"/></g>
<g><path style="opacity:0.136" fill="#ededed" d="M 341.5,281.5 C 319.12,286.705 303.62,300.038 295,321.5C 287.265,362.561 303.432,388.561 343.5,399.5C 333.366,399.122 324.032,396.122 315.5,390.5C 293.917,373.087 286.25,350.754 292.5,323.5C 299.313,298.352 315.646,284.352 341.5,281.5 Z"/></g>
<g><path style="opacity:0.119" fill="#e9e9e9" d="M 520.5,377.5 C 519.383,382.348 517.216,386.681 514,390.5C 513.184,391.823 512.017,392.489 510.5,392.5C 513.588,387.32 516.922,382.32 520.5,377.5 Z"/></g>
<g><path style="opacity:0.075" fill="#e7e7e7" d="M 510.5,392.5 C 510.5,393.833 509.833,394.5 508.5,394.5C 508.833,393.5 509.5,392.833 510.5,392.5 Z"/></g>
<g><path style="opacity:0.203" fill="#ebebeb" d="M 217.5,281.5 C 252.138,285.81 269.471,305.476 269.5,340.5C 270.594,353.217 267.594,364.884 260.5,375.5C 255.5,380.5 250.5,385.5 245.5,390.5C 236.078,396.753 225.744,399.753 214.5,399.5C 223.958,398.039 232.958,394.873 241.5,390C 265.312,372.904 273.479,350.07 266,321.5C 257.061,299.295 240.894,285.962 217.5,281.5 Z"/></g>
<g><path style="opacity:0.108" fill="#e3e3e3" d="M 508.5,394.5 C 508.025,398.309 506.025,400.975 502.5,402.5C 504.122,399.545 506.122,396.878 508.5,394.5 Z"/></g>
<g><path style="opacity:0.078" fill="#efefef" d="M 502.5,402.5 C 502.5,403.833 501.833,404.5 500.5,404.5C 500.833,403.5 501.5,402.833 502.5,402.5 Z"/></g>
<g><path style="opacity:0.253" fill="#f7f7f7" d="M 59.5,398.5 C 70.3548,411.503 81.6882,424.169 93.5,436.5C 92.0222,436.762 90.6888,436.429 89.5,435.5C 83.0919,429.762 77.4252,423.429 72.5,416.5C 69.8333,413.833 67.1667,411.167 64.5,408.5C 62.311,405.344 60.6443,402.011 59.5,398.5 Z"/></g>
<g><path style="opacity:0.108" fill="#e0e0e0" d="M 500.5,404.5 C 500.762,405.978 500.429,407.311 499.5,408.5C 495.427,412.912 491.093,416.912 486.5,420.5C 490.801,414.865 495.467,409.532 500.5,404.5 Z"/></g>
<g><path style="opacity:0.108" fill="#fefffe" d="M 486.5,420.5 C 486.5,421.833 485.833,422.5 484.5,422.5C 484.833,421.5 485.5,420.833 486.5,420.5 Z"/></g>
<g><path style="opacity:0.11" fill="#fefffe" d="M 484.5,422.5 C 484.5,423.833 483.833,424.5 482.5,424.5C 482.833,423.5 483.5,422.833 484.5,422.5 Z"/></g>
<g><path style="opacity:0.11" fill="#fefffe" d="M 482.5,424.5 C 482.5,425.833 481.833,426.5 480.5,426.5C 480.833,425.5 481.5,424.833 482.5,424.5 Z"/></g>
<g><path style="opacity:0.11" fill="#fefffe" d="M 480.5,426.5 C 480.5,427.833 479.833,428.5 478.5,428.5C 478.833,427.5 479.5,426.833 480.5,426.5 Z"/></g>
<g><path style="opacity:0.11" fill="#fefffe" d="M 478.5,428.5 C 478.5,429.833 477.833,430.5 476.5,430.5C 476.833,429.5 477.5,428.833 478.5,428.5 Z"/></g>
<g><path style="opacity:0.11" fill="#fefffe" d="M 476.5,430.5 C 476.5,431.833 475.833,432.5 474.5,432.5C 474.833,431.5 475.5,430.833 476.5,430.5 Z"/></g>
<g><path style="opacity:0.11" fill="#fefffe" d="M 474.5,432.5 C 474.5,433.833 473.833,434.5 472.5,434.5C 472.833,433.5 473.5,432.833 474.5,432.5 Z"/></g>
<g><path style="opacity:0.169" fill="#ededed" d="M 472.5,434.5 C 469.58,438.426 466.247,442.092 462.5,445.5C 461.311,446.429 459.978,446.762 458.5,446.5C 462.867,442.132 467.533,438.132 472.5,434.5 Z"/></g>
<g><path style="opacity:0.141" fill="#f9f9f9" d="M 458.5,446.5 C 458.5,447.833 457.833,448.5 456.5,448.5C 456.833,447.5 457.5,446.833 458.5,446.5 Z"/></g>
<g><path style="opacity:0.111" fill="#e9e9e9" d="M 456.5,448.5 C 454.975,452.025 452.309,454.025 448.5,454.5C 450.86,452.147 453.527,450.147 456.5,448.5 Z"/></g>
<g><path style="opacity:0.186" fill="#ebebeb" d="M 93.5,436.5 C 103.908,444.916 114.574,452.916 125.5,460.5C 120.32,459.243 115.653,456.91 111.5,453.5C 104.5,448.832 98.4999,443.165 93.5,436.5 Z"/></g>
<g><path style="opacity:0.082" fill="#eaeaea" d="M 448.5,454.5 C 448.5,455.833 447.833,456.5 446.5,456.5C 446.833,455.5 447.5,454.833 448.5,454.5 Z"/></g>
<g><path style="opacity:0.169" fill="#ececec" d="M 446.5,456.5 C 445.554,459.313 443.554,460.646 440.5,460.5C 442.223,458.782 444.223,457.449 446.5,456.5 Z"/></g>
<g><path style="opacity:0.135" fill="#eaeaea" d="M 125.5,460.5 C 127.795,461.475 129.795,462.808 131.5,464.5C 128.446,464.646 126.446,463.313 125.5,460.5 Z"/></g>
<g><path style="opacity:0.115" fill="#e6e6e6" d="M 440.5,460.5 C 439.735,462.929 438.069,464.262 435.5,464.5C 436.579,462.457 438.246,461.124 440.5,460.5 Z"/></g>
<g><path style="opacity:0.082" fill="#e2e2e2" d="M 434.5,464.5 C 434.5,465.833 433.833,466.5 432.5,466.5C 432.833,465.5 433.5,464.833 434.5,464.5 Z"/></g>
<g><path style="opacity:0.171" fill="#e9e9e9" d="M 131.5,464.5 C 133.882,465.351 135.882,466.684 137.5,468.5C 134.446,468.646 132.446,467.313 131.5,464.5 Z"/></g>
<g><path style="opacity:0.115" fill="#e5e5e5" d="M 432.5,466.5 C 431.817,468.176 430.483,468.843 428.5,468.5C 429.514,467.326 430.847,466.66 432.5,466.5 Z"/></g>
<g><path style="opacity:0.156" fill="#dbdbdb" d="M 137.5,468.5 C 139.153,468.66 140.486,469.326 141.5,470.5C 139.517,470.843 138.183,470.176 137.5,468.5 Z"/></g>
<g><path style="opacity:0.133" fill="#e1e1e1" d="M 428.5,468.5 C 427.554,471.313 425.554,472.646 422.5,472.5C 424.205,470.808 426.205,469.475 428.5,468.5 Z"/></g>
<g><path style="opacity:0.143" fill="#e4e4e4" d="M 422.5,472.5 C 422.179,474.048 421.179,474.715 419.5,474.5C 420.29,473.599 421.29,472.932 422.5,472.5 Z"/></g>
<g><path style="opacity:0.224" fill="#e7e7e7" d="M 141.5,470.5 C 146.528,472.676 151.194,475.343 155.5,478.5C 151.314,477.411 147.314,475.744 143.5,473.5C 142.388,472.735 141.721,471.735 141.5,470.5 Z"/></g>
<g><path style="opacity:0.134" fill="#dfdfdf" d="M 418.5,474.5 C 417.554,477.313 415.554,478.646 412.5,478.5C 414.205,476.808 416.205,475.475 418.5,474.5 Z"/></g>
<g><path style="opacity:0.175" fill="#eaeaea" d="M 155.5,478.5 C 157.153,478.66 158.486,479.326 159.5,480.5C 157.517,480.843 156.183,480.176 155.5,478.5 Z"/></g>
<g><path style="opacity:0.141" fill="#e7e7e7" d="M 412.5,478.5 C 412.179,480.048 411.179,480.715 409.5,480.5C 409.973,479.094 410.973,478.427 412.5,478.5 Z"/></g>
<g><path style="opacity:0.174" fill="#f2f2f2" d="M 159.5,480.5 C 161.153,480.66 162.486,481.326 163.5,482.5C 161.517,482.843 160.183,482.176 159.5,480.5 Z"/></g>
<g><path style="opacity:0.141" fill="#e0e0e0" d="M 408.5,480.5 C 408.179,482.048 407.179,482.715 405.5,482.5C 406.29,481.599 407.29,480.932 408.5,480.5 Z"/></g>
<g><path style="opacity:0.175" fill="#ececec" d="M 163.5,482.5 C 165.403,482.796 167.07,483.463 168.5,484.5C 166.219,484.923 164.552,484.256 163.5,482.5 Z"/></g>
<g><path style="opacity:0.143" fill="#e0e0e0" d="M 404.5,482.5 C 404.179,484.048 403.179,484.715 401.5,484.5C 402.29,483.599 403.29,482.932 404.5,482.5 Z"/></g>
<g><path style="opacity:0.147" fill="#e4e4e4" d="M 169.5,484.5 C 170.708,485.234 172.041,485.567 173.5,485.5C 173.5,486.5 173.5,487.5 173.5,488.5C 171.5,487.833 170.167,486.5 169.5,484.5 Z"/></g>
<g><path style="opacity:0.143" fill="#e0e0e0" d="M 400.5,484.5 C 400.179,486.048 399.179,486.715 397.5,486.5C 398.29,485.599 399.29,484.932 400.5,484.5 Z"/></g>
<g><path style="opacity:0.145" fill="#d4d4d4" d="M 396.5,486.5 C 395.817,488.176 394.483,488.843 392.5,488.5C 393.671,487.655 395.005,486.989 396.5,486.5 Z"/></g>
<g><path style="opacity:0.19" fill="#ececec" d="M 173.5,498.5 C 155.45,499.883 137.116,501.383 118.5,503C 72.7744,513.756 38.6077,539.589 16,580.5C -9.20431,636.928 -4.03764,690.261 31.5,740.5C 28.9115,738.92 26.5782,736.92 24.5,734.5C 19.3246,726.152 14.658,717.485 10.5,708.5C 6.16471,696.438 2.49805,684.438 -0.5,672.5C -0.5,655.833 -0.5,639.167 -0.5,622.5C 3.57608,604.629 9.90941,587.296 18.5,570.5C 43.425,529.525 79.7583,505.858 127.5,499.5C 142.819,498.501 158.152,498.167 173.5,498.5 Z"/></g>
<g><path style="opacity:0.157" fill="#e8e8e8" d="M 392.5,488.5 C 391.934,490.078 390.934,491.412 389.5,492.5C 388.534,494.396 388.201,496.396 388.5,498.5C 423.094,495.219 455.761,501.552 486.5,517.5C 512.475,533.474 532.142,555.14 545.5,582.5C 546.466,584.396 546.799,586.396 546.5,588.5C 540.477,575.63 532.977,563.63 524,552.5C 487.302,512.648 441.802,495.315 387.5,500.5C 387.335,497.15 387.502,493.817 388,490.5C 389.33,489.418 390.83,488.751 392.5,488.5 Z"/></g>
<g><path style="opacity:0.125" fill="#ebebeb" d="M 438.5,544.5 C 440.403,544.796 442.07,545.463 443.5,546.5C 441.219,546.923 439.552,546.256 438.5,544.5 Z"/></g>
<g><path style="opacity:0.12" fill="#d2d2d2" d="M 119.5,544.5 C 118.448,546.256 116.781,546.923 114.5,546.5C 115.93,545.463 117.597,544.796 119.5,544.5 Z"/></g>
<g><path style="opacity:0.128" fill="#e2e2e2" d="M 113.5,546.5 C 111.223,549.133 108.223,550.466 104.5,550.5C 107.088,548.408 110.088,547.075 113.5,546.5 Z"/></g>
<g><path style="opacity:0.168" fill="#f1f1f1" d="M 444.5,546.5 C 448.127,547.321 451.46,548.654 454.5,550.5C 450.394,550.696 447.061,549.363 444.5,546.5 Z"/></g>
<g><path style="opacity:0.11" fill="#ededed" d="M 454.5,550.5 C 456.153,550.66 457.486,551.326 458.5,552.5C 456.517,552.843 455.183,552.176 454.5,550.5 Z"/></g>
<g><path style="opacity:0.082" fill="#cfcfcf" d="M 103.5,550.5 C 102.817,552.176 101.483,552.843 99.5,552.5C 100.514,551.326 101.847,550.66 103.5,550.5 Z"/></g>
<g><path style="opacity:0.125" fill="#e6e6e6" d="M 99.5,552.5 C 99.2786,553.735 98.6119,554.735 97.5,555.5C 95.01,557.083 92.3433,558.083 89.5,558.5C 92.4937,556 95.827,554 99.5,552.5 Z"/></g>
<g><path style="opacity:0.974" fill="#020202" d="M 474.5,614.5 C 474.595,616.786 475.262,618.786 476.5,620.5C 476.5,621.167 476.5,621.833 476.5,622.5C 476.927,625.01 477.593,627.343 478.5,629.5C 478.5,639.5 478.5,649.5 478.5,659.5C 477.593,661.657 476.927,663.99 476.5,666.5C 476.5,667.167 476.5,667.833 476.5,668.5C 475.262,670.214 474.595,672.214 474.5,674.5C 473.655,675.671 472.989,677.005 472.5,678.5C 472.5,679.167 472.5,679.833 472.5,680.5C 471.326,681.514 470.66,682.847 470.5,684.5C 469.326,685.514 468.66,686.847 468.5,688.5C 467.5,688.833 466.833,689.5 466.5,690.5C 466.5,690.833 466.5,691.167 466.5,691.5C 465.599,692.29 464.932,693.29 464.5,694.5C 462.147,696.86 460.147,699.527 458.5,702.5C 457.5,702.833 456.833,703.5 456.5,704.5C 455.5,704.833 454.833,705.5 454.5,706.5C 453.5,706.833 452.833,707.5 452.5,708.5C 451.5,708.833 450.833,709.5 450.5,710.5C 449.5,710.833 448.833,711.5 448.5,712.5C 446.223,713.449 444.223,714.782 442.5,716.5C 440.205,717.475 438.205,718.808 436.5,720.5C 434.847,720.66 433.514,721.326 432.5,722.5C 430.847,722.66 429.514,723.326 428.5,724.5C 426.597,724.796 424.93,725.463 423.5,726.5C 423.167,726.5 422.833,726.5 422.5,726.5C 420.597,726.796 418.93,727.463 417.5,728.5C 417.167,728.5 416.833,728.5 416.5,728.5C 414.374,729.048 412.374,729.715 410.5,730.5C 399.167,730.5 387.833,730.5 376.5,730.5C 374.698,729.542 372.698,728.875 370.5,728.5C 369.833,728.5 369.167,728.5 368.5,728.5C 365.449,726.648 362.116,725.314 358.5,724.5C 357.486,723.326 356.153,722.66 354.5,722.5C 321.374,702.252 306.207,672.585 309,633.5C 315.824,598.133 335.99,574.133 369.5,561.5C 418.299,552.398 453.299,570.065 474.5,614.5 Z M 406.5,591.5 C 406.833,591.5 407.167,591.5 407.5,591.5C 412.384,594.952 417.718,597.952 423.5,600.5C 434.945,609.733 442.612,621.4 446.5,635.5C 447.496,641.463 447.829,647.463 447.5,653.5C 447.5,654.167 447.5,654.833 447.5,655.5C 443.925,662.65 440.259,669.983 436.5,677.5C 432.833,681.167 429.167,684.833 425.5,688.5C 418.966,692.757 412.299,696.424 405.5,699.5C 405.167,699.5 404.833,699.5 404.5,699.5C 390.384,701.253 377.384,698.253 365.5,690.5C 360.5,685.5 355.5,680.5 350.5,675.5C 347.952,669.718 344.952,664.384 341.5,659.5C 341.5,659.167 341.5,658.833 341.5,658.5C 341.5,649.5 341.5,640.5 341.5,631.5C 343.741,627.017 346.075,622.35 348.5,617.5C 354.833,611.167 361.167,604.833 367.5,598.5C 371.935,595.949 376.601,593.949 381.5,592.5C 389.807,591.502 398.14,591.169 406.5,591.5 Z"/></g>
<g><path style="opacity:0.087" fill="#e4e4e4" d="M 89.5,558.5 C 88.5539,561.313 86.5539,562.646 83.5,562.5C 85.2228,560.782 87.2228,559.449 89.5,558.5 Z"/></g>
<g><path style="opacity:0.975" fill="#020202" d="M 243.5,682.5 C 241.659,684.849 240.326,687.515 239.5,690.5C 231.167,703.5 220.5,714.167 207.5,722.5C 205.973,722.427 204.973,723.094 204.5,724.5C 204.167,724.5 203.833,724.5 203.5,724.5C 202.005,724.989 200.671,725.655 199.5,726.5C 197.847,726.66 196.514,727.326 195.5,728.5C 190.288,729.467 185.288,730.8 180.5,732.5C 169.833,732.5 159.167,732.5 148.5,732.5C 146.401,731.388 144.067,730.721 141.5,730.5C 140.833,730.5 140.167,730.5 139.5,730.5C 138.329,729.655 136.995,728.989 135.5,728.5C 135.167,728.5 134.833,728.5 134.5,728.5C 133.07,727.463 131.403,726.796 129.5,726.5C 128.486,725.326 127.153,724.66 125.5,724.5C 122.506,722 119.173,720 115.5,718.5C 102.619,708.053 92.6195,695.387 85.5,680.5C 83.3177,672.766 81.3177,665.1 79.5,657.5C 79.5,650.5 79.5,643.5 79.5,636.5C 85.5035,602.831 104.17,579.165 135.5,565.5C 170.87,555.051 201.704,562.718 228,588.5C 251.347,616.749 256.513,648.082 243.5,682.5 Z M 217.5,661.5 C 214.048,666.384 211.048,671.718 208.5,677.5C 203.5,682.5 198.5,687.5 193.5,692.5C 187.316,695.592 181.316,698.592 175.5,701.5C 153.804,703.817 136.138,696.484 122.5,679.5C 118.741,671.983 115.075,664.65 111.5,657.5C 110.401,627.37 123.734,606.37 151.5,594.5C 165.586,591.938 178.919,593.938 191.5,600.5C 197.167,606.167 202.833,611.833 208.5,617.5C 211.921,622.412 214.588,627.746 216.5,633.5C 217.498,642.81 217.832,652.143 217.5,661.5 Z"/></g>
<g><path style="opacity:0.175" fill="#f1f1f1" d="M 369.5,561.5 C 335.99,574.133 315.824,598.133 309,633.5C 306.207,672.585 321.374,702.252 354.5,722.5C 343.346,718.459 333.846,711.793 326,702.5C 305.576,673.39 301.742,641.724 314.5,607.5C 325.338,582.979 343.672,567.645 369.5,561.5 Z"/></g>
<g><path style="opacity:0.035" fill="#e6e6e6" d="M 83.5,562.5 C 83.5,563.833 82.8333,564.5 81.5,564.5C 81.8333,563.5 82.5,562.833 83.5,562.5 Z"/></g>
<g><path style="opacity:0.171" fill="#f0f0f0" d="M 243.5,682.5 C 256.513,648.082 251.347,616.749 228,588.5C 201.704,562.718 170.87,555.051 135.5,565.5C 136.335,564.057 137.668,563.057 139.5,562.5C 168.326,555.131 194.992,559.798 219.5,576.5C 236.257,590.339 246.591,608.006 250.5,629.5C 251.833,641.167 251.833,652.833 250.5,664.5C 249.478,669.256 248.144,673.923 246.5,678.5C 245.943,680.332 244.943,681.665 243.5,682.5 Z"/></g>
<g><path style="opacity:0.157" fill="#eeeeee" d="M 474.5,614.5 C 453.299,570.065 418.299,552.398 369.5,561.5C 371.025,559.964 373.025,558.964 375.5,558.5C 387.152,557.334 398.819,557.167 410.5,558C 439.911,564.721 461.078,581.888 474,609.5C 474.494,611.134 474.66,612.801 474.5,614.5 Z"/></g>
<g><path style="opacity:0.111" fill="#efefef" d="M 81.5,564.5 C 76.1667,571.167 70.1667,577.167 63.5,582.5C 68.5211,575.479 74.5211,569.479 81.5,564.5 Z"/></g>
<g><path style="opacity:0.102" fill="#e4e4e4" d="M 63.5,582.5 C 63.646,585.554 62.3126,587.554 59.5,588.5C 60.3403,586.147 61.6736,584.147 63.5,582.5 Z"/></g>
<g><path style="opacity:0.157" fill="#efefef" d="M 135.5,565.5 C 104.17,579.165 85.5035,602.831 79.5,636.5C 80.1156,620.654 85.1156,606.32 94.5,593.5C 102.987,583.671 112.654,575.337 123.5,568.5C 127.371,566.874 131.371,565.874 135.5,565.5 Z"/></g>
<g><path style="opacity:0.067" fill="#e8e8e8" d="M 546.5,588.5 C 548.176,589.183 548.843,590.517 548.5,592.5C 547.326,591.486 546.66,590.153 546.5,588.5 Z"/></g>
<g><path style="opacity:0.169" fill="#ededed" d="M 407.5,591.5 C 429.589,597.635 443.089,611.968 448,634.5C 448.82,641.014 448.653,647.347 447.5,653.5C 447.829,647.463 447.496,641.463 446.5,635.5C 442.612,621.4 434.945,609.733 423.5,600.5C 417.718,597.952 412.384,594.952 407.5,591.5 Z"/></g>
<g><path style="opacity:0.081" fill="#f3f3f3" d="M 548.5,592.5 C 550.256,593.552 550.923,595.219 550.5,597.5C 549.463,596.07 548.796,594.403 548.5,592.5 Z"/></g>
<g><path style="opacity:0.208" fill="#eeeeee" d="M 406.5,591.5 C 398.14,591.169 389.807,591.502 381.5,592.5C 376.601,593.949 371.935,595.949 367.5,598.5C 361.167,604.833 354.833,611.167 348.5,617.5C 346.075,622.35 343.741,627.017 341.5,631.5C 346.963,609.205 360.963,595.372 383.5,590C 389.5,589.333 395.5,589.333 401.5,590C 403.382,590.198 405.048,590.698 406.5,591.5 Z"/></g>
<g><path style="opacity:0.093" fill="#e7e7e7" d="M 59.5,588.5 C 59.0828,591.343 58.0828,594.01 56.5,596.5C 54.1222,599.966 51.7889,603.3 49.5,606.5C 51.594,599.757 54.9274,593.757 59.5,588.5 Z"/></g>
<g><path style="opacity:0.162" fill="#ececec" d="M 217.5,661.5 C 217.832,652.143 217.498,642.81 216.5,633.5C 214.588,627.746 211.921,622.412 208.5,617.5C 202.833,611.833 197.167,606.167 191.5,600.5C 178.919,593.938 165.586,591.938 151.5,594.5C 123.734,606.37 110.401,627.37 111.5,657.5C 107.692,625.963 120.692,604.463 150.5,593C 185.974,587.651 208.807,602.151 219,636.5C 219.945,645.069 219.445,653.403 217.5,661.5 Z"/></g>
<g><path style="opacity:0.113" fill="#eaeaea" d="M 550.5,598.5 C 551.943,599.335 552.943,600.668 553.5,602.5C 554.48,605.086 554.813,607.753 554.5,610.5C 553.228,606.59 551.895,602.59 550.5,598.5 Z"/></g>
<g><path style="opacity:0.086" fill="#f0f0f0" d="M 554.5,612.5 C 556.256,613.552 556.923,615.219 556.5,617.5C 555.691,615.972 555.024,614.306 554.5,612.5 Z"/></g>
<g><path style="opacity:0.129" fill="#d6d6d6" d="M 49.5,606.5 C 49.126,610.629 48.126,614.629 46.5,618.5C 45.9432,620.332 44.9432,621.665 43.5,622.5C 44.5361,616.715 46.5361,611.382 49.5,606.5 Z"/></g>
<g><path style="opacity:0.155" fill="#eeeeee" d="M 474.5,614.5 C 476.28,615.99 476.946,617.99 476.5,620.5C 475.262,618.786 474.595,616.786 474.5,614.5 Z"/></g>
<g><path style="opacity:0.139" fill="#dcdcdc" d="M 476.5,622.5 C 477.117,622.611 477.617,622.944 478,623.5C 478.495,625.473 478.662,627.473 478.5,629.5C 477.593,627.343 476.927,625.01 476.5,622.5 Z"/></g>
<g><path style="opacity:0.114" fill="#dbdbdb" d="M 43.5,623.5 C 44.0803,627.649 43.4136,631.316 41.5,634.5C 41.6459,630.613 42.3126,626.946 43.5,623.5 Z"/></g>
<g><path style="opacity:0.417" fill="#f1f1f1" d="M 341.5,631.5 C 341.5,640.5 341.5,649.5 341.5,658.5C 339.967,654.104 339.3,649.437 339.5,644.5C 339.667,641.167 339.833,637.833 340,634.5C 340.232,633.263 340.732,632.263 341.5,631.5 Z"/></g>
<g><path style="opacity:0.283" fill="#e0e0e0" d="M 458.5,552.5 C 492.783,570 512.616,598 518,636.5C 520.614,680.739 503.781,715.239 467.5,740C 454.27,747.187 440.27,752.187 425.5,755C 331.183,756.637 236.849,756.97 142.5,756C 86.3137,749.149 52.4804,717.982 41,662.5C 40.1757,652.991 40.3424,643.657 41.5,634.5C 39.8841,660.644 46.2174,684.644 60.5,706.5C 64.2433,710.988 67.7433,715.654 71,720.5C 89.947,737.723 112.114,748.723 137.5,753.5C 231.833,754.833 326.167,754.833 420.5,753.5C 446.35,748.154 469.183,737.154 489,720.5C 490.547,715.077 493.38,710.411 497.5,706.5C 527.823,652.777 520.156,605.11 474.5,563.5C 470.159,560.328 465.492,557.661 460.5,555.5C 459.388,554.735 458.721,553.735 458.5,552.5 Z"/></g>
<g><path style="opacity:0.172" fill="#eeeeee" d="M 341.5,659.5 C 344.952,664.384 347.952,669.718 350.5,675.5C 355.5,680.5 360.5,685.5 365.5,690.5C 377.384,698.253 390.384,701.253 404.5,699.5C 381.644,703.499 363.144,696.166 349,677.5C 345.426,671.944 342.926,665.944 341.5,659.5 Z"/></g>
<g><path style="opacity:0.161" fill="#bbbbbb" d="M 478.5,659.5 C 479.01,662.388 478.344,664.721 476.5,666.5C 476.927,663.99 477.593,661.657 478.5,659.5 Z"/></g>
<g><path style="opacity:0.168" fill="#ececec" d="M 217.5,661.5 C 211.639,683.361 197.639,696.694 175.5,701.5C 181.316,698.592 187.316,695.592 193.5,692.5C 198.5,687.5 203.5,682.5 208.5,677.5C 211.048,671.718 214.048,666.384 217.5,661.5 Z"/></g>
<g><path style="opacity:0.199" fill="#eaeaea" d="M 79.5,657.5 C 81.3177,665.1 83.3177,672.766 85.5,680.5C 84.0568,679.665 83.0568,678.332 82.5,676.5C 80.496,670.313 79.496,663.98 79.5,657.5 Z"/></g>
<g><path style="opacity:0.119" fill="#cfcfcf" d="M 476.5,668.5 C 476.975,671.082 476.308,673.082 474.5,674.5C 474.595,672.214 475.262,670.214 476.5,668.5 Z"/></g>
<g><path style="opacity:0.096" fill="#c5c5c5" d="M 474.5,674.5 C 474.843,676.483 474.176,677.817 472.5,678.5C 472.989,677.005 473.655,675.671 474.5,674.5 Z"/></g>
<g><path style="opacity:0.113" fill="#ededed" d="M 447.5,655.5 C 442.717,678.95 428.717,693.616 405.5,699.5C 412.299,696.424 418.966,692.757 425.5,688.5C 429.167,684.833 432.833,681.167 436.5,677.5C 440.259,669.983 443.925,662.65 447.5,655.5 Z"/></g>
<g><path style="opacity:0.132" fill="#e6e6e6" d="M 111.5,657.5 C 115.075,664.65 118.741,671.983 122.5,679.5C 136.138,696.484 153.804,703.817 175.5,701.5C 144.159,705.561 122.992,692.561 112,662.5C 111.506,660.866 111.34,659.199 111.5,657.5 Z"/></g>
<g><path style="opacity:0.121" fill="#e8e8e8" d="M 472.5,680.5 C 472.843,682.483 472.176,683.817 470.5,684.5C 470.66,682.847 471.326,681.514 472.5,680.5 Z"/></g>
<g><path style="opacity:0.062" fill="#eeeeee" d="M 243.5,682.5 C 244.042,686.259 242.708,688.926 239.5,690.5C 240.326,687.515 241.659,684.849 243.5,682.5 Z"/></g>
<g><path style="opacity:0.095" fill="#e7e7e7" d="M 470.5,684.5 C 470.843,686.483 470.176,687.817 468.5,688.5C 468.66,686.847 469.326,685.514 470.5,684.5 Z"/></g>
<g><path style="opacity:0.051" fill="#cfcfcf" d="M 468.5,688.5 C 468.5,689.833 467.833,690.5 466.5,690.5C 466.833,689.5 467.5,688.833 468.5,688.5 Z"/></g>
<g><path style="opacity:0.094" fill="#e9e9e9" d="M 466.5,691.5 C 466.715,693.179 466.048,694.179 464.5,694.5C 464.932,693.29 465.599,692.29 466.5,691.5 Z"/></g>
<g><path style="opacity:0.073" fill="#d4d4d4" d="M 552.5,692.5 C 552.843,694.483 552.176,695.817 550.5,696.5C 550.989,695.005 551.655,693.671 552.5,692.5 Z"/></g>
<g><path style="opacity:0.145" fill="#e9e9e9" d="M 85.5,680.5 C 92.6195,695.387 102.619,708.053 115.5,718.5C 114.022,718.762 112.689,718.429 111.5,717.5C 105.833,711.833 100.167,706.167 94.5,700.5C 91.3276,696.159 88.6609,691.492 86.5,686.5C 85.5344,684.604 85.2011,682.604 85.5,680.5 Z"/></g>
<g><path style="opacity:0.08" fill="#e5e5e5" d="M 464.5,694.5 C 464.025,698.309 462.025,700.975 458.5,702.5C 460.147,699.527 462.147,696.86 464.5,694.5 Z"/></g>
<g><path style="opacity:0.095" fill="#ececec" d="M 239.5,690.5 C 238.243,695.68 235.91,700.347 232.5,704.5C 228.833,708.167 225.167,711.833 221.5,715.5C 217.347,718.91 212.68,721.243 207.5,722.5C 220.5,714.167 231.167,703.5 239.5,690.5 Z"/></g>
<g><path style="opacity:0.073" fill="#c9c9c9" d="M 550.5,697.5 C 550.923,699.781 550.256,701.448 548.5,702.5C 548.796,700.597 549.463,698.93 550.5,697.5 Z"/></g>
<g><path style="opacity:0.039" fill="#eaeaea" d="M 458.5,702.5 C 458.5,703.833 457.833,704.5 456.5,704.5C 456.833,703.5 457.5,702.833 458.5,702.5 Z"/></g>
<g><path style="opacity:0.039" fill="#dcdcdc" d="M 456.5,704.5 C 456.5,705.833 455.833,706.5 454.5,706.5C 454.833,705.5 455.5,704.833 456.5,704.5 Z"/></g>
<g><path style="opacity:0.039" fill="#dadada" d="M 454.5,706.5 C 454.5,707.833 453.833,708.5 452.5,708.5C 452.833,707.5 453.5,706.833 454.5,706.5 Z"/></g>
<g><path style="opacity:0.039" fill="#e4e4e4" d="M 452.5,708.5 C 452.5,709.833 451.833,710.5 450.5,710.5C 450.833,709.5 451.5,708.833 452.5,708.5 Z"/></g>
<g><path style="opacity:0.069" fill="#f9f9f9" d="M 450.5,710.5 C 450.5,711.833 449.833,712.5 448.5,712.5C 448.833,711.5 449.5,710.833 450.5,710.5 Z"/></g>
<g><path style="opacity:0.093" fill="#e4e4e4" d="M 448.5,712.5 C 447.554,715.313 445.554,716.646 442.5,716.5C 444.223,714.782 446.223,713.449 448.5,712.5 Z"/></g>
<g><path style="opacity:0.073" fill="#dfdfdf" d="M 544.5,712.5 C 544.843,714.483 544.176,715.817 542.5,716.5C 542.66,714.847 543.326,713.514 544.5,712.5 Z"/></g>
<g><path style="opacity:0.093" fill="#e3e3e3" d="M 442.5,716.5 C 441.554,719.313 439.554,720.646 436.5,720.5C 438.205,718.808 440.205,717.475 442.5,716.5 Z"/></g>
<g><path style="opacity:0.086" fill="#d9d9d9" d="M 542.5,716.5 C 542.843,718.483 542.176,719.817 540.5,720.5C 540.66,718.847 541.326,717.514 542.5,716.5 Z"/></g>
<g><path style="opacity:0.129" fill="#e8e8e8" d="M 115.5,718.5 C 119.173,720 122.506,722 125.5,724.5C 122.657,724.083 119.99,723.083 117.5,721.5C 116.388,720.735 115.721,719.735 115.5,718.5 Z"/></g>
<g><path style="opacity:0.092" fill="#e0e0e0" d="M 436.5,720.5 C 435.817,722.176 434.483,722.843 432.5,722.5C 433.514,721.326 434.847,720.66 436.5,720.5 Z"/></g>
<g><path style="opacity:0.045" fill="#e5e5e5" d="M 207.5,722.5 C 207.179,724.048 206.179,724.715 204.5,724.5C 204.973,723.094 205.973,722.427 207.5,722.5 Z"/></g>
<g><path style="opacity:0.118" fill="#f1f1f1" d="M 354.5,722.5 C 356.153,722.66 357.486,723.326 358.5,724.5C 356.62,724.771 355.287,724.104 354.5,722.5 Z"/></g>
<g><path style="opacity:0.092" fill="#dbdbdb" d="M 432.5,722.5 C 431.817,724.176 430.483,724.843 428.5,724.5C 429.514,723.326 430.847,722.66 432.5,722.5 Z"/></g>
<g><path style="opacity:0.12" fill="#ebebeb" d="M 125.5,724.5 C 127.153,724.66 128.486,725.326 129.5,726.5C 127.517,726.843 126.183,726.176 125.5,724.5 Z"/></g>
<g><path style="opacity:0.049" fill="#dedede" d="M 203.5,724.5 C 202.817,726.176 201.483,726.843 199.5,726.5C 200.671,725.655 202.005,724.989 203.5,724.5 Z"/></g>
<g><path style="opacity:0.111" fill="#dfdfdf" d="M 428.5,724.5 C 427.448,726.256 425.781,726.923 423.5,726.5C 424.93,725.463 426.597,724.796 428.5,724.5 Z"/></g>
<g><path style="opacity:0.039" fill="#d9d9d9" d="M 540.5,720.5 C 540.646,723.554 539.313,725.554 536.5,726.5C 537.475,724.205 538.808,722.205 540.5,720.5 Z"/></g>
<g><path style="opacity:0.125" fill="#ececec" d="M 129.5,726.5 C 131.403,726.796 133.07,727.463 134.5,728.5C 132.219,728.923 130.552,728.256 129.5,726.5 Z"/></g>
<g><path style="opacity:0.135" fill="#f7f7f7" d="M 358.5,724.5 C 362.116,725.314 365.449,726.648 368.5,728.5C 364.55,728.512 361.216,727.179 358.5,724.5 Z"/></g>
<g><path style="opacity:0.082" fill="#e4e4e4" d="M 199.5,726.5 C 198.817,728.176 197.483,728.843 195.5,728.5C 196.514,727.326 197.847,726.66 199.5,726.5 Z"/></g>
<g><path style="opacity:0.092" fill="#c7c7c7" d="M 422.5,726.5 C 421.448,728.256 419.781,728.923 417.5,728.5C 418.93,727.463 420.597,726.796 422.5,726.5 Z"/></g>
<g><path style="opacity:0.083" fill="#d8d8d8" d="M 195.5,728.5 C 193.268,730.195 190.601,731.362 187.5,732C 185.19,732.497 182.857,732.663 180.5,732.5C 185.288,730.8 190.288,729.467 195.5,728.5 Z"/></g>
<g><path style="opacity:0.075" fill="#e5e5e5" d="M 536.5,727.5 C 536.715,729.179 536.048,730.179 534.5,730.5C 534.932,729.29 535.599,728.29 536.5,727.5 Z"/></g>
<g><path style="opacity:0.108" fill="#f0f0f0" d="M 135.5,728.5 C 136.995,728.989 138.329,729.655 139.5,730.5C 137.517,730.843 136.183,730.176 135.5,728.5 Z"/></g>
<g><path style="opacity:0.133" fill="#efefef" d="M 370.5,728.5 C 372.698,728.875 374.698,729.542 376.5,730.5C 373.99,730.946 371.99,730.28 370.5,728.5 Z"/></g>
<g><path style="opacity:0.118" fill="#e8e8e8" d="M 416.5,728.5 C 415.082,730.308 413.082,730.975 410.5,730.5C 412.374,729.715 414.374,729.048 416.5,728.5 Z"/></g>
<g><path style="opacity:0.118" fill="#d0d0d0" d="M 141.5,730.5 C 144.067,730.721 146.401,731.388 148.5,732.5C 145.612,733.01 143.279,732.344 141.5,730.5 Z"/></g>
<g><path style="opacity:0.065" fill="#dedede" d="M 534.5,730.5 C 534.025,734.309 532.025,736.975 528.5,738.5C 530.147,735.527 532.147,732.86 534.5,730.5 Z"/></g>
<g><path style="opacity:0.065" fill="#e3e3e3" d="M 528.5,738.5 C 528.762,739.978 528.429,741.311 527.5,742.5C 524.758,745.583 521.758,748.249 518.5,750.5C 521.486,746.183 524.82,742.183 528.5,738.5 Z"/></g>
<g><path style="opacity:0.067" fill="#fefffe" d="M 518.5,750.5 C 518.5,751.833 517.833,752.5 516.5,752.5C 516.833,751.5 517.5,750.833 518.5,750.5 Z"/></g>
<g><path style="opacity:0.067" fill="#fefffe" d="M 516.5,752.5 C 516.5,753.833 515.833,754.5 514.5,754.5C 514.833,753.5 515.5,752.833 516.5,752.5 Z"/></g>
<g><path style="opacity:0.067" fill="#fefffe" d="M 514.5,754.5 C 514.5,755.833 513.833,756.5 512.5,756.5C 512.833,755.5 513.5,754.833 514.5,754.5 Z"/></g>
<g><path style="opacity:0.125" fill="#ededed" d="M 31.5,740.5 C 37.2698,746.771 43.2698,752.938 49.5,759C 56.0666,764.413 62.7332,769.579 69.5,774.5C 66.6567,774.083 63.99,773.083 61.5,771.5C 51.2313,763.234 41.5646,754.234 32.5,744.5C 31.5713,743.311 31.238,741.978 31.5,740.5 Z"/></g>
<g><path style="opacity:0.067" fill="#fefffe" d="M 512.5,756.5 C 512.5,757.833 511.833,758.5 510.5,758.5C 510.833,757.5 511.5,756.833 512.5,756.5 Z"/></g>
<g><path style="opacity:0.11" fill="#e6e6e6" d="M 510.5,758.5 C 508.331,762.674 504.998,765.34 500.5,766.5C 503.539,763.46 506.873,760.794 510.5,758.5 Z"/></g>
<g><path style="opacity:0.065" fill="#e9e9e9" d="M 500.5,766.5 C 498.975,770.025 496.309,772.025 492.5,772.5C 494.86,770.147 497.527,768.147 500.5,766.5 Z"/></g>
<g><path style="opacity:0.076" fill="#dfdfdf" d="M 492.5,772.5 C 491.817,774.176 490.483,774.843 488.5,774.5C 489.514,773.326 490.847,772.66 492.5,772.5 Z"/></g>
<g><path style="opacity:0.102" fill="#e6e6e6" d="M 69.5,774.5 C 71.153,774.66 72.4863,775.326 73.5,776.5C 71.5168,776.843 70.1834,776.176 69.5,774.5 Z"/></g>
<g><path style="opacity:0.076" fill="#dcdcdc" d="M 488.5,774.5 C 488.179,776.048 487.179,776.715 485.5,776.5C 486.29,775.599 487.29,774.932 488.5,774.5 Z"/></g>
<g><path style="opacity:0.043" fill="#d1d1d1" d="M 484.5,776.5 C 484.5,777.833 483.833,778.5 482.5,778.5C 482.833,777.5 483.5,776.833 484.5,776.5 Z"/></g>
<g><path style="opacity:0.11" fill="#e7e7e7" d="M 73.5,776.5 C 76.0041,777.584 78.3374,778.917 80.5,780.5C 77.0771,780.876 74.7438,779.543 73.5,776.5 Z"/></g>
<g><path style="opacity:0.076" fill="#e5e5e5" d="M 482.5,778.5 C 481.817,780.176 480.483,780.843 478.5,780.5C 479.514,779.326 480.847,778.66 482.5,778.5 Z"/></g>
<g><path style="opacity:0.075" fill="#e2e2e2" d="M 81.5,780.5 C 82.7095,780.932 83.7095,781.599 84.5,782.5C 82.8212,782.715 81.8212,782.048 81.5,780.5 Z"/></g>
<g><path style="opacity:0.075" fill="#dfdfdf" d="M 85.5,782.5 C 86.9952,782.989 88.3285,783.655 89.5,784.5C 87.5168,784.843 86.1834,784.176 85.5,782.5 Z"/></g>
<g><path style="opacity:0.043" fill="#d4d4d4" d="M 472.5,782.5 C 472.179,784.048 471.179,784.715 469.5,784.5C 470.29,783.599 471.29,782.932 472.5,782.5 Z"/></g>
<g><path style="opacity:0.102" fill="#e3e3e3" d="M 89.5,784.5 C 91.153,784.66 92.4863,785.326 93.5,786.5C 91.5168,786.843 90.1834,786.176 89.5,784.5 Z"/></g>
<g><path style="opacity:0.076" fill="#d6d6d6" d="M 468.5,784.5 C 467.817,786.176 466.483,786.843 464.5,786.5C 465.671,785.655 467.005,784.989 468.5,784.5 Z"/></g>
<g><path style="opacity:0.108" fill="#cfcfcf" d="M 95.5,787.5 C 99.0774,787.145 102.077,788.145 104.5,790.5C 101.152,790.289 98.1517,789.289 95.5,787.5 Z"/></g>
</svg>
