<?xml version="1.0" encoding="UTF-8"?>
<!DOCTYPE svg PUBLIC "-//W3C//DTD SVG 1.1//EN" "http://www.w3.org/Graphics/SVG/1.1/DTD/svg11.dtd">
<svg xmlns="http://www.w3.org/2000/svg" version="1.1" width="561px" height="797px" style="shape-rendering:geometricPrecision; text-rendering:geometricPrecision; image-rendering:optimizeQuality; fill-rule:evenodd; clip-rule:evenodd" xmlns:xlink="http://www.w3.org/1999/xlink">
<g><path style="opacity:1" fill="#2805f9" d="M 137.5,1.5 C 234.5,1.5 331.5,1.5 428.5,1.5C 432.95,2.71545 437.283,4.54878 441.5,7C 448.398,12.0792 455.398,16.9126 462.5,21.5C 473.43,29.7606 483.43,39.0939 492.5,49.5C 507.332,69.1544 520.665,89.821 532.5,111.5C 532.66,113.153 533.326,114.486 534.5,115.5C 535.321,119.127 536.654,122.46 538.5,125.5C 538.66,127.153 539.326,128.486 540.5,129.5C 540.796,131.403 541.463,133.07 542.5,134.5C 542.5,134.833 542.5,135.167 542.5,135.5C 542.989,136.995 543.655,138.329 544.5,139.5C 544.796,141.403 545.463,143.07 546.5,144.5C 546.5,144.833 546.5,145.167 546.5,145.5C 546.796,147.403 547.463,149.07 548.5,150.5C 548.5,150.833 548.5,151.167 548.5,151.5C 548.875,153.698 549.542,155.698 550.5,157.5C 550.875,159.698 551.542,161.698 552.5,163.5C 552.5,164.167 552.5,164.833 552.5,165.5C 553.048,167.626 553.715,169.626 554.5,171.5C 554.5,172.167 554.5,172.833 554.5,173.5C 555.048,175.626 555.715,177.626 556.5,179.5C 556.753,183.04 557.419,186.373 558.5,189.5C 559.826,219.196 559.826,248.863 558.5,278.5C 557.598,281.997 556.931,285.663 556.5,289.5C 556.5,289.833 556.5,290.167 556.5,290.5C 555.593,292.657 554.927,294.99 554.5,297.5C 554.5,298.167 554.5,298.833 554.5,299.5C 553.542,301.302 552.875,303.302 552.5,305.5C 552.5,305.833 552.5,306.167 552.5,306.5C 551.691,308.028 551.024,309.694 550.5,311.5C 550.5,312.167 550.5,312.833 550.5,313.5C 549.262,315.214 548.595,317.214 548.5,319.5C 546.654,322.54 545.321,325.873 544.5,329.5C 544.5,329.833 544.5,330.167 544.5,330.5C 542.416,333.053 541.083,336.053 540.5,339.5C 539.326,340.514 538.66,341.847 538.5,343.5C 535.186,350.128 531.853,356.795 528.5,363.5C 527.326,364.514 526.66,365.847 526.5,367.5C 520.773,376.602 514.773,385.602 508.5,394.5C 505.484,397.52 502.817,400.854 500.5,404.5C 494.802,410.197 489.468,416.197 484.5,422.5C 483.5,422.833 482.833,423.5 482.5,424.5C 481.5,424.833 480.833,425.5 480.5,426.5C 479.5,426.833 478.833,427.5 478.5,428.5C 477.5,428.833 476.833,429.5 476.5,430.5C 470.197,435.468 464.197,440.802 458.5,446.5C 454.854,448.817 451.52,451.484 448.5,454.5C 445.527,456.147 442.86,458.147 440.5,460.5C 438.205,461.475 436.205,462.808 434.5,464.5C 432.205,465.475 430.205,466.808 428.5,468.5C 426.205,469.475 424.205,470.808 422.5,472.5C 421.29,472.932 420.29,473.599 419.5,474.5C 419.167,474.5 418.833,474.5 418.5,474.5C 416.205,475.475 414.205,476.808 412.5,478.5C 410.847,478.66 409.514,479.326 408.5,480.5C 407.005,480.989 405.671,481.655 404.5,482.5C 403.005,482.989 401.671,483.655 400.5,484.5C 399.005,484.989 397.671,485.655 396.5,486.5C 395.005,486.989 393.671,487.655 392.5,488.5C 390.83,488.751 389.33,489.418 388,490.5C 387.502,493.482 387.335,496.482 387.5,499.5C 431.487,495.822 470.821,507.322 505.5,534C 522.968,549.495 536.635,567.662 546.5,588.5C 547.321,592.127 548.654,595.46 550.5,598.5C 551.865,602.922 553.198,607.255 554.5,611.5C 554.5,611.833 554.5,612.167 554.5,612.5C 554.927,615.01 555.593,617.343 556.5,619.5C 556.5,621.167 556.5,622.833 556.5,624.5C 557.01,627.983 557.677,631.316 558.5,634.5C 558.5,643.833 558.5,653.167 558.5,662.5C 557.745,665.053 557.078,667.72 556.5,670.5C 556.5,672.5 556.5,674.5 556.5,676.5C 555.715,678.374 555.048,680.374 554.5,682.5C 554.5,683.5 554.5,684.5 554.5,685.5C 553.691,687.028 553.024,688.694 552.5,690.5C 552.5,690.833 552.5,691.167 552.5,691.5C 551.691,693.028 551.024,694.694 550.5,696.5C 550.5,696.833 550.5,697.167 550.5,697.5C 549.463,698.93 548.796,700.597 548.5,702.5C 547.655,703.671 546.989,705.005 546.5,706.5C 546.5,706.833 546.5,707.167 546.5,707.5C 545.599,708.29 544.932,709.29 544.5,710.5C 544.5,710.833 544.5,711.167 544.5,711.5C 543.463,712.93 542.796,714.597 542.5,716.5C 541.326,717.514 540.66,718.847 540.5,720.5C 538.684,722.118 537.351,724.118 536.5,726.5C 535.326,727.514 534.66,728.847 534.5,730.5C 532.147,732.86 530.147,735.527 528.5,738.5C 524.155,742.847 520.155,747.514 516.5,752.5C 515.5,752.833 514.833,753.5 514.5,754.5C 509.514,758.155 504.847,762.155 500.5,766.5C 497.545,768.122 494.878,770.122 492.5,772.5C 490.847,772.66 489.514,773.326 488.5,774.5C 487.005,774.989 485.671,775.655 484.5,776.5C 482.125,777.902 479.791,779.235 477.5,780.5C 477.167,780.5 476.833,780.5 476.5,780.5C 475.29,780.932 474.29,781.599 473.5,782.5C 473.167,782.5 472.833,782.5 472.5,782.5C 471.005,782.989 469.671,783.655 468.5,784.5C 466.847,784.66 465.514,785.326 464.5,786.5C 463.833,786.5 463.167,786.5 462.5,786.5C 461.005,786.989 459.671,787.655 458.5,788.5C 457.833,788.5 457.167,788.5 456.5,788.5C 455.005,788.989 453.671,789.655 452.5,790.5C 451.833,790.5 451.167,790.5 450.5,790.5C 448.694,791.024 447.028,791.691 445.5,792.5C 444.5,792.5 443.5,792.5 442.5,792.5C 440.374,793.048 438.374,793.715 436.5,794.5C 434.5,794.5 432.5,794.5 430.5,794.5C 425.398,795.121 420.398,795.787 415.5,796.5C 324.833,796.5 234.167,796.5 143.5,796.5C 138.302,795.741 132.969,795.075 127.5,794.5C 125.833,794.5 124.167,794.5 122.5,794.5C 120.285,793.732 117.952,793.065 115.5,792.5C 114.833,792.5 114.167,792.5 113.5,792.5C 111.626,791.715 109.626,791.048 107.5,790.5C 106.833,790.5 106.167,790.5 105.5,790.5C 103.786,789.262 101.786,788.595 99.5,788.5C 98.3285,787.655 96.9952,786.989 95.5,786.5C 95.1667,786.5 94.8333,786.5 94.5,786.5C 93.0697,785.463 91.403,784.796 89.5,784.5C 88.4863,783.326 87.153,782.66 85.5,782.5C 84.4863,781.326 83.153,780.66 81.5,780.5C 81.1667,780.5 80.8333,780.5 80.5,780.5C 78.3374,778.917 76.0041,777.584 73.5,776.5C 20.0805,742.324 -4.0862,693.324 1,629.5C 9.39549,578.841 35.8955,541.007 80.5,516C 96.6602,508.169 113.66,503.169 131.5,501C 145.66,500.201 159.66,499.368 173.5,498.5C 173.5,495.167 173.5,491.833 173.5,488.5C 173.106,486.29 171.773,484.957 169.5,484.5C 169.167,484.5 168.833,484.5 168.5,484.5C 165.912,482.408 162.912,481.075 159.5,480.5C 158.486,479.326 157.153,478.66 155.5,478.5C 151.167,475.331 146.5,472.664 141.5,470.5C 140.486,469.326 139.153,468.66 137.5,468.5C 135.853,466.674 133.853,465.34 131.5,464.5C 129.795,462.808 127.795,461.475 125.5,460.5C 114.556,452.892 103.889,444.892 93.5,436.5C 87.8695,430.369 82.0362,424.369 76,418.5C 70.6357,411.644 65.1357,404.977 59.5,398.5C 31.2214,360.252 12.388,317.586 3,270.5C 1.30304,259.078 0.136376,247.745 -0.5,236.5C -0.5,226.833 -0.5,217.167 -0.5,207.5C 0.357833,200.329 1.0245,192.995 1.5,185.5C 12.8319,121.659 43.1652,68.8259 92.5,27C 102.482,19.0054 113.149,12.0054 124.5,6C 128.715,3.76318 133.048,2.26318 137.5,1.5 Z M 414.5,55.5 C 414.721,56.7348 415.388,57.7348 416.5,58.5C 419.833,60.5 423.167,62.5 426.5,64.5C 436.167,74.1667 445.833,83.8333 455.5,93.5C 471.951,117.063 485.284,142.397 495.5,169.5C 510.815,217.257 509.481,264.59 491.5,311.5C 484.516,326.807 476.516,341.474 467.5,355.5C 453.229,371.773 438.229,387.44 422.5,402.5C 410.189,412.335 397.522,421.501 384.5,430C 373.633,434.286 362.967,438.953 352.5,444C 343.073,447.067 333.406,449.4 323.5,451C 321.167,452 318.833,453 316.5,454C 296.833,454.667 277.167,454.667 257.5,454C 214.761,445.112 175.428,427.945 139.5,402.5C 127.102,390.771 115.435,378.438 104.5,365.5C 100.289,359.284 96.9554,352.617 94.5,345.5C 84.6757,335.87 77.3423,324.537 72.5,311.5C 66.1596,294.808 60.4929,278.141 55.5,261.5C 55.5,260.5 55.5,259.5 55.5,258.5C 56.0969,253.706 55.4302,249.373 53.5,245.5C 53.5,230.167 53.5,214.833 53.5,199.5C 57.5926,182.823 62.5926,166.157 68.5,149.5C 77.5806,131.109 88.2473,113.775 100.5,97.5C 110.167,87.8333 119.833,78.1667 129.5,68.5C 135.156,64.0038 141.156,60.0038 147.5,56.5C 236.498,55.5 325.498,55.1667 414.5,55.5 Z M 217.5,109.5 C 232.363,119.666 233.029,130.666 219.5,142.5C 216.167,143.833 212.833,143.833 209.5,142.5C 205.032,138.375 201.032,134.041 197.5,129.5C 197.5,128.167 197.5,126.833 197.5,125.5C 199.036,123.975 200.036,121.975 200.5,119.5C 202.833,117.167 205.167,114.833 207.5,112.5C 210.55,110.483 213.883,109.483 217.5,109.5 Z M 347.5,109.5 C 351.117,109.483 354.45,110.483 357.5,112.5C 361.304,115.959 364.637,119.626 367.5,123.5C 367.517,127.117 366.517,130.45 364.5,133.5C 361.5,136.5 358.5,139.5 355.5,142.5C 352.167,143.833 348.833,143.833 345.5,142.5C 339.672,138.683 336.339,133.349 335.5,126.5C 335.833,124.833 336.167,123.167 336.5,121.5C 340.579,117.76 344.246,113.76 347.5,109.5 Z M 149.5,249.5 C 138.18,250.838 128.846,247.172 121.5,238.5C 119.447,237.473 117.447,236.473 115.5,235.5C 115.5,235.167 115.5,234.833 115.5,234.5C 111.526,216.454 118.193,203.787 135.5,196.5C 142.74,194.819 149.407,196.152 155.5,200.5C 168.854,210.521 171.854,222.854 164.5,237.5C 162.167,239.833 159.833,242.167 157.5,244.5C 154.367,245.716 151.7,247.383 149.5,249.5 Z M 423.5,195.5 C 425.7,197.617 428.367,199.284 431.5,200.5C 434.5,203.5 437.5,206.5 440.5,209.5C 441.716,212.633 443.383,215.3 445.5,217.5C 444.879,232.474 437.546,242.807 423.5,248.5C 418.88,249.493 414.214,249.827 409.5,249.5C 403.625,244.632 397.958,239.299 392.5,233.5C 388.5,226.167 388.5,218.833 392.5,211.5C 397.684,204.976 404.017,199.976 411.5,196.5C 415.445,195.509 419.445,195.176 423.5,195.5 Z M 275.5,195.5 C 290.657,194.901 300.991,201.567 306.5,215.5C 308.133,222.429 307.467,229.095 304.5,235.5C 288.5,254.167 272.5,254.167 256.5,235.5C 250.7,221.542 253.7,209.876 265.5,200.5C 269.129,198.986 272.462,197.32 275.5,195.5 Z M 201.5,313.5 C 214.388,312.443 224.721,317.109 232.5,327.5C 233.716,330.633 235.383,333.3 237.5,335.5C 237.5,338.833 237.5,342.167 237.5,345.5C 235.383,347.7 233.716,350.367 232.5,353.5C 229.5,356.5 226.5,359.5 223.5,362.5C 220.367,363.716 217.7,365.383 215.5,367.5C 208.238,368.179 201.572,366.513 195.5,362.5C 190.42,358.091 186.086,353.091 182.5,347.5C 180.92,341.232 181.586,335.232 184.5,329.5C 189.958,323.701 195.625,318.368 201.5,313.5 Z M 359.5,313.5 C 365.375,318.368 371.042,323.701 376.5,329.5C 380.5,336.833 380.5,344.167 376.5,351.5C 371.316,358.024 364.983,363.024 357.5,366.5C 353.555,367.491 349.555,367.824 345.5,367.5C 343.3,365.383 340.633,363.716 337.5,362.5C 334.5,359.5 331.5,356.5 328.5,353.5C 327.284,350.367 325.617,347.7 323.5,345.5C 323.5,342.167 323.5,338.833 323.5,335.5C 328.458,326.213 335.791,319.213 345.5,314.5C 350.12,313.507 354.786,313.173 359.5,313.5 Z M 422.5,540.5 C 423.552,542.256 425.219,542.923 427.5,542.5C 429.167,542.5 430.833,542.5 432.5,542.5C 433.918,544.308 435.918,544.975 438.5,544.5C 439.918,546.308 441.918,546.975 444.5,546.5C 447.061,549.363 450.394,550.696 454.5,550.5C 460.696,555.283 467.362,559.617 474.5,563.5C 520.156,605.11 527.823,652.777 497.5,706.5C 493.38,710.411 490.547,715.077 489,720.5C 469.183,737.154 446.35,748.154 420.5,753.5C 326.167,754.833 231.833,754.833 137.5,753.5C 112.114,748.723 89.947,737.723 71,720.5C 67.7433,715.654 64.2433,710.988 60.5,706.5C 46.2174,684.644 39.8841,660.644 41.5,634.5C 43.4136,631.316 44.0803,627.649 43.5,623.5C 43.5,623.167 43.5,622.833 43.5,622.5C 44.9432,621.665 45.9432,620.332 46.5,618.5C 48.126,614.629 49.126,610.629 49.5,606.5C 54.1073,600.184 58.4406,593.517 62.5,586.5C 63.4287,585.311 63.762,583.978 63.5,582.5C 70.8333,576.5 77.5,569.833 83.5,562.5C 88.0604,560.22 92.7271,557.886 97.5,555.5C 98.6119,554.735 99.2786,553.735 99.5,552.5C 101.483,552.843 102.817,552.176 103.5,550.5C 103.833,550.5 104.167,550.5 104.5,550.5C 108.223,550.466 111.223,549.133 113.5,546.5C 113.833,546.5 114.167,546.5 114.5,546.5C 116.781,546.923 118.448,546.256 119.5,544.5C 119.833,544.5 120.167,544.5 120.5,544.5C 122.781,544.923 124.448,544.256 125.5,542.5C 224.462,540.547 323.462,539.88 422.5,540.5 Z M 447.5,655.5 C 443.925,662.65 440.259,669.983 436.5,677.5C 432.833,681.167 429.167,684.833 425.5,688.5C 418.966,692.757 412.299,696.424 405.5,699.5C 398.167,699.5 390.833,699.5 383.5,699.5C 377.684,696.592 371.684,693.592 365.5,690.5C 360.5,685.5 355.5,680.5 350.5,675.5C 347.952,669.718 344.952,664.384 341.5,659.5C 341.168,650.143 341.502,640.81 342.5,631.5C 343.949,626.601 345.949,621.935 348.5,617.5C 354.833,611.167 361.167,604.833 367.5,598.5C 394.465,585.241 417.465,590.241 436.5,613.5C 445.257,626.114 448.924,640.114 447.5,655.5 Z M 151.5,593.5 C 160.192,593.169 168.859,593.502 177.5,594.5C 182.399,595.949 187.065,597.949 191.5,600.5C 197.167,606.167 202.833,611.833 208.5,617.5C 211.921,622.412 214.588,627.746 216.5,633.5C 217.498,642.81 217.832,652.143 217.5,661.5C 214.048,666.384 211.048,671.718 208.5,677.5C 203.5,682.5 198.5,687.5 193.5,692.5C 181.278,700.312 167.945,703.312 153.5,701.5C 135.047,694.717 122.047,682.051 114.5,663.5C 109.035,646.154 111.702,630.154 122.5,615.5C 126.833,611.167 131.167,606.833 135.5,602.5C 141.282,599.952 146.616,596.952 151.5,593.5 Z"/></g>
<g><path style="opacity:0.131" fill="#e4e4e4" d="M 428.5,1.5 C 434.349,1.41964 439.682,3.08631 444.5,6.5C 448.5,9.16667 452.5,11.8333 456.5,14.5C 458.92,16.5782 460.92,18.9115 462.5,21.5C 455.398,16.9126 448.398,12.0792 441.5,7C 437.283,4.54878 432.95,2.71545 428.5,1.5 Z"/></g>
<g><path style="opacity:0.207" fill="#f0f0f0" d="M 137.5,1.5 C 133.048,2.26318 128.715,3.76318 124.5,6C 113.149,12.0054 102.482,19.0054 92.5,27C 43.1652,68.8259 12.8319,121.659 1.5,185.5C 1.17182,180.125 1.50515,174.792 2.5,169.5C 8.9613,142.785 18.9613,117.452 32.5,93.5C 40.5,81.5 48.5,69.5 56.5,57.5C 70.5533,42.6662 85.5533,28.9995 101.5,16.5C 110.167,11.8333 118.833,7.16667 127.5,2.5C 130.768,1.51298 134.102,1.17964 137.5,1.5 Z"/></g>
<g><path style="opacity:0.138" fill="#f0f0f0" d="M 462.5,21.5 C 466.011,22.6443 469.344,24.311 472.5,26.5C 478.833,32.8333 485.167,39.1667 491.5,45.5C 492.429,46.6888 492.762,48.0222 492.5,49.5C 483.43,39.0939 473.43,29.7606 462.5,21.5 Z"/></g>
<g><path style="opacity:0.114" fill="#dfdfdf" d="M 492.5,49.5 C 495.758,51.7506 498.758,54.4172 501.5,57.5C 508.833,68.8333 516.167,80.1667 523.5,91.5C 527.072,97.9729 530.072,104.64 532.5,111.5C 520.665,89.821 507.332,69.1544 492.5,49.5 Z"/></g>
<g><path style="opacity:1" fill="#2804fa" d="M 303.5,135.5 C 303.5,129.833 303.5,124.167 303.5,118.5C 311.381,89.4716 330.381,76.305 360.5,79C 379.153,83.6533 391.32,95.1533 397,113.5C 402.569,144.209 390.736,164.709 361.5,175C 337.811,178.739 319.978,170.239 308,149.5C 306.17,144.816 304.67,140.149 303.5,135.5 Z M 347.5,109.5 C 351.117,109.483 354.45,110.483 357.5,112.5C 361.304,115.959 364.637,119.626 367.5,123.5C 367.517,127.117 366.517,130.45 364.5,133.5C 361.5,136.5 358.5,139.5 355.5,142.5C 352.167,143.833 348.833,143.833 345.5,142.5C 339.672,138.683 336.339,133.349 335.5,126.5C 335.833,124.833 336.167,123.167 336.5,121.5C 340.579,117.76 344.246,113.76 347.5,109.5 Z"/></g>
<g><path style="opacity:0.203" fill="#f2f2f2" d="M 199.5,77.5 C 209.522,77.1681 219.522,77.5015 229.5,78.5C 246.639,84.3077 257.639,95.9743 262.5,113.5C 267.27,135.184 261.603,153.517 245.5,168.5C 224.833,180.5 204.167,180.5 183.5,168.5C 166.97,152.896 161.303,133.896 166.5,111.5C 167.949,106.601 169.949,101.935 172.5,97.5C 176.833,93.1667 181.167,88.8333 185.5,84.5C 190.35,82.0748 195.017,79.7415 199.5,77.5 Z M 217.5,109.5 C 232.363,119.666 233.029,130.666 219.5,142.5C 216.167,143.833 212.833,143.833 209.5,142.5C 205.032,138.375 201.032,134.041 197.5,129.5C 197.5,128.167 197.5,126.833 197.5,125.5C 199.036,123.975 200.036,121.975 200.5,119.5C 202.833,117.167 205.167,114.833 207.5,112.5C 210.55,110.483 213.883,109.483 217.5,109.5 Z"/></g>
<g><path style="opacity:1" fill="#2805f9" d="M 204.5,78.5 C 235.578,76.2816 254.744,90.2816 262,120.5C 263.313,150.854 249.146,169.354 219.5,176C 191.481,176.08 173.981,162.58 167,135.5C 164.88,106.801 177.38,87.8011 204.5,78.5 Z M 217.5,109.5 C 232.363,119.666 233.029,130.666 219.5,142.5C 216.167,143.833 212.833,143.833 209.5,142.5C 205.032,138.375 201.032,134.041 197.5,129.5C 197.5,128.167 197.5,126.833 197.5,125.5C 199.036,123.975 200.036,121.975 200.5,119.5C 202.833,117.167 205.167,114.833 207.5,112.5C 210.55,110.483 213.883,109.483 217.5,109.5 Z"/></g>
<g><path style="opacity:0.152" fill="#e9e9e9" d="M 217.5,109.5 C 213.883,109.483 210.55,110.483 207.5,112.5C 205.167,114.833 202.833,117.167 200.5,119.5C 200.036,121.975 199.036,123.975 197.5,125.5C 198.25,117.243 202.583,111.743 210.5,109C 213.039,108.204 215.372,108.371 217.5,109.5 Z"/></g>
<g><path style="opacity:0.159" fill="#e8e8e8" d="M 347.5,109.5 C 358.136,108.095 364.803,112.761 367.5,123.5C 364.637,119.626 361.304,115.959 357.5,112.5C 354.45,110.483 351.117,109.483 347.5,109.5 Z"/></g>
<g><path style="opacity:0.105" fill="#e2e2e2" d="M 532.5,111.5 C 534.176,112.183 534.843,113.517 534.5,115.5C 533.326,114.486 532.66,113.153 532.5,111.5 Z"/></g>
<g><path style="opacity:0.103" fill="#d3d3d3" d="M 534.5,115.5 C 537.363,118.061 538.696,121.394 538.5,125.5C 536.654,122.46 535.321,119.127 534.5,115.5 Z"/></g>
<g><path style="opacity:0.207" fill="#f1f1f1" d="M 347.5,109.5 C 344.246,113.76 340.579,117.76 336.5,121.5C 336.167,123.167 335.833,124.833 335.5,126.5C 336.339,133.349 339.672,138.683 345.5,142.5C 348.833,143.833 352.167,143.833 355.5,142.5C 358.5,139.5 361.5,136.5 364.5,133.5C 366.517,130.45 367.517,127.117 367.5,123.5C 368.862,135.674 363.362,143.007 351,145.5C 335.669,141.897 330.669,132.564 336,117.5C 338.934,113.377 342.768,110.71 347.5,109.5 Z"/></g>
<g><path style="opacity:0.131" fill="#cfcfcf" d="M 416.5,55.5 C 415.833,55.5 415.167,55.5 414.5,55.5C 325.498,55.1667 236.498,55.5 147.5,56.5C 141.156,60.0038 135.156,64.0038 129.5,68.5C 119.833,78.1667 110.167,87.8333 100.5,97.5C 88.2473,113.775 77.5806,131.109 68.5,149.5C 62.5926,166.157 57.5926,182.823 53.5,199.5C 61.1631,150.002 83.1631,108.169 119.5,74C 127.946,66.8887 136.946,60.5554 146.5,55C 236.668,54.1676 326.668,54.3343 416.5,55.5 Z"/></g>
<g><path style="opacity:0.076" fill="#bebebe" d="M 538.5,125.5 C 540.176,126.183 540.843,127.517 540.5,129.5C 539.326,128.486 538.66,127.153 538.5,125.5 Z"/></g>
<g><path style="opacity:0.199" fill="#f2f2f2" d="M 217.5,109.5 C 226.711,111.557 231.377,117.39 231.5,127C 229.744,141.541 221.744,147.208 207.5,144C 201.557,140.902 198.224,136.069 197.5,129.5C 201.032,134.041 205.032,138.375 209.5,142.5C 212.833,143.833 216.167,143.833 219.5,142.5C 233.029,130.666 232.363,119.666 217.5,109.5 Z"/></g>
<g><path style="opacity:0.095" fill="#cccccc" d="M 540.5,129.5 C 542.256,130.552 542.923,132.219 542.5,134.5C 541.463,133.07 540.796,131.403 540.5,129.5 Z"/></g>
<g><path style="opacity:0.076" fill="#c9c9c9" d="M 542.5,135.5 C 544.176,136.183 544.843,137.517 544.5,139.5C 543.655,138.329 542.989,136.995 542.5,135.5 Z"/></g>
<g><path style="opacity:0.095" fill="#dddddd" d="M 544.5,139.5 C 546.256,140.552 546.923,142.219 546.5,144.5C 545.463,143.07 544.796,141.403 544.5,139.5 Z"/></g>
<g><path style="opacity:0.213" fill="#f2f2f2" d="M 303.5,135.5 C 304.67,140.149 306.17,144.816 308,149.5C 319.978,170.239 337.811,178.739 361.5,175C 390.736,164.709 402.569,144.209 397,113.5C 391.32,95.1533 379.153,83.6533 360.5,79C 330.381,76.305 311.381,89.4716 303.5,118.5C 305.198,98.1226 315.864,84.7893 335.5,78.5C 358.647,72.882 377.647,79.2154 392.5,97.5C 398.203,106.693 400.536,116.693 399.5,127.5C 399.959,152.892 387.959,169.225 363.5,176.5C 343.665,180.774 326.665,175.774 312.5,161.5C 306.515,153.88 303.515,145.214 303.5,135.5 Z"/></g>
<g><path style="opacity:0.076" fill="#c1c1c1" d="M 546.5,145.5 C 548.256,146.552 548.923,148.219 548.5,150.5C 547.463,149.07 546.796,147.403 546.5,145.5 Z"/></g>
<g><path style="opacity:0.094" fill="#bcbcbc" d="M 548.5,151.5 C 550.308,152.918 550.975,154.918 550.5,157.5C 549.542,155.698 548.875,153.698 548.5,151.5 Z"/></g>
<g><path style="opacity:0.095" fill="#cecece" d="M 550.5,157.5 C 552.308,158.918 552.975,160.918 552.5,163.5C 551.542,161.698 550.875,159.698 550.5,157.5 Z"/></g>
<g><path style="opacity:0.18" fill="#ebebeb" d="M 286.5,163.5 C 286.5,163.833 286.5,164.167 286.5,164.5C 251.474,163.258 229.64,179.591 221,213.5C 218.802,245.623 232.635,267.457 262.5,279C 266.637,279.839 270.637,280.673 274.5,281.5C 263.256,281.753 252.922,278.753 243.5,272.5C 238.5,267.5 233.5,262.5 228.5,257.5C 216.5,234.167 216.5,210.833 228.5,187.5C 233.5,182.5 238.5,177.5 243.5,172.5C 256.739,164.541 271.072,161.541 286.5,163.5 Z"/></g>
<g><path style="opacity:0.18" fill="#f1f1f1" d="M 286.5,164.5 C 286.5,164.167 286.5,163.833 286.5,163.5C 297.744,163.247 308.078,166.247 317.5,172.5C 322.5,177.5 327.5,182.5 332.5,187.5C 344.5,210.833 344.5,234.167 332.5,257.5C 327.5,262.5 322.5,267.5 317.5,272.5C 308.078,278.753 297.744,281.753 286.5,281.5C 315.353,276.793 333.187,260.127 340,231.5C 342.328,198.995 328.161,177.161 297.5,166C 293.914,164.892 290.247,164.392 286.5,164.5 Z"/></g>
<g><path style="opacity:1" fill="#2804fa" d="M 146.5,164.5 C 177.406,168.076 195.739,185.076 201.5,215.5C 201.5,220.5 201.5,225.5 201.5,230.5C 194.575,262.083 174.909,279.083 142.5,281.5C 140.167,281.5 137.833,281.5 135.5,281.5C 108.615,277.128 91.1151,261.795 83,235.5C 78.8695,198.903 94.3695,175.403 129.5,165C 135.157,164.501 140.824,164.334 146.5,164.5 Z M 149.5,249.5 C 138.18,250.838 128.846,247.172 121.5,238.5C 119.447,237.473 117.447,236.473 115.5,235.5C 115.5,235.167 115.5,234.833 115.5,234.5C 111.526,216.454 118.193,203.787 135.5,196.5C 142.74,194.819 149.407,196.152 155.5,200.5C 168.854,210.521 171.854,222.854 164.5,237.5C 162.167,239.833 159.833,242.167 157.5,244.5C 154.367,245.716 151.7,247.383 149.5,249.5 Z"/></g>
<g><path style="opacity:1" fill="#2804fa" d="M 286.5,164.5 C 290.247,164.392 293.914,164.892 297.5,166C 328.161,177.161 342.328,198.995 340,231.5C 333.187,260.127 315.353,276.793 286.5,281.5C 282.5,281.5 278.5,281.5 274.5,281.5C 270.637,280.673 266.637,279.839 262.5,279C 232.635,267.457 218.802,245.623 221,213.5C 229.64,179.591 251.474,163.258 286.5,164.5 Z M 275.5,195.5 C 272.462,197.32 269.129,198.986 265.5,200.5C 253.7,209.876 250.7,221.542 256.5,235.5C 272.5,254.167 288.5,254.167 304.5,235.5C 307.467,229.095 308.133,222.429 306.5,215.5C 300.991,201.567 290.657,194.901 275.5,195.5 Z"/></g>
<g><path style="opacity:1" fill="#2804fa" d="M 408.5,164.5 C 443.053,162.347 465.553,177.68 476,210.5C 479.367,249.816 461.867,273.483 423.5,281.5C 419.167,281.5 414.833,281.5 410.5,281.5C 381.362,276.362 363.696,259.362 357.5,230.5C 357.5,225.167 357.5,219.833 357.5,214.5C 358.654,209.556 359.988,204.556 361.5,199.5C 371.148,179.865 386.814,168.198 408.5,164.5 Z M 423.5,195.5 C 425.7,197.617 428.367,199.284 431.5,200.5C 434.5,203.5 437.5,206.5 440.5,209.5C 441.716,212.633 443.383,215.3 445.5,217.5C 444.879,232.474 437.546,242.807 423.5,248.5C 418.88,249.493 414.214,249.827 409.5,249.5C 403.625,244.632 397.958,239.299 392.5,233.5C 388.5,226.167 388.5,218.833 392.5,211.5C 397.684,204.976 404.017,199.976 411.5,196.5C 415.445,195.509 419.445,195.176 423.5,195.5 Z"/></g>
<g><path style="opacity:0.078" fill="#b7b7b7" d="M 552.5,165.5 C 554.308,166.918 554.975,168.918 554.5,171.5C 553.715,169.626 553.048,167.626 552.5,165.5 Z"/></g>
<g><path style="opacity:0.19" fill="#f1f1f1" d="M 146.5,164.5 C 146.5,164.167 146.5,163.833 146.5,163.5C 165.446,163.307 180.78,170.64 192.5,185.5C 198.542,194.624 201.542,204.624 201.5,215.5C 195.739,185.076 177.406,168.076 146.5,164.5 Z"/></g>
<g><path style="opacity:0.185" fill="#f3f3f3" d="M 408.5,163.5 C 408.5,163.833 408.5,164.167 408.5,164.5C 386.814,168.198 371.148,179.865 361.5,199.5C 362.011,194.467 363.677,189.801 366.5,185.5C 377.179,171.827 391.179,164.494 408.5,163.5 Z"/></g>
<g><path style="opacity:0.094" fill="#c8c8c8" d="M 554.5,173.5 C 556.308,174.918 556.975,176.918 556.5,179.5C 555.715,177.626 555.048,175.626 554.5,173.5 Z"/></g>
<g><path style="opacity:0.136" fill="#d8d8d8" d="M 556.5,179.5 C 558.402,182.337 559.069,185.671 558.5,189.5C 557.419,186.373 556.753,183.04 556.5,179.5 Z"/></g>
<g><path style="opacity:0.128" fill="#e5e5e5" d="M 408.5,164.5 C 408.5,164.167 408.5,163.833 408.5,163.5C 442.286,159.717 464.952,173.717 476.5,205.5C 482.237,230.932 475.904,252.599 457.5,270.5C 451.391,274.888 444.724,278.221 437.5,280.5C 432.88,281.493 428.214,281.827 423.5,281.5C 461.867,273.483 479.367,249.816 476,210.5C 465.553,177.68 443.053,162.347 408.5,164.5 Z"/></g>
<g><path style="opacity:0.135" fill="#e3e3e3" d="M 146.5,163.5 C 146.5,163.833 146.5,164.167 146.5,164.5C 140.824,164.334 135.157,164.501 129.5,165C 94.3695,175.403 78.8695,198.903 83,235.5C 91.1151,261.795 108.615,277.128 135.5,281.5C 108.589,280.533 90.9222,267.2 82.5,241.5C 75.8207,213.538 83.4873,190.538 105.5,172.5C 118.131,164.926 131.798,161.926 146.5,163.5 Z"/></g>
<g><path style="opacity:0.211" fill="#dadada" d="M -0.5,185.5 C 0.166667,185.5 0.833333,185.5 1.5,185.5C 1.0245,192.995 0.357833,200.329 -0.5,207.5C -0.5,200.167 -0.5,192.833 -0.5,185.5 Z"/></g>
<g><path style="opacity:0.238" fill="#f1f1f1" d="M 149.5,249.5 C 151.7,247.383 154.367,245.716 157.5,244.5C 159.833,242.167 162.167,239.833 164.5,237.5C 171.854,222.854 168.854,210.521 155.5,200.5C 149.407,196.152 142.74,194.819 135.5,196.5C 118.193,203.787 111.526,216.454 115.5,234.5C 109.835,221.814 112.169,210.647 122.5,201C 137.926,191.136 152.093,192.636 165,205.5C 173.223,219.217 172.056,232.05 161.5,244C 157.856,246.656 153.856,248.489 149.5,249.5 Z"/></g>
<g><path style="opacity:0.163" fill="#ededed" d="M 423.5,195.5 C 435.833,197.833 443.167,205.167 445.5,217.5C 443.383,215.3 441.716,212.633 440.5,209.5C 437.5,206.5 434.5,203.5 431.5,200.5C 428.367,199.284 425.7,197.617 423.5,195.5 Z"/></g>
<g><path style="opacity:0.176" fill="#dddddd" d="M 361.5,199.5 C 359.988,204.556 358.654,209.556 357.5,214.5C 357.177,210.774 357.511,207.107 358.5,203.5C 359.057,201.668 360.057,200.335 361.5,199.5 Z"/></g>
<g><path style="opacity:0.276" fill="#f8f8f8" d="M 414.5,55.5 C 415.167,55.5 415.833,55.5 416.5,55.5C 437.767,68.2668 454.934,85.2668 468,106.5C 487.669,136.833 500.669,169.833 507,205.5C 514.672,284.186 488.838,349.353 429.5,401C 375.959,447.89 313.959,465.223 243.5,453C 203.49,443.99 167.49,426.99 135.5,402C 93.9035,363.637 67.2369,316.804 55.5,261.5C 60.4929,278.141 66.1596,294.808 72.5,311.5C 77.3423,324.537 84.6757,335.87 94.5,345.5C 96.9554,352.617 100.289,359.284 104.5,365.5C 115.435,378.438 127.102,390.771 139.5,402.5C 175.428,427.945 214.761,445.112 257.5,454C 277.167,454.667 296.833,454.667 316.5,454C 318.833,453 321.167,452 323.5,451C 333.406,449.4 343.073,447.067 352.5,444C 362.967,438.953 373.633,434.286 384.5,430C 397.522,421.501 410.189,412.335 422.5,402.5C 438.229,387.44 453.229,371.773 467.5,355.5C 476.516,341.474 484.516,326.807 491.5,311.5C 509.481,264.59 510.815,217.257 495.5,169.5C 485.284,142.397 471.951,117.063 455.5,93.5C 445.833,83.8333 436.167,74.1667 426.5,64.5C 423.167,62.5 419.833,60.5 416.5,58.5C 415.388,57.7348 414.721,56.7348 414.5,55.5 Z M 201.5,313.5 C 214.388,312.443 224.721,317.109 232.5,327.5C 233.716,330.633 235.383,333.3 237.5,335.5C 237.5,338.833 237.5,342.167 237.5,345.5C 235.383,347.7 233.716,350.367 232.5,353.5C 229.5,356.5 226.5,359.5 223.5,362.5C 220.367,363.716 217.7,365.383 215.5,367.5C 208.238,368.179 201.572,366.513 195.5,362.5C 190.42,358.091 186.086,353.091 182.5,347.5C 180.92,341.232 181.586,335.232 184.5,329.5C 189.958,323.701 195.625,318.368 201.5,313.5 Z M 359.5,313.5 C 365.375,318.368 371.042,323.701 376.5,329.5C 380.5,336.833 380.5,344.167 376.5,351.5C 371.316,358.024 364.983,363.024 357.5,366.5C 353.555,367.491 349.555,367.824 345.5,367.5C 343.3,365.383 340.633,363.716 337.5,362.5C 334.5,359.5 331.5,356.5 328.5,353.5C 327.284,350.367 325.617,347.7 323.5,345.5C 323.5,342.167 323.5,338.833 323.5,335.5C 328.458,326.213 335.791,319.213 345.5,314.5C 350.12,313.507 354.786,313.173 359.5,313.5 Z"/></g>
<g><path style="opacity:0.178" fill="#ededed" d="M 445.5,217.5 C 447.516,233.934 440.516,244.768 424.5,250C 419.316,250.816 414.316,250.65 409.5,249.5C 414.214,249.827 418.88,249.493 423.5,248.5C 437.546,242.807 444.879,232.474 445.5,217.5 Z"/></g>
<g><path style="opacity:0.214" fill="#f4f4f4" d="M 423.5,195.5 C 419.445,195.176 415.445,195.509 411.5,196.5C 404.017,199.976 397.684,204.976 392.5,211.5C 388.5,218.833 388.5,226.167 392.5,233.5C 397.958,239.299 403.625,244.632 409.5,249.5C 392.439,244.067 385.605,232.401 389,214.5C 395.534,198.843 407.034,192.51 423.5,195.5 Z"/></g>
<g><path style="opacity:0.156" fill="#efefef" d="M 274.5,194.5 C 295.373,192.885 307.04,202.385 309.5,223C 308.565,236.614 301.565,245.614 288.5,250C 267.049,253.189 254.715,244.189 251.5,223C 252.417,207.928 260.084,198.428 274.5,194.5 Z M 275.5,195.5 C 272.462,197.32 269.129,198.986 265.5,200.5C 253.7,209.876 250.7,221.542 256.5,235.5C 272.5,254.167 288.5,254.167 304.5,235.5C 307.467,229.095 308.133,222.429 306.5,215.5C 300.991,201.567 290.657,194.901 275.5,195.5 Z"/></g>
<g><path style="opacity:0.182" fill="#f0f0f0" d="M 115.5,235.5 C 117.447,236.473 119.447,237.473 121.5,238.5C 128.846,247.172 138.18,250.838 149.5,249.5C 135.018,252.595 123.685,247.929 115.5,235.5 Z"/></g>
<g><path style="opacity:0.175" fill="#f3f3f3" d="M 201.5,230.5 C 200.525,247.781 193.192,261.781 179.5,272.5C 168.782,278.683 157.449,282.516 145.5,284C 144.058,283.623 143.058,282.79 142.5,281.5C 174.909,279.083 194.575,262.083 201.5,230.5 Z"/></g>
<g><path style="opacity:0.136" fill="#d3d3d3" d="M 53.5,245.5 C 55.4302,249.373 56.0969,253.706 55.5,258.5C 54.5511,254.343 53.8844,250.01 53.5,245.5 Z"/></g>
<g><path style="opacity:0.166" fill="#efefef" d="M 357.5,230.5 C 363.696,259.362 381.362,276.362 410.5,281.5C 392.405,281.119 377.738,273.786 366.5,259.5C 363.833,254.167 361.167,248.833 358.5,243.5C 357.508,239.217 357.174,234.884 357.5,230.5 Z"/></g>
<g><path style="opacity:0.166" fill="#ededed" d="M -0.5,236.5 C 0.136376,247.745 1.30304,259.078 3,270.5C 12.388,317.586 31.2214,360.252 59.5,398.5C 56.9115,396.92 54.5782,394.92 52.5,392.5C 25.007,352.661 7.34035,308.995 -0.5,261.5C -0.5,253.167 -0.5,244.833 -0.5,236.5 Z"/></g>
<g><path style="opacity:1" fill="#2805f9" d="M 203.5,281.5 C 207.167,281.5 210.833,281.5 214.5,281.5C 253.226,288.739 271.059,312.073 268,351.5C 262.756,371.827 250.59,386.327 231.5,395C 224.935,397.594 218.269,399.094 211.5,399.5C 209.833,399.5 208.167,399.5 206.5,399.5C 175.689,396.358 156.689,379.692 149.5,349.5C 149.5,343.5 149.5,337.5 149.5,331.5C 156.262,302.739 174.262,286.073 203.5,281.5 Z M 201.5,313.5 C 214.388,312.443 224.721,317.109 232.5,327.5C 233.716,330.633 235.383,333.3 237.5,335.5C 237.5,338.833 237.5,342.167 237.5,345.5C 235.383,347.7 233.716,350.367 232.5,353.5C 229.5,356.5 226.5,359.5 223.5,362.5C 220.367,363.716 217.7,365.383 215.5,367.5C 208.238,368.179 201.572,366.513 195.5,362.5C 190.42,358.091 186.086,353.091 182.5,347.5C 180.92,341.232 181.586,335.232 184.5,329.5C 189.958,323.701 195.625,318.368 201.5,313.5 Z"/></g>
<g><path style="opacity:1" fill="#2805f9" d="M 346.5,281.5 C 350.167,281.5 353.833,281.5 357.5,281.5C 386.73,286.064 404.73,302.731 411.5,331.5C 411.5,337.5 411.5,343.5 411.5,349.5C 404.311,379.692 385.311,396.358 354.5,399.5C 352.833,399.5 351.167,399.5 349.5,399.5C 314.339,395.172 295.339,375.338 292.5,340C 293.622,311.785 307.622,293.119 334.5,284C 338.637,283.161 342.637,282.327 346.5,281.5 Z M 359.5,313.5 C 365.375,318.368 371.042,323.701 376.5,329.5C 380.5,336.833 380.5,344.167 376.5,351.5C 371.316,358.024 364.983,363.024 357.5,366.5C 353.555,367.491 349.555,367.824 345.5,367.5C 343.3,365.383 340.633,363.716 337.5,362.5C 334.5,359.5 331.5,356.5 328.5,353.5C 327.284,350.367 325.617,347.7 323.5,345.5C 323.5,342.167 323.5,338.833 323.5,335.5C 328.458,326.213 335.791,319.213 345.5,314.5C 350.12,313.507 354.786,313.173 359.5,313.5 Z"/></g>
<g><path style="opacity:0.175" fill="#efefef" d="M 357.5,281.5 C 376,281.583 391,288.916 402.5,303.5C 405.167,308.833 407.833,314.167 410.5,319.5C 411.491,323.445 411.824,327.445 411.5,331.5C 404.73,302.731 386.73,286.064 357.5,281.5 Z"/></g>
<g><path style="opacity:0.171" fill="#ededed" d="M 203.5,281.5 C 174.262,286.073 156.262,302.739 149.5,331.5C 149.176,327.445 149.509,323.445 150.5,319.5C 156.712,303.289 167.712,291.623 183.5,284.5C 190.014,282.414 196.68,281.414 203.5,281.5 Z"/></g>
<g><path style="opacity:0.093" fill="#d1d1d1" d="M 558.5,278.5 C 559.08,282.649 558.414,286.316 556.5,289.5C 556.931,285.663 557.598,281.997 558.5,278.5 Z"/></g>
<g><path style="opacity:0.125" fill="#b7b7b7" d="M 556.5,290.5 C 557.01,293.388 556.344,295.721 554.5,297.5C 554.927,294.99 555.593,292.657 556.5,290.5 Z"/></g>
<g><path style="opacity:0.071" fill="#c3c3c3" d="M 554.5,299.5 C 554.975,302.082 554.308,304.082 552.5,305.5C 552.875,303.302 553.542,301.302 554.5,299.5 Z"/></g>
<g><path style="opacity:0.039" fill="#bdbdbd" d="M 552.5,306.5 C 552.923,308.781 552.256,310.448 550.5,311.5C 551.024,309.694 551.691,308.028 552.5,306.5 Z"/></g>
<g><path style="opacity:0.175" fill="#f1f1f1" d="M 201.5,313.5 C 214.898,310.273 225.732,314.273 234,325.5C 236.035,328.561 237.201,331.895 237.5,335.5C 235.383,333.3 233.716,330.633 232.5,327.5C 224.721,317.109 214.388,312.443 201.5,313.5 Z"/></g>
<g><path style="opacity:0.175" fill="#f1f1f1" d="M 359.5,313.5 C 354.786,313.173 350.12,313.507 345.5,314.5C 335.791,319.213 328.458,326.213 323.5,335.5C 325.788,323.709 332.788,316.209 344.5,313C 349.684,312.184 354.684,312.35 359.5,313.5 Z"/></g>
<g><path style="opacity:0.057" fill="#d5d5d5" d="M 550.5,313.5 C 550.975,316.082 550.308,318.082 548.5,319.5C 548.595,317.214 549.262,315.214 550.5,313.5 Z"/></g>
<g><path style="opacity:0.071" fill="#cecece" d="M 548.5,319.5 C 548.696,323.606 547.363,326.939 544.5,329.5C 545.321,325.873 546.654,322.54 548.5,319.5 Z"/></g>
<g><path style="opacity:0.056" fill="#c9c9c9" d="M 544.5,330.5 C 544.466,334.223 543.133,337.223 540.5,339.5C 541.083,336.053 542.416,333.053 544.5,330.5 Z"/></g>
<g><path style="opacity:0.037" fill="#c7c7c7" d="M 540.5,339.5 C 540.843,341.483 540.176,342.817 538.5,343.5C 538.66,341.847 539.326,340.514 540.5,339.5 Z"/></g>
<g><path style="opacity:0.163" fill="#ececec" d="M 237.5,345.5 C 235.167,357.833 227.833,365.167 215.5,367.5C 217.7,365.383 220.367,363.716 223.5,362.5C 226.5,359.5 229.5,356.5 232.5,353.5C 233.716,350.367 235.383,347.7 237.5,345.5 Z"/></g>
<g><path style="opacity:0.163" fill="#ededed" d="M 323.5,345.5 C 325.617,347.7 327.284,350.367 328.5,353.5C 331.5,356.5 334.5,359.5 337.5,362.5C 340.633,363.716 343.3,365.383 345.5,367.5C 333.167,365.167 325.833,357.833 323.5,345.5 Z"/></g>
<g><path style="opacity:0.218" fill="#f4f4f4" d="M 201.5,313.5 C 195.625,318.368 189.958,323.701 184.5,329.5C 181.586,335.232 180.92,341.232 182.5,347.5C 186.086,353.091 190.42,358.091 195.5,362.5C 201.572,366.513 208.238,368.179 215.5,367.5C 195.065,370.094 183.065,361.094 179.5,340.5C 180.074,330.514 184.407,322.681 192.5,317C 195.309,315.259 198.309,314.092 201.5,313.5 Z"/></g>
<g><path style="opacity:0.218" fill="#f4f4f4" d="M 359.5,313.5 C 376.616,319.057 383.449,330.723 380,348.5C 373.466,364.157 361.966,370.49 345.5,367.5C 349.555,367.824 353.555,367.491 357.5,366.5C 364.983,363.024 371.316,358.024 376.5,351.5C 380.5,344.167 380.5,336.833 376.5,329.5C 371.042,323.701 365.375,318.368 359.5,313.5 Z"/></g>
<g><path style="opacity:0.085" fill="#dddddd" d="M 538.5,343.5 C 537.316,349.881 534.982,355.881 531.5,361.5C 530.735,362.612 529.735,363.279 528.5,363.5C 531.853,356.795 535.186,350.128 538.5,343.5 Z"/></g>
<g><path style="opacity:0.175" fill="#eeeeee" d="M 149.5,349.5 C 156.689,379.692 175.689,396.358 206.5,399.5C 178.393,399.442 159.727,386.109 150.5,359.5C 149.513,356.232 149.18,352.898 149.5,349.5 Z"/></g>
<g><path style="opacity:0.175" fill="#eeeeee" d="M 411.5,349.5 C 408.881,374.463 395.547,390.797 371.5,398.5C 365.872,399.495 360.206,399.829 354.5,399.5C 385.311,396.358 404.311,379.692 411.5,349.5 Z"/></g>
<g><path style="opacity:0.029" fill="#d5d5d5" d="M 528.5,363.5 C 528.843,365.483 528.176,366.817 526.5,367.5C 526.66,365.847 527.326,364.514 528.5,363.5 Z"/></g>
<g><path style="opacity:0.096" fill="#dfdfdf" d="M 526.5,367.5 C 524.216,373.401 521.383,379.068 518,384.5C 515.852,385.977 514.518,387.977 514,390.5C 512.27,392.076 510.437,393.41 508.5,394.5C 514.773,385.602 520.773,376.602 526.5,367.5 Z"/></g>
<g><path style="opacity:0.136" fill="#eaeaea" d="M 214.5,281.5 C 250.728,284.397 269.061,304.063 269.5,340.5C 270.594,353.217 267.594,364.884 260.5,375.5C 255.5,380.5 250.5,385.5 245.5,390.5C 235.177,397.387 223.843,400.387 211.5,399.5C 218.269,399.094 224.935,397.594 231.5,395C 250.59,386.327 262.756,371.827 268,351.5C 271.059,312.073 253.226,288.739 214.5,281.5 Z"/></g>
<g><path style="opacity:0.136" fill="#e9e9e9" d="M 346.5,281.5 C 342.637,282.327 338.637,283.161 334.5,284C 307.622,293.119 293.622,311.785 292.5,340C 295.339,375.338 314.339,395.172 349.5,399.5C 337.157,400.387 325.823,397.387 315.5,390.5C 293.917,373.087 286.25,350.754 292.5,323.5C 298.167,301.833 311.833,288.167 333.5,282.5C 337.783,281.508 342.116,281.174 346.5,281.5 Z"/></g>
<g><path style="opacity:0.108" fill="#d6d6d6" d="M 508.5,394.5 C 507.34,398.998 504.674,402.331 500.5,404.5C 502.817,400.854 505.484,397.52 508.5,394.5 Z"/></g>
<g><path style="opacity:0.253" fill="#f8f8f8" d="M 59.5,398.5 C 65.1357,404.977 70.6357,411.644 76,418.5C 82.0362,424.369 87.8695,430.369 93.5,436.5C 92.0222,436.762 90.6888,436.429 89.5,435.5C 83.0919,429.762 77.4252,423.429 72.5,416.5C 69.8333,413.833 67.1667,411.167 64.5,408.5C 62.311,405.344 60.6443,402.011 59.5,398.5 Z"/></g>
<g><path style="opacity:0.108" fill="#dcdcdc" d="M 500.5,404.5 C 500.762,405.978 500.429,407.311 499.5,408.5C 494.761,413.577 489.761,418.244 484.5,422.5C 489.468,416.197 494.802,410.197 500.5,404.5 Z"/></g>
<g><path style="opacity:0.11" fill="#fefffe" d="M 484.5,422.5 C 484.5,423.833 483.833,424.5 482.5,424.5C 482.833,423.5 483.5,422.833 484.5,422.5 Z"/></g>
<g><path style="opacity:0.11" fill="#fefffe" d="M 482.5,424.5 C 482.5,425.833 481.833,426.5 480.5,426.5C 480.833,425.5 481.5,424.833 482.5,424.5 Z"/></g>
<g><path style="opacity:0.11" fill="#fefffe" d="M 480.5,426.5 C 480.5,427.833 479.833,428.5 478.5,428.5C 478.833,427.5 479.5,426.833 480.5,426.5 Z"/></g>
<g><path style="opacity:0.11" fill="#fefffe" d="M 478.5,428.5 C 478.5,429.833 477.833,430.5 476.5,430.5C 476.833,429.5 477.5,428.833 478.5,428.5 Z"/></g>
<g><path style="opacity:0.169" fill="#e5e5e5" d="M 476.5,430.5 C 472.244,435.761 467.577,440.761 462.5,445.5C 461.311,446.429 459.978,446.762 458.5,446.5C 464.197,440.802 470.197,435.468 476.5,430.5 Z"/></g>
<g><path style="opacity:0.132" fill="#e4e4e4" d="M 458.5,446.5 C 456.331,450.674 452.998,453.34 448.5,454.5C 451.52,451.484 454.854,448.817 458.5,446.5 Z"/></g>
<g><path style="opacity:0.186" fill="#eaeaea" d="M 93.5,436.5 C 103.889,444.892 114.556,452.892 125.5,460.5C 120.32,459.243 115.653,456.91 111.5,453.5C 104.5,448.832 98.4999,443.165 93.5,436.5 Z"/></g>
<g><path style="opacity:0.114" fill="#e1e1e1" d="M 448.5,454.5 C 446.975,458.025 444.309,460.025 440.5,460.5C 442.86,458.147 445.527,456.147 448.5,454.5 Z"/></g>
<g><path style="opacity:0.135" fill="#eaeaea" d="M 125.5,460.5 C 127.795,461.475 129.795,462.808 131.5,464.5C 128.446,464.646 126.446,463.313 125.5,460.5 Z"/></g>
<g><path style="opacity:0.115" fill="#dddddd" d="M 440.5,460.5 C 439.554,463.313 437.554,464.646 434.5,464.5C 436.205,462.808 438.205,461.475 440.5,460.5 Z"/></g>
<g><path style="opacity:0.171" fill="#e3e3e3" d="M 131.5,464.5 C 133.853,465.34 135.853,466.674 137.5,468.5C 134.446,468.646 132.446,467.313 131.5,464.5 Z"/></g>
<g><path style="opacity:0.115" fill="#e0e0e0" d="M 434.5,464.5 C 433.554,467.313 431.554,468.646 428.5,468.5C 430.205,466.808 432.205,465.475 434.5,464.5 Z"/></g>
<g><path style="opacity:0.156" fill="#dbdbdb" d="M 137.5,468.5 C 139.153,468.66 140.486,469.326 141.5,470.5C 139.517,470.843 138.183,470.176 137.5,468.5 Z"/></g>
<g><path style="opacity:0.133" fill="#e1e1e1" d="M 428.5,468.5 C 427.554,471.313 425.554,472.646 422.5,472.5C 424.205,470.808 426.205,469.475 428.5,468.5 Z"/></g>
<g><path style="opacity:0.143" fill="#e3e3e3" d="M 422.5,472.5 C 422.179,474.048 421.179,474.715 419.5,474.5C 420.29,473.599 421.29,472.932 422.5,472.5 Z"/></g>
<g><path style="opacity:0.224" fill="#e5e5e5" d="M 141.5,470.5 C 146.5,472.664 151.167,475.331 155.5,478.5C 151.314,477.411 147.314,475.744 143.5,473.5C 142.388,472.735 141.721,471.735 141.5,470.5 Z"/></g>
<g><path style="opacity:0.134" fill="#dfdfdf" d="M 418.5,474.5 C 417.554,477.313 415.554,478.646 412.5,478.5C 414.205,476.808 416.205,475.475 418.5,474.5 Z"/></g>
<g><path style="opacity:0.175" fill="#eaeaea" d="M 155.5,478.5 C 157.153,478.66 158.486,479.326 159.5,480.5C 157.517,480.843 156.183,480.176 155.5,478.5 Z"/></g>
<g><path style="opacity:0.141" fill="#dcdcdc" d="M 412.5,478.5 C 411.817,480.176 410.483,480.843 408.5,480.5C 409.514,479.326 410.847,478.66 412.5,478.5 Z"/></g>
<g><path style="opacity:0.141" fill="#cfcfcf" d="M 408.5,480.5 C 407.817,482.176 406.483,482.843 404.5,482.5C 405.671,481.655 407.005,480.989 408.5,480.5 Z"/></g>
<g><path style="opacity:0.175" fill="#e1e1e1" d="M 159.5,480.5 C 162.912,481.075 165.912,482.408 168.5,484.5C 164.777,484.466 161.777,483.133 159.5,480.5 Z"/></g>
<g><path style="opacity:0.143" fill="#d0d0d0" d="M 404.5,482.5 C 403.817,484.176 402.483,484.843 400.5,484.5C 401.671,483.655 403.005,482.989 404.5,482.5 Z"/></g>
<g><path style="opacity:0.147" fill="#ececec" d="M 169.5,484.5 C 171.773,484.957 173.106,486.29 173.5,488.5C 171.5,487.833 170.167,486.5 169.5,484.5 Z"/></g>
<g><path style="opacity:0.143" fill="#d0d0d0" d="M 400.5,484.5 C 399.817,486.176 398.483,486.843 396.5,486.5C 397.671,485.655 399.005,484.989 400.5,484.5 Z"/></g>
<g><path style="opacity:0.145" fill="#d4d4d4" d="M 396.5,486.5 C 395.817,488.176 394.483,488.843 392.5,488.5C 393.671,487.655 395.005,486.989 396.5,486.5 Z"/></g>
<g><path style="opacity:0.19" fill="#f1f1f1" d="M 173.5,498.5 C 159.66,499.368 145.66,500.201 131.5,501C 113.66,503.169 96.6602,508.169 80.5,516C 35.8955,541.007 9.39549,578.841 1,629.5C -4.0862,693.324 20.0805,742.324 73.5,776.5C 69.3136,775.411 65.3136,773.744 61.5,771.5C 39.029,754.87 22.029,733.87 10.5,708.5C 6.16471,696.438 2.49805,684.438 -0.5,672.5C -0.5,655.833 -0.5,639.167 -0.5,622.5C 3.57608,604.629 9.90941,587.296 18.5,570.5C 43.425,529.525 79.7583,505.858 127.5,499.5C 142.819,498.501 158.152,498.167 173.5,498.5 Z"/></g>
<g><path style="opacity:0.157" fill="#f1f1f1" d="M 392.5,488.5 C 391.934,490.078 390.934,491.412 389.5,492.5C 388.534,494.396 388.201,496.396 388.5,498.5C 423.094,495.219 455.761,501.552 486.5,517.5C 512.475,533.474 532.142,555.14 545.5,582.5C 546.466,584.396 546.799,586.396 546.5,588.5C 536.635,567.662 522.968,549.495 505.5,534C 470.821,507.322 431.487,495.822 387.5,499.5C 387.335,496.482 387.502,493.482 388,490.5C 389.33,489.418 390.83,488.751 392.5,488.5 Z"/></g>
<g><path style="opacity:0.08" fill="#b4b4b4" d="M 422.5,540.5 C 424.306,541.024 425.972,541.691 427.5,542.5C 425.219,542.923 423.552,542.256 422.5,540.5 Z"/></g>
<g><path style="opacity:0.129" fill="#c5c5c5" d="M 125.5,542.5 C 124.448,544.256 122.781,544.923 120.5,544.5C 122.028,543.691 123.694,543.024 125.5,542.5 Z"/></g>
<g><path style="opacity:0.12" fill="#bfbfbf" d="M 432.5,542.5 C 434.626,543.048 436.626,543.715 438.5,544.5C 435.918,544.975 433.918,544.308 432.5,542.5 Z"/></g>
<g><path style="opacity:0.125" fill="#dcdcdc" d="M 438.5,544.5 C 440.698,544.875 442.698,545.542 444.5,546.5C 441.918,546.975 439.918,546.308 438.5,544.5 Z"/></g>
<g><path style="opacity:0.12" fill="#d1d1d1" d="M 119.5,544.5 C 118.448,546.256 116.781,546.923 114.5,546.5C 115.93,545.463 117.597,544.796 119.5,544.5 Z"/></g>
<g><path style="opacity:0.128" fill="#e2e2e2" d="M 113.5,546.5 C 111.223,549.133 108.223,550.466 104.5,550.5C 107.088,548.408 110.088,547.075 113.5,546.5 Z"/></g>
<g><path style="opacity:0.168" fill="#eaeaea" d="M 444.5,546.5 C 448.149,547.267 451.482,548.6 454.5,550.5C 450.394,550.696 447.061,549.363 444.5,546.5 Z"/></g>
<g><path style="opacity:0.082" fill="#cfcfcf" d="M 103.5,550.5 C 102.817,552.176 101.483,552.843 99.5,552.5C 100.514,551.326 101.847,550.66 103.5,550.5 Z"/></g>
<g><path style="opacity:0.125" fill="#e7e7e7" d="M 99.5,552.5 C 99.2786,553.735 98.6119,554.735 97.5,555.5C 92.7271,557.886 88.0604,560.22 83.5,562.5C 88.425,558.622 93.7583,555.289 99.5,552.5 Z"/></g>
<g><path style="opacity:1" fill="#2905f9" d="M 476.5,621.5 C 476.5,621.833 476.5,622.167 476.5,622.5C 476.802,625.373 477.469,628.039 478.5,630.5C 478.5,640.167 478.5,649.833 478.5,659.5C 477.593,661.657 476.927,663.99 476.5,666.5C 476.5,667.167 476.5,667.833 476.5,668.5C 475.542,670.302 474.875,672.302 474.5,674.5C 473.655,675.671 472.989,677.005 472.5,678.5C 472.5,678.833 472.5,679.167 472.5,679.5C 471.463,680.93 470.796,682.597 470.5,684.5C 468.808,686.205 467.475,688.205 466.5,690.5C 466.5,690.833 466.5,691.167 466.5,691.5C 465.094,691.973 464.427,692.973 464.5,694.5C 462.122,696.878 460.122,699.545 458.5,702.5C 457.5,702.833 456.833,703.5 456.5,704.5C 455.5,704.833 454.833,705.5 454.5,706.5C 453.5,706.833 452.833,707.5 452.5,708.5C 451.5,708.833 450.833,709.5 450.5,710.5C 447.545,712.122 444.878,714.122 442.5,716.5C 440.205,717.475 438.205,718.808 436.5,720.5C 434.847,720.66 433.514,721.326 432.5,722.5C 430.847,722.66 429.514,723.326 428.5,724.5C 426.597,724.796 424.93,725.463 423.5,726.5C 423.167,726.5 422.833,726.5 422.5,726.5C 420.694,727.024 419.028,727.691 417.5,728.5C 417.167,728.5 416.833,728.5 416.5,728.5C 413.99,728.927 411.657,729.593 409.5,730.5C 399.167,730.5 388.833,730.5 378.5,730.5C 376.039,729.469 373.373,728.802 370.5,728.5C 331.633,714.609 310.967,686.943 308.5,645.5C 311.535,597.631 336.535,568.797 383.5,559C 430.05,557.098 461.05,577.931 476.5,621.5 Z M 447.5,655.5 C 443.925,662.65 440.259,669.983 436.5,677.5C 432.833,681.167 429.167,684.833 425.5,688.5C 418.966,692.757 412.299,696.424 405.5,699.5C 398.167,699.5 390.833,699.5 383.5,699.5C 377.684,696.592 371.684,693.592 365.5,690.5C 360.5,685.5 355.5,680.5 350.5,675.5C 347.952,669.718 344.952,664.384 341.5,659.5C 341.168,650.143 341.502,640.81 342.5,631.5C 343.949,626.601 345.949,621.935 348.5,617.5C 354.833,611.167 361.167,604.833 367.5,598.5C 394.465,585.241 417.465,590.241 436.5,613.5C 445.257,626.114 448.924,640.114 447.5,655.5 Z"/></g>
<g><path style="opacity:1" fill="#2804fa" d="M 207.5,722.5 C 205.847,722.66 204.514,723.326 203.5,724.5C 201.847,724.66 200.514,725.326 199.5,726.5C 195.873,727.321 192.54,728.654 189.5,730.5C 186.273,730.676 183.273,731.343 180.5,732.5C 169.833,732.5 159.167,732.5 148.5,732.5C 146.401,731.388 144.067,730.721 141.5,730.5C 141.167,730.5 140.833,730.5 140.5,730.5C 139.07,729.463 137.403,728.796 135.5,728.5C 135.167,728.5 134.833,728.5 134.5,728.5C 133.22,727.069 131.553,726.402 129.5,726.5C 128.486,725.326 127.153,724.66 125.5,724.5C 107.595,713.931 94.2619,699.265 85.5,680.5C 82.8415,671.874 80.8415,663.207 79.5,654.5C 79.5,649.833 79.5,645.167 79.5,640.5C 82.7849,610.77 97.1182,587.937 122.5,572C 161.578,552.817 196.744,558.317 228,588.5C 252.844,619.256 256.844,652.59 240,688.5C 232.023,702.642 221.19,713.975 207.5,722.5 Z M 151.5,593.5 C 160.192,593.169 168.859,593.502 177.5,594.5C 182.399,595.949 187.065,597.949 191.5,600.5C 197.167,606.167 202.833,611.833 208.5,617.5C 211.921,622.412 214.588,627.746 216.5,633.5C 217.498,642.81 217.832,652.143 217.5,661.5C 214.048,666.384 211.048,671.718 208.5,677.5C 203.5,682.5 198.5,687.5 193.5,692.5C 181.278,700.312 167.945,703.312 153.5,701.5C 135.047,694.717 122.047,682.051 114.5,663.5C 109.035,646.154 111.702,630.154 122.5,615.5C 126.833,611.167 131.167,606.833 135.5,602.5C 141.282,599.952 146.616,596.952 151.5,593.5 Z"/></g>
<g><path style="opacity:0.175" fill="#f1f1f1" d="M 476.5,621.5 C 461.05,577.931 430.05,557.098 383.5,559C 336.535,568.797 311.535,597.631 308.5,645.5C 310.967,686.943 331.633,714.609 370.5,728.5C 368.143,728.663 365.81,728.497 363.5,728C 354.833,723.333 346.167,718.667 337.5,714C 312.672,690.49 303.006,661.657 308.5,627.5C 316.627,590.706 338.96,567.706 375.5,558.5C 414.574,552.564 445.408,565.564 468,597.5C 469.623,601.71 471.623,605.71 474,609.5C 475.617,613.306 476.45,617.306 476.5,621.5 Z"/></g>
<g><path style="opacity:0.171" fill="#f1f1f1" d="M 207.5,722.5 C 221.19,713.975 232.023,702.642 240,688.5C 256.844,652.59 252.844,619.256 228,588.5C 196.744,558.317 161.578,552.817 122.5,572C 97.1182,587.937 82.7849,610.77 79.5,640.5C 79.2743,623.177 84.2743,607.51 94.5,593.5C 102.987,583.671 112.654,575.337 123.5,568.5C 154.127,555.517 184.127,556.851 213.5,572.5C 238.994,590.653 251.661,615.486 251.5,647C 251.273,674.203 241.273,697.036 221.5,715.5C 217.347,718.91 212.68,721.243 207.5,722.5 Z"/></g>
<g><path style="opacity:0.111" fill="#eeeeee" d="M 83.5,562.5 C 77.5,569.833 70.8333,576.5 63.5,582.5C 69.1456,574.854 75.8122,568.188 83.5,562.5 Z"/></g>
<g><path style="opacity:0.169" fill="#f0f0f0" d="M 447.5,655.5 C 448.924,640.114 445.257,626.114 436.5,613.5C 417.465,590.241 394.465,585.241 367.5,598.5C 361.167,604.833 354.833,611.167 348.5,617.5C 345.949,621.935 343.949,626.601 342.5,631.5C 341.502,640.81 341.168,650.143 341.5,659.5C 335.057,625.742 348.057,602.908 380.5,591C 415.596,586.115 438.096,600.615 448,634.5C 448.821,641.679 448.655,648.679 447.5,655.5 Z"/></g>
<g><path style="opacity:0.125" fill="#e7e7e7" d="M 63.5,582.5 C 63.762,583.978 63.4287,585.311 62.5,586.5C 58.4406,593.517 54.1073,600.184 49.5,606.5C 52.6377,597.551 57.3043,589.551 63.5,582.5 Z"/></g>
<g><path style="opacity:0.081" fill="#d9d9d9" d="M 546.5,588.5 C 549.363,591.061 550.696,594.394 550.5,598.5C 548.654,595.46 547.321,592.127 546.5,588.5 Z"/></g>
<g><path style="opacity:0.199" fill="#f3f3f3" d="M 217.5,661.5 C 217.832,652.143 217.498,642.81 216.5,633.5C 214.588,627.746 211.921,622.412 208.5,617.5C 202.833,611.833 197.167,606.167 191.5,600.5C 187.065,597.949 182.399,595.949 177.5,594.5C 168.859,593.502 160.192,593.169 151.5,593.5C 184.283,587.986 206.45,600.986 218,632.5C 220.146,642.359 219.979,652.025 217.5,661.5 Z"/></g>
<g><path style="opacity:0.113" fill="#d8d8d8" d="M 550.5,598.5 C 551.943,599.335 552.943,600.668 553.5,602.5C 554.484,605.428 554.817,608.428 554.5,611.5C 553.198,607.255 551.865,602.922 550.5,598.5 Z"/></g>
<g><path style="opacity:0.086" fill="#cccccc" d="M 554.5,612.5 C 556.344,614.279 557.01,616.612 556.5,619.5C 555.593,617.343 554.927,615.01 554.5,612.5 Z"/></g>
<g><path style="opacity:0.129" fill="#e8e8e8" d="M 49.5,606.5 C 49.126,610.629 48.126,614.629 46.5,618.5C 45.9432,620.332 44.9432,621.665 43.5,622.5C 44.9325,616.859 46.9325,611.525 49.5,606.5 Z"/></g>
<g><path style="opacity:0.139" fill="#cecece" d="M 476.5,622.5 C 477.117,622.611 477.617,622.944 478,623.5C 478.497,625.81 478.663,628.143 478.5,630.5C 477.469,628.039 476.802,625.373 476.5,622.5 Z"/></g>
<g><path style="opacity:0.088" fill="#b8b8b8" d="M 556.5,624.5 C 558.402,627.337 559.069,630.671 558.5,634.5C 557.677,631.316 557.01,627.983 556.5,624.5 Z"/></g>
<g><path style="opacity:0.114" fill="#dcdcdc" d="M 43.5,623.5 C 44.0803,627.649 43.4136,631.316 41.5,634.5C 41.8084,630.64 42.4751,626.974 43.5,623.5 Z"/></g>
<g><path style="opacity:0.281" fill="#f6f6f6" d="M 454.5,550.5 C 489.521,566.815 510.354,594.149 517,632.5C 521.494,676.662 505.994,711.829 470.5,738C 455.755,747.027 439.755,752.694 422.5,755C 326.833,755.667 231.167,755.667 135.5,755C 82.4278,745.594 50.9278,714.428 41,661.5C 40.176,652.324 40.3427,643.324 41.5,634.5C 39.8841,660.644 46.2174,684.644 60.5,706.5C 64.2433,710.988 67.7433,715.654 71,720.5C 89.947,737.723 112.114,748.723 137.5,753.5C 231.833,754.833 326.167,754.833 420.5,753.5C 446.35,748.154 469.183,737.154 489,720.5C 490.547,715.077 493.38,710.411 497.5,706.5C 527.823,652.777 520.156,605.11 474.5,563.5C 467.362,559.617 460.696,555.283 454.5,550.5 Z"/></g>
<g><path style="opacity:0.172" fill="#f0f0f0" d="M 341.5,659.5 C 344.952,664.384 347.952,669.718 350.5,675.5C 355.5,680.5 360.5,685.5 365.5,690.5C 371.684,693.592 377.684,696.592 383.5,699.5C 361.346,694.678 347.346,681.345 341.5,659.5 Z"/></g>
<g><path style="opacity:0.161" fill="#bcbcbc" d="M 478.5,659.5 C 479.01,662.388 478.344,664.721 476.5,666.5C 476.927,663.99 477.593,661.657 478.5,659.5 Z"/></g>
<g><path style="opacity:0.075" fill="#c1c1c1" d="M 558.5,662.5 C 559.036,665.698 558.369,668.365 556.5,670.5C 557.078,667.72 557.745,665.053 558.5,662.5 Z"/></g>
<g><path style="opacity:0.199" fill="#ebebeb" d="M 79.5,654.5 C 80.8415,663.207 82.8415,671.874 85.5,680.5C 84.0568,679.665 83.0568,678.332 82.5,676.5C 80.2848,669.327 79.2848,661.994 79.5,654.5 Z"/></g>
<g><path style="opacity:0.119" fill="#dddddd" d="M 476.5,668.5 C 476.975,671.082 476.308,673.082 474.5,674.5C 474.875,672.302 475.542,670.302 476.5,668.5 Z"/></g>
<g><path style="opacity:0.096" fill="#c5c5c5" d="M 474.5,674.5 C 474.843,676.483 474.176,677.817 472.5,678.5C 472.989,677.005 473.655,675.671 474.5,674.5 Z"/></g>
<g><path style="opacity:0.113" fill="#ebebeb" d="M 447.5,655.5 C 442.722,678.945 428.722,693.612 405.5,699.5C 412.299,696.424 418.966,692.757 425.5,688.5C 429.167,684.833 432.833,681.167 436.5,677.5C 440.259,669.983 443.925,662.65 447.5,655.5 Z"/></g>
<g><path style="opacity:0.132" fill="#efefef" d="M 151.5,593.5 C 146.616,596.952 141.282,599.952 135.5,602.5C 131.167,606.833 126.833,611.167 122.5,615.5C 111.702,630.154 109.035,646.154 114.5,663.5C 122.047,682.051 135.047,694.717 153.5,701.5C 125.869,694.193 111.536,676.193 110.5,647.5C 111.363,619.652 125.03,601.652 151.5,593.5 Z"/></g>
<g><path style="opacity:0.125" fill="#bdbdbd" d="M 556.5,676.5 C 556.975,679.082 556.308,681.082 554.5,682.5C 555.048,680.374 555.715,678.374 556.5,676.5 Z"/></g>
<g><path style="opacity:0.121" fill="#dbdbdb" d="M 472.5,679.5 C 472.923,681.781 472.256,683.448 470.5,684.5C 470.796,682.597 471.463,680.93 472.5,679.5 Z"/></g>
<g><path style="opacity:0.075" fill="#c6c6c6" d="M 554.5,685.5 C 554.923,687.781 554.256,689.448 552.5,690.5C 553.024,688.694 553.691,687.028 554.5,685.5 Z"/></g>
<g><path style="opacity:0.051" fill="#cfcfcf" d="M 470.5,684.5 C 470.646,687.554 469.313,689.554 466.5,690.5C 467.475,688.205 468.808,686.205 470.5,684.5 Z"/></g>
<g><path style="opacity:0.169" fill="#f1f1f1" d="M 217.5,661.5 C 211.658,682.842 197.991,696.342 176.5,702C 168.655,702.822 160.989,702.656 153.5,701.5C 167.945,703.312 181.278,700.312 193.5,692.5C 198.5,687.5 203.5,682.5 208.5,677.5C 211.048,671.718 214.048,666.384 217.5,661.5 Z"/></g>
<g><path style="opacity:0.129" fill="#cacaca" d="M 466.5,691.5 C 466.715,693.179 466.048,694.179 464.5,694.5C 464.427,692.973 465.094,691.973 466.5,691.5 Z"/></g>
<g><path style="opacity:0.073" fill="#bfbfbf" d="M 552.5,691.5 C 552.923,693.781 552.256,695.448 550.5,696.5C 551.024,694.694 551.691,693.028 552.5,691.5 Z"/></g>
<g><path style="opacity:0.08" fill="#dadada" d="M 464.5,694.5 C 464.025,698.309 462.025,700.975 458.5,702.5C 460.122,699.545 462.122,696.878 464.5,694.5 Z"/></g>
<g><path style="opacity:0.073" fill="#c9c9c9" d="M 550.5,697.5 C 550.923,699.781 550.256,701.448 548.5,702.5C 548.796,700.597 549.463,698.93 550.5,697.5 Z"/></g>
<g><path style="opacity:0.039" fill="#ebebeb" d="M 458.5,702.5 C 458.5,703.833 457.833,704.5 456.5,704.5C 456.833,703.5 457.5,702.833 458.5,702.5 Z"/></g>
<g><path style="opacity:0.039" fill="#dcdcdc" d="M 456.5,704.5 C 456.5,705.833 455.833,706.5 454.5,706.5C 454.833,705.5 455.5,704.833 456.5,704.5 Z"/></g>
<g><path style="opacity:0.039" fill="#b6b6b6" d="M 548.5,702.5 C 548.843,704.483 548.176,705.817 546.5,706.5C 546.989,705.005 547.655,703.671 548.5,702.5 Z"/></g>
<g><path style="opacity:0.039" fill="#d9d9d9" d="M 454.5,706.5 C 454.5,707.833 453.833,708.5 452.5,708.5C 452.833,707.5 453.5,706.833 454.5,706.5 Z"/></g>
<g><path style="opacity:0.039" fill="#e6e6e6" d="M 452.5,708.5 C 452.5,709.833 451.833,710.5 450.5,710.5C 450.833,709.5 451.5,708.833 452.5,708.5 Z"/></g>
<g><path style="opacity:0.039" fill="#b3b3b3" d="M 546.5,707.5 C 546.715,709.179 546.048,710.179 544.5,710.5C 544.932,709.29 545.599,708.29 546.5,707.5 Z"/></g>
<g><path style="opacity:0.081" fill="#dadada" d="M 450.5,710.5 C 448.975,714.025 446.309,716.025 442.5,716.5C 444.878,714.122 447.545,712.122 450.5,710.5 Z"/></g>
<g><path style="opacity:0.136" fill="#e7e7e7" d="M 85.5,680.5 C 94.2619,699.265 107.595,713.931 125.5,724.5C 120.32,723.243 115.653,720.91 111.5,717.5C 105.833,711.833 100.167,706.167 94.5,700.5C 91.3276,696.159 88.6609,691.492 86.5,686.5C 85.5344,684.604 85.2011,682.604 85.5,680.5 Z"/></g>
<g><path style="opacity:0.073" fill="#c9c9c9" d="M 544.5,711.5 C 544.923,713.781 544.256,715.448 542.5,716.5C 542.796,714.597 543.463,712.93 544.5,711.5 Z"/></g>
<g><path style="opacity:0.093" fill="#e3e3e3" d="M 442.5,716.5 C 441.554,719.313 439.554,720.646 436.5,720.5C 438.205,718.808 440.205,717.475 442.5,716.5 Z"/></g>
<g><path style="opacity:0.086" fill="#d9d9d9" d="M 542.5,716.5 C 542.843,718.483 542.176,719.817 540.5,720.5C 540.66,718.847 541.326,717.514 542.5,716.5 Z"/></g>
<g><path style="opacity:0.092" fill="#e0e0e0" d="M 436.5,720.5 C 435.817,722.176 434.483,722.843 432.5,722.5C 433.514,721.326 434.847,720.66 436.5,720.5 Z"/></g>
<g><path style="opacity:0.038" fill="#d3d3d3" d="M 207.5,722.5 C 206.817,724.176 205.483,724.843 203.5,724.5C 204.514,723.326 205.847,722.66 207.5,722.5 Z"/></g>
<g><path style="opacity:0.092" fill="#dcdcdc" d="M 432.5,722.5 C 431.817,724.176 430.483,724.843 428.5,724.5C 429.514,723.326 430.847,722.66 432.5,722.5 Z"/></g>
<g><path style="opacity:0.12" fill="#ebebeb" d="M 125.5,724.5 C 127.153,724.66 128.486,725.326 129.5,726.5C 127.517,726.843 126.183,726.176 125.5,724.5 Z"/></g>
<g><path style="opacity:0.049" fill="#d6d6d6" d="M 203.5,724.5 C 202.817,726.176 201.483,726.843 199.5,726.5C 200.514,725.326 201.847,724.66 203.5,724.5 Z"/></g>
<g><path style="opacity:0.111" fill="#dfdfdf" d="M 428.5,724.5 C 427.448,726.256 425.781,726.923 423.5,726.5C 424.93,725.463 426.597,724.796 428.5,724.5 Z"/></g>
<g><path style="opacity:0.039" fill="#d3d3d3" d="M 540.5,720.5 C 540.646,723.554 539.313,725.554 536.5,726.5C 537.351,724.118 538.684,722.118 540.5,720.5 Z"/></g>
<g><path style="opacity:0.125" fill="#dedede" d="M 129.5,726.5 C 131.553,726.402 133.22,727.069 134.5,728.5C 132.219,728.923 130.552,728.256 129.5,726.5 Z"/></g>
<g><path style="opacity:0.092" fill="#d1d1d1" d="M 422.5,726.5 C 421.448,728.256 419.781,728.923 417.5,728.5C 419.028,727.691 420.694,727.024 422.5,726.5 Z"/></g>
<g><path style="opacity:0.083" fill="#e4e4e4" d="M 199.5,726.5 C 196.939,729.363 193.606,730.696 189.5,730.5C 192.54,728.654 195.873,727.321 199.5,726.5 Z"/></g>
<g><path style="opacity:0.075" fill="#c9c9c9" d="M 536.5,726.5 C 536.843,728.483 536.176,729.817 534.5,730.5C 534.66,728.847 535.326,727.514 536.5,726.5 Z"/></g>
<g><path style="opacity:0.108" fill="#d4d4d4" d="M 135.5,728.5 C 137.403,728.796 139.07,729.463 140.5,730.5C 138.219,730.923 136.552,730.256 135.5,728.5 Z"/></g>
<g><path style="opacity:0.133" fill="#d4d4d4" d="M 370.5,728.5 C 373.373,728.802 376.039,729.469 378.5,730.5C 376.143,730.663 373.81,730.497 371.5,730C 370.944,729.617 370.611,729.117 370.5,728.5 Z"/></g>
<g><path style="opacity:0.118" fill="#d4d4d4" d="M 416.5,728.5 C 414.721,730.344 412.388,731.01 409.5,730.5C 411.657,729.593 413.99,728.927 416.5,728.5 Z"/></g>
<g><path style="opacity:0.118" fill="#d0d0d0" d="M 141.5,730.5 C 144.067,730.721 146.401,731.388 148.5,732.5C 145.612,733.01 143.279,732.344 141.5,730.5 Z"/></g>
<g><path style="opacity:0.227" fill="#cacaca" d="M 189.5,730.5 C 186.877,732.265 183.877,732.932 180.5,732.5C 183.273,731.343 186.273,730.676 189.5,730.5 Z"/></g>
<g><path style="opacity:0.065" fill="#dedede" d="M 534.5,730.5 C 534.025,734.309 532.025,736.975 528.5,738.5C 530.147,735.527 532.147,732.86 534.5,730.5 Z"/></g>
<g><path style="opacity:0.065" fill="#dfdfdf" d="M 528.5,738.5 C 528.762,739.978 528.429,741.311 527.5,742.5C 524.092,746.247 520.426,749.58 516.5,752.5C 520.155,747.514 524.155,742.847 528.5,738.5 Z"/></g>
<g><path style="opacity:0.067" fill="#fefffe" d="M 516.5,752.5 C 516.5,753.833 515.833,754.5 514.5,754.5C 514.833,753.5 515.5,752.833 516.5,752.5 Z"/></g>
<g><path style="opacity:0.067" fill="#e1e1e1" d="M 514.5,754.5 C 511.58,758.426 508.247,762.092 504.5,765.5C 503.311,766.429 501.978,766.762 500.5,766.5C 504.847,762.155 509.514,758.155 514.5,754.5 Z"/></g>
<g><path style="opacity:0.065" fill="#e6e6e6" d="M 500.5,766.5 C 498.975,770.025 496.309,772.025 492.5,772.5C 494.878,770.122 497.545,768.122 500.5,766.5 Z"/></g>
<g><path style="opacity:0.076" fill="#dfdfdf" d="M 492.5,772.5 C 491.817,774.176 490.483,774.843 488.5,774.5C 489.514,773.326 490.847,772.66 492.5,772.5 Z"/></g>
<g><path style="opacity:0.076" fill="#cacaca" d="M 488.5,774.5 C 487.817,776.176 486.483,776.843 484.5,776.5C 485.671,775.655 487.005,774.989 488.5,774.5 Z"/></g>
<g><path style="opacity:0.11" fill="#e7e7e7" d="M 73.5,776.5 C 76.0041,777.584 78.3374,778.917 80.5,780.5C 77.0771,780.876 74.7438,779.543 73.5,776.5 Z"/></g>
<g><path style="opacity:0.076" fill="#d1d1d1" d="M 484.5,776.5 C 483.256,779.543 480.923,780.876 477.5,780.5C 479.791,779.235 482.125,777.902 484.5,776.5 Z"/></g>
<g><path style="opacity:0.075" fill="#b8b8b8" d="M 81.5,780.5 C 83.153,780.66 84.4863,781.326 85.5,782.5C 83.5168,782.843 82.1834,782.176 81.5,780.5 Z"/></g>
<g><path style="opacity:0.043" fill="#bababa" d="M 476.5,780.5 C 476.179,782.048 475.179,782.715 473.5,782.5C 474.29,781.599 475.29,780.932 476.5,780.5 Z"/></g>
<g><path style="opacity:0.075" fill="#d0d0d0" d="M 85.5,782.5 C 87.153,782.66 88.4863,783.326 89.5,784.5C 87.5168,784.843 86.1834,784.176 85.5,782.5 Z"/></g>
<g><path style="opacity:0.043" fill="#bebebe" d="M 472.5,782.5 C 471.817,784.176 470.483,784.843 468.5,784.5C 469.671,783.655 471.005,782.989 472.5,782.5 Z"/></g>
<g><path style="opacity:0.094" fill="#d1d1d1" d="M 89.5,784.5 C 91.403,784.796 93.0697,785.463 94.5,786.5C 92.2188,786.923 90.5521,786.256 89.5,784.5 Z"/></g>
<g><path style="opacity:0.076" fill="#cacaca" d="M 468.5,784.5 C 467.817,786.176 466.483,786.843 464.5,786.5C 465.514,785.326 466.847,784.66 468.5,784.5 Z"/></g>
<g><path style="opacity:0.076" fill="#cfcfcf" d="M 95.5,786.5 C 96.9952,786.989 98.3285,787.655 99.5,788.5C 97.5168,788.843 96.1834,788.176 95.5,786.5 Z"/></g>
<g><path style="opacity:0.043" fill="#b6b6b6" d="M 462.5,786.5 C 461.817,788.176 460.483,788.843 458.5,788.5C 459.671,787.655 461.005,786.989 462.5,786.5 Z"/></g>
<g><path style="opacity:0.108" fill="#d2d2d2" d="M 99.5,788.5 C 101.786,788.595 103.786,789.262 105.5,790.5C 102.918,790.975 100.918,790.308 99.5,788.5 Z"/></g>
<g><path style="opacity:0.043" fill="#a1a1a1" d="M 456.5,788.5 C 455.817,790.176 454.483,790.843 452.5,790.5C 453.671,789.655 455.005,788.989 456.5,788.5 Z"/></g>
<g><path style="opacity:0.075" fill="#b6b6b6" d="M 107.5,790.5 C 109.626,791.048 111.626,791.715 113.5,792.5C 110.918,792.975 108.918,792.308 107.5,790.5 Z"/></g>
<g><path style="opacity:0.075" fill="#b8b8b8" d="M 450.5,790.5 C 449.448,792.256 447.781,792.923 445.5,792.5C 447.028,791.691 448.694,791.024 450.5,790.5 Z"/></g>
<g><path style="opacity:0.093" fill="#bdbdbd" d="M 115.5,792.5 C 117.952,793.065 120.285,793.732 122.5,794.5C 119.612,795.01 117.279,794.344 115.5,792.5 Z"/></g>
<g><path style="opacity:0.125" fill="#b3b3b3" d="M 442.5,792.5 C 441.082,794.308 439.082,794.975 436.5,794.5C 438.374,793.715 440.374,793.048 442.5,792.5 Z"/></g>
<g><path style="opacity:0.116" fill="#b3b3b3" d="M 127.5,794.5 C 132.969,795.075 138.302,795.741 143.5,796.5C 138.167,796.5 132.833,796.5 127.5,796.5C 127.5,795.833 127.5,795.167 127.5,794.5 Z"/></g>
<g><path style="opacity:0.251" fill="#a5a5a5" d="M 430.5,794.5 C 430.5,795.167 430.5,795.833 430.5,796.5C 425.5,796.5 420.5,796.5 415.5,796.5C 420.398,795.787 425.398,795.121 430.5,794.5 Z"/></g>
</svg>
