<?xml version="1.0" encoding="UTF-8"?>
<!DOCTYPE svg PUBLIC "-//W3C//DTD SVG 1.1//EN" "http://www.w3.org/Graphics/SVG/1.1/DTD/svg11.dtd">
<svg xmlns="http://www.w3.org/2000/svg" version="1.1" width="216px" height="216px" style="shape-rendering:geometricPrecision; text-rendering:geometricPrecision; image-rendering:optimizeQuality; fill-rule:evenodd; clip-rule:evenodd" xmlns:xlink="http://www.w3.org/1999/xlink">
<g><path style="opacity:1" fill="#f30605" d="M 93.5,-0.5 C 103.167,-0.5 112.833,-0.5 122.5,-0.5C 138.141,2.10647 152.808,7.60647 166.5,16C 172.162,15.9269 177.829,15.9269 183.5,16C 189.551,22.5957 195.718,29.0957 202,35.5C 202.185,39.9858 201.019,44.1525 198.5,48C 207.248,61.7556 212.914,76.589 215.5,92.5C 215.5,102.167 215.5,111.833 215.5,121.5C 203.051,179.335 167.218,210.335 108,214.5C 55.9917,212.147 21.3251,186.481 4,137.5C 2.15978,130.095 0.659779,122.761 -0.5,115.5C -0.5,109.833 -0.5,104.167 -0.5,98.5C 1.35492,82.4384 6.02159,67.1051 13.5,52.5C 11.8984,46.5639 11.065,40.5639 11,34.5C 17.1667,28.3333 23.3333,22.1667 29.5,16C 35.1986,16.5097 40.8653,17.1764 46.5,18C 60.8989,8.37182 76.5656,2.20516 93.5,-0.5 Z M 98.5,6.5 C 122.474,5.15928 144.474,10.9926 164.5,24C 169.797,23.5616 175.13,23.5616 180.5,24C 184.299,28.8006 188.466,33.3006 193,37.5C 193.118,41.3278 192.285,44.9945 190.5,48.5C 216.579,91.9939 214.079,133.661 183,173.5C 152.044,204.697 115.544,213.864 73.5,201C 24.4803,179.478 2.98026,141.978 9,88.5C 10.1775,83.4565 11.5108,78.4565 13,73.5C 16.1209,66.9284 18.9542,60.2617 21.5,53.5C 20.3277,48.1528 19.4944,42.8194 19,37.5C 23.6814,32.6515 28.5148,27.9848 33.5,23.5C 38.3455,25.4641 43.3455,26.2974 48.5,26C 63.5865,15.2526 80.2532,8.75256 98.5,6.5 Z M 104.5,25.5 C 111.618,26.9734 112.284,29.9734 106.5,34.5C 101.196,32.2885 100.53,29.2885 104.5,25.5 Z M 96.5,27.5 C 97.769,36.6072 102.769,39.7738 111.5,37C 113.718,34.2498 115.051,31.0832 115.5,27.5C 120.167,30.1667 123.833,33.8333 126.5,38.5C 116.531,39.4477 113.531,44.4477 117.5,53.5C 120.068,55.7172 123.068,56.8839 126.5,57C 123.973,61.6938 120.306,65.1938 115.5,67.5C 114.237,58.07 109.237,55.2367 100.5,59C 98.3742,61.4331 97.0409,64.2665 96.5,67.5C 92.1667,65.1667 88.8333,61.8333 86.5,57.5C 94.9029,56.3563 98.0696,51.6896 96,43.5C 93.381,40.1108 89.881,38.6108 85.5,39C 87.1233,36.9205 88.6233,34.7538 90,32.5C 92.3256,30.9343 94.4922,29.2676 96.5,27.5 Z M 86.5,43.5 C 89.8641,42.8728 91.8641,44.2061 92.5,47.5C 89.7724,53.7478 86.7724,53.9145 83.5,48C 84.2225,46.2495 85.2225,44.7495 86.5,43.5 Z M 122.5,43.5 C 126.06,42.8914 128.06,44.3914 128.5,48C 125.289,53.9955 122.289,53.8288 119.5,47.5C 120.172,45.8405 121.172,44.5072 122.5,43.5 Z M 103.5,61.5 C 110.004,61.1377 111.671,63.6377 108.5,69C 102.206,69.5776 100.539,67.0776 103.5,61.5 Z M 56.5,94.5 C 71.0126,96.8494 75.5126,104.849 70,118.5C 61.3678,126.728 53.0345,126.395 45,117.5C 40.8243,105.851 44.6576,98.1847 56.5,94.5 Z M 153.5,94.5 C 168.538,96.3664 173.372,104.366 168,118.5C 159.368,126.728 151.034,126.395 143,117.5C 138.898,106.37 142.398,98.7032 153.5,94.5 Z M 105.5,146.5 C 109.264,147.423 110.764,149.756 110,153.5C 106.458,156.408 103.625,155.741 101.5,151.5C 102.16,149.185 103.493,147.519 105.5,146.5 Z M 114.5,148.5 C 119.949,150.782 123.949,154.615 126.5,160C 115.62,161.496 112.953,166.829 118.5,176C 121.044,177.092 123.711,177.759 126.5,178C 124,183.167 120.167,187 115,189.5C 113.879,178.69 108.712,176.023 99.5,181.5C 98.1028,183.982 97.2694,186.648 97,189.5C 92.6433,186.643 89.1433,182.977 86.5,178.5C 96.7362,176.204 99.0696,170.704 93.5,162C 91.1955,161.105 88.8622,160.271 86.5,159.5C 88.8333,155.167 92.1667,151.833 96.5,149.5C 97.6437,157.903 102.31,161.07 110.5,159C 114.048,156.409 115.382,152.909 114.5,148.5 Z M 87.5,164.5 C 91.8765,165.421 93.2098,167.921 91.5,172C 87.6626,174.386 84.9959,173.386 83.5,169C 84.3574,166.981 85.6908,165.481 87.5,164.5 Z M 122.5,164.5 C 127.013,164.991 128.68,167.324 127.5,171.5C 123.799,174.435 121.133,173.602 119.5,169C 120.315,167.357 121.315,165.857 122.5,164.5 Z M 104.5,182.5 C 109.764,182.417 111.431,184.75 109.5,189.5C 105.547,192.513 102.88,191.513 101.5,186.5C 102.524,185.148 103.524,183.815 104.5,182.5 Z"/></g>
<g><path style="opacity:1" fill="#e41e0f" d="M 99.5,21.5 C 122.979,20.1452 133.812,31.1452 132,54.5C 125.221,71.4319 113.055,77.2652 95.5,72C 80.1992,63.3209 76.0326,50.8209 83,34.5C 86.9388,28.0478 92.4388,23.7145 99.5,21.5 Z M 104.5,25.5 C 100.53,29.2885 101.196,32.2885 106.5,34.5C 112.284,29.9734 111.618,26.9734 104.5,25.5 Z M 96.5,27.5 C 94.4922,29.2676 92.3256,30.9343 90,32.5C 88.6233,34.7538 87.1233,36.9205 85.5,39C 89.881,38.6108 93.381,40.1108 96,43.5C 98.0696,51.6896 94.9029,56.3563 86.5,57.5C 88.8333,61.8333 92.1667,65.1667 96.5,67.5C 97.0409,64.2665 98.3742,61.4331 100.5,59C 109.237,55.2367 114.237,58.07 115.5,67.5C 120.306,65.1938 123.973,61.6938 126.5,57C 123.068,56.8839 120.068,55.7172 117.5,53.5C 113.531,44.4477 116.531,39.4477 126.5,38.5C 123.833,33.8333 120.167,30.1667 115.5,27.5C 115.051,31.0832 113.718,34.2498 111.5,37C 102.769,39.7738 97.769,36.6072 96.5,27.5 Z M 86.5,43.5 C 85.2225,44.7495 84.2225,46.2495 83.5,48C 86.7724,53.9145 89.7724,53.7478 92.5,47.5C 91.8641,44.2061 89.8641,42.8728 86.5,43.5 Z M 122.5,43.5 C 121.172,44.5072 120.172,45.8405 119.5,47.5C 122.289,53.8288 125.289,53.9955 128.5,48C 128.06,44.3914 126.06,42.8914 122.5,43.5 Z M 103.5,61.5 C 100.539,67.0776 102.206,69.5776 108.5,69C 111.671,63.6377 110.004,61.1377 103.5,61.5 Z"/></g>
<g><path style="opacity:1" fill="#f00f08" d="M 50.5,74.5 C 76.2226,72.734 90.556,84.5674 93.5,110C 91.3689,131.464 79.5355,143.298 58,145.5C 32.848,142.215 21.1813,127.881 23,102.5C 27.0159,87.985 36.1825,78.6517 50.5,74.5 Z M 56.5,94.5 C 44.6576,98.1847 40.8243,105.851 45,117.5C 53.0345,126.395 61.3678,126.728 70,118.5C 75.5126,104.849 71.0126,96.8494 56.5,94.5 Z"/></g>
<g><path style="opacity:1" fill="#f10e07" d="M 148.5,74.5 C 176.988,73.4898 191.155,87.1565 191,115.5C 186.438,133.725 174.772,143.725 156,145.5C 130.848,142.215 119.181,127.881 121,102.5C 125.016,87.985 134.183,78.6517 148.5,74.5 Z M 153.5,94.5 C 142.398,98.7032 138.898,106.37 143,117.5C 151.034,126.395 159.368,126.728 168,118.5C 173.372,104.366 168.538,96.3664 153.5,94.5 Z"/></g>
<g><path style="opacity:1" fill="#e51f10" d="M 101.5,142.5 C 126.983,143.817 136.483,156.817 130,181.5C 119.122,196.593 105.622,199.426 89.5,190C 78.1376,178.742 76.6376,166.242 85,152.5C 89.4272,147.212 94.9272,143.879 101.5,142.5 Z M 105.5,146.5 C 103.493,147.519 102.16,149.185 101.5,151.5C 103.625,155.741 106.458,156.408 110,153.5C 110.764,149.756 109.264,147.423 105.5,146.5 Z M 114.5,148.5 C 115.382,152.909 114.048,156.409 110.5,159C 102.31,161.07 97.6437,157.903 96.5,149.5C 92.1667,151.833 88.8333,155.167 86.5,159.5C 88.8622,160.271 91.1955,161.105 93.5,162C 99.0696,170.704 96.7362,176.204 86.5,178.5C 89.1433,182.977 92.6433,186.643 97,189.5C 97.2694,186.648 98.1028,183.982 99.5,181.5C 108.712,176.023 113.879,178.69 115,189.5C 120.167,187 124,183.167 126.5,178C 123.711,177.759 121.044,177.092 118.5,176C 112.953,166.829 115.62,161.496 126.5,160C 123.949,154.615 119.949,150.782 114.5,148.5 Z M 87.5,164.5 C 85.6908,165.481 84.3574,166.981 83.5,169C 84.9959,173.386 87.6626,174.386 91.5,172C 93.2098,167.921 91.8765,165.421 87.5,164.5 Z M 122.5,164.5 C 121.315,165.857 120.315,167.357 119.5,169C 121.133,173.602 123.799,174.435 127.5,171.5C 128.68,167.324 127.013,164.991 122.5,164.5 Z M 104.5,182.5 C 103.524,183.815 102.524,185.148 101.5,186.5C 102.88,191.513 105.547,192.513 109.5,189.5C 111.431,184.75 109.764,182.417 104.5,182.5 Z"/></g>
</svg>
