<?xml version="1.0" encoding="UTF-8"?>
<!DOCTYPE svg PUBLIC "-//W3C//DTD SVG 1.1//EN" "http://www.w3.org/Graphics/SVG/1.1/DTD/svg11.dtd">
<svg xmlns="http://www.w3.org/2000/svg" version="1.1" width="500px" height="500px" style="shape-rendering:geometricPrecision; text-rendering:geometricPrecision; image-rendering:optimizeQuality; fill-rule:evenodd; clip-rule:evenodd" xmlns:xlink="http://www.w3.org/1999/xlink">
<g><path style="opacity:0.922" fill="#161d14" d="M 199.5,-0.5 C 230.5,-0.5 261.5,-0.5 292.5,-0.5C 292.5,-0.166667 292.5,0.166667 292.5,0.5C 260.152,0.22676 227.819,0.560093 195.5,1.5C 196.833,0.833333 198.167,0.166667 199.5,-0.5 Z"/></g>
<g><path style="opacity:1" fill="#000100" d="M 292.5,0.5 C 298.025,2.08863 303.692,3.08863 309.5,3.5C 320.413,6.62042 329.746,12.2871 337.5,20.5C 338.711,24.9821 341.378,28.3154 345.5,30.5C 352.704,40.2673 357.037,51.2673 358.5,63.5C 357.173,71.2349 357.173,79.0683 358.5,87C 393.165,87.5 427.832,87.6667 462.5,87.5C 465.206,87.6878 467.539,88.6878 469.5,90.5C 469.731,93.0632 471.065,94.7298 473.5,95.5C 479.246,102.725 479.913,110.392 475.5,118.5C 474.118,119.801 472.452,120.634 470.5,121C 470.833,121.333 471.167,121.667 471.5,122C 469.137,122.589 468.137,124.089 468.5,126.5C 466.574,128.293 464.241,129.293 461.5,129.5C 448.833,129.5 436.167,129.5 423.5,129.5C 423.5,229.833 423.5,330.167 423.5,430.5C 423.5,432.167 423.5,433.833 423.5,435.5C 422.5,435.5 421.5,435.5 420.5,435.5C 420.457,442.743 419.457,449.743 417.5,456.5C 415.189,457.914 413.189,459.747 411.5,462C 411.957,462.414 412.291,462.914 412.5,463.5C 410.995,464.842 410.328,466.508 410.5,468.5C 405.449,477.218 398.449,483.885 389.5,488.5C 387.801,488.34 386.134,488.506 384.5,489C 381.976,491.19 378.976,492.524 375.5,493C 374.748,493.671 374.414,494.504 374.5,495.5C 370.676,497.441 366.676,498.775 362.5,499.5C 286.833,499.5 211.167,499.5 135.5,499.5C 124.771,497.309 114.771,493.142 105.5,487C 104.29,485.961 103.29,484.794 102.5,483.5C 100.738,478.071 97.071,474.738 91.5,473.5C 88.7454,470.083 86.412,466.417 84.5,462.5C 84.2865,460.856 84.6198,459.356 85.5,458C 83.0724,454.816 80.7391,451.649 78.5,448.5C 78.9239,444.297 78.4239,440.297 77,436.5C 76.3333,335.167 76.3333,233.833 77,132.5C 77.7504,131.874 78.5838,131.374 79.5,131C 65.6577,129.519 51.6577,129.019 37.5,129.5C 32.1628,128.828 28.1628,126.161 25.5,121.5C 25.573,119.973 24.9063,118.973 23.5,118.5C 19.0893,110.379 19.7559,102.713 25.5,95.5C 27.5,94.1667 29.1667,92.5 30.5,90.5C 30.5,89.8333 30.8333,89.5 31.5,89.5C 33.9267,89.477 36.26,88.977 38.5,88C 72.6691,87.8325 106.669,87.3325 140.5,86.5C 141.493,78.3501 141.826,70.0168 141.5,61.5C 142.043,53.2091 144.377,45.5424 148.5,38.5C 151.652,36.8827 153.318,34.2161 153.5,30.5C 160.764,18.8702 170.764,10.5368 183.5,5.5C 187.767,4.74437 191.767,3.41104 195.5,1.5C 227.819,0.560093 260.152,0.22676 292.5,0.5 Z M 290.5,43.5 C 300.438,45.8017 307.771,51.4683 312.5,60.5C 312.565,63.4282 313.232,66.0948 314.5,68.5C 314.5,74.1667 314.5,79.8333 314.5,85.5C 271.619,85.1792 228.786,85.5125 186,86.5C 184.547,80.6828 184.047,74.6828 184.5,68.5C 186.459,56.5849 193.126,48.5849 204.5,44.5C 233.142,43.5328 261.808,43.1995 290.5,43.5 Z M 120.5,130.5 C 206.904,130.17 293.237,130.503 379.5,131.5C 379.667,230.167 379.5,328.834 379,427.5C 378.58,431.191 378.08,434.858 377.5,438.5C 374.167,445.167 369.167,450.167 362.5,453.5C 360.146,453.838 357.813,454.338 355.5,455C 284.501,455.5 213.501,455.667 142.5,455.5C 137.122,453.643 132.122,450.976 127.5,447.5C 125.467,444.477 123.467,441.477 121.5,438.5C 121.002,435.513 120.502,432.513 120,429.5C 119.169,329.763 119.336,230.097 120.5,130.5 Z"/></g>
<g><path style="opacity:1" fill="#234220" d="M 292.5,0.5 C 292.5,0.166667 292.5,-0.166667 292.5,-0.5C 294.833,-0.5 297.167,-0.5 299.5,-0.5C 302.95,0.529796 306.283,1.86313 309.5,3.5C 303.692,3.08863 298.025,2.08863 292.5,0.5 Z"/></g>
<g><path style="opacity:0.831" fill="#2a5623" d="M 195.5,1.5 C 191.767,3.41104 187.767,4.74437 183.5,5.5C 187.085,3.19393 191.085,1.8606 195.5,1.5 Z"/></g>
<g><path style="opacity:1" fill="#23431e" d="M 337.5,20.5 C 340.645,23.4595 343.312,26.7929 345.5,30.5C 341.378,28.3154 338.711,24.9821 337.5,20.5 Z"/></g>
<g><path style="opacity:1" fill="#203d1e" d="M 153.5,30.5 C 153.318,34.2161 151.652,36.8827 148.5,38.5C 149.383,35.2957 151.05,32.6291 153.5,30.5 Z"/></g>
<g><path style="opacity:0.502" fill="#31602f" d="M 290.5,43.5 C 261.808,43.1995 233.142,43.5328 204.5,44.5C 205.263,43.7321 206.263,43.2321 207.5,43C 235.336,42.1697 263.003,42.3364 290.5,43.5 Z"/></g>
<g><path style="opacity:0.451" fill="#416c3c" d="M 312.5,60.5 C 314.04,62.8383 314.706,65.5049 314.5,68.5C 313.232,66.0948 312.565,63.4282 312.5,60.5 Z"/></g>
<g><path style="opacity:0.574" fill="#3b6433" d="M 141.5,61.5 C 141.826,70.0168 141.493,78.3501 140.5,86.5C 137.941,86.8016 135.607,86.4682 133.5,85.5C 135.833,85.5 138.167,85.5 140.5,85.5C 140.174,77.3159 140.508,69.3159 141.5,61.5 Z"/></g>
<g><path style="opacity:0.855" fill="#02600c" d="M 133.5,85.5 C 135.607,86.4682 137.941,86.8016 140.5,86.5C 106.669,87.3325 72.6691,87.8325 38.5,88C 36.26,88.977 33.9267,89.477 31.5,89.5C 32.842,88.207 34.5087,87.3736 36.5,87C 43.011,86.6326 49.511,86.1326 56,85.5C 81.8419,86.7701 107.675,86.7701 133.5,85.5 Z"/></g>
<g><path style="opacity:0.875" fill="#03690d" d="M 184.5,68.5 C 184.047,74.6828 184.547,80.6828 186,86.5C 228.786,85.5125 271.619,85.1792 314.5,85.5C 314.5,79.8333 314.5,74.1667 314.5,68.5C 315.826,74.5678 315.826,80.7345 314.5,87C 271.167,87.6667 227.833,87.6667 184.5,87C 183.174,80.7345 183.174,74.5678 184.5,68.5 Z"/></g>
<g><path style="opacity:0.855" fill="#116413" d="M 358.5,63.5 C 358.5,70.8333 358.5,78.1667 358.5,85.5C 380.164,86.8002 401.831,86.8002 423.5,85.5C 436.696,85.3982 449.696,86.0648 462.5,87.5C 427.832,87.6667 393.165,87.5 358.5,87C 357.173,79.0683 357.173,71.2349 358.5,63.5 Z"/></g>
<g><path style="opacity:0.702" fill="#33682c" d="M 30.5,90.5 C 29.1667,92.5 27.5,94.1667 25.5,95.5C 26.1667,92.8333 27.8333,91.1667 30.5,90.5 Z"/></g>
<g><path style="opacity:0.573" fill="#275a24" d="M 469.5,90.5 C 471.587,91.5846 472.92,93.2512 473.5,95.5C 471.065,94.7298 469.731,93.0632 469.5,90.5 Z"/></g>
<g><path style="opacity:0.012" fill="#44843c" d="M 23.5,118.5 C 24.9063,118.973 25.573,119.973 25.5,121.5C 24.0937,121.027 23.427,120.027 23.5,118.5 Z"/></g>
<g><path style="opacity:1" fill="#213e1f" d="M 475.5,118.5 C 473.906,121.764 471.573,124.431 468.5,126.5C 468.137,124.089 469.137,122.589 471.5,122C 471.167,121.667 470.833,121.333 470.5,121C 472.452,120.634 474.118,119.801 475.5,118.5 Z"/></g>
<g><path style="opacity:0.641" fill="#1e4e17" d="M 119.5,130.5 C 206.167,129.167 292.833,129.167 379.5,130.5C 379.5,130.833 379.5,131.167 379.5,131.5C 293.237,130.503 206.904,130.17 120.5,130.5C 120.167,130.5 119.833,130.5 119.5,130.5 Z"/></g>
<g><path style="opacity:0.997" fill="#294323" d="M 37.5,129.5 C 51.6577,129.019 65.6577,129.519 79.5,131C 78.5838,131.374 77.7504,131.874 77,132.5C 76.3333,233.833 76.3333,335.167 77,436.5C 78.4239,440.297 78.9239,444.297 78.5,448.5C 76.7808,443.758 75.6141,438.758 75,433.5C 74.5,332.501 74.3333,231.501 74.5,130.5C 61.9887,130.829 49.6554,130.495 37.5,129.5 Z"/></g>
<g><path style="opacity:0.774" fill="#12330f" d="M 119.5,130.5 C 119.833,130.5 120.167,130.5 120.5,130.5C 119.336,230.097 119.169,329.763 120,429.5C 120.502,432.513 121.002,435.513 121.5,438.5C 120.685,437.571 119.852,436.571 119,435.5C 118.167,333.666 118.334,231.999 119.5,130.5 Z"/></g>
<g><path style="opacity:0.72" fill="#1a3b15" d="M 379.5,130.5 C 380.666,229.999 380.832,329.666 380,429.5C 379.943,432.851 379.109,435.851 377.5,438.5C 378.08,434.858 378.58,431.191 379,427.5C 379.5,328.834 379.667,230.167 379.5,131.5C 379.5,131.167 379.5,130.833 379.5,130.5 Z"/></g>
<g><path style="opacity:0.882" fill="#244d21" d="M 314.5,181.5 C 310.382,181.435 306.382,180.769 302.5,179.5C 299.824,179.837 297.157,180.17 294.5,180.5C 300.618,178.021 306.951,177.855 313.5,180C 314.056,180.383 314.389,180.883 314.5,181.5 Z"/></g>
<g><path style="opacity:1" fill="#000100" d="M 314.5,181.5 C 316.795,182.136 318.461,183.469 319.5,185.5C 320.08,187.749 321.413,189.415 323.5,190.5C 324.654,260.478 324.82,330.478 324,400.5C 321.977,402.769 321.144,405.436 321.5,408.5C 318.806,413.694 314.472,416.694 308.5,417.5C 303.346,417.706 298.346,417.039 293.5,415.5C 290.236,413.906 287.569,411.573 285.5,408.5C 285.487,404.779 284.987,401.446 284,398.5C 283.5,329.834 283.333,261.167 283.5,192.5C 285.098,186.57 288.765,182.57 294.5,180.5C 297.157,180.17 299.824,179.837 302.5,179.5C 306.382,180.769 310.382,181.435 314.5,181.5 Z"/></g>
<g><path style="opacity:1" fill="#1a3617" d="M 200.5,179.5 C 197.482,179.335 194.482,179.502 191.5,180C 188.439,182.035 185.105,183.201 181.5,183.5C 183.533,180.987 186.199,179.487 189.5,179C 193.358,178.19 197.024,178.357 200.5,179.5 Z"/></g>
<g><path style="opacity:1" fill="#000100" d="M 200.5,179.5 C 209.916,181.251 215.25,186.918 216.5,196.5C 216.667,262.168 216.5,327.834 216,393.5C 215.824,396.882 215.324,400.215 214.5,403.5C 212.088,407.544 209.422,411.211 206.5,414.5C 203.68,414.087 201.68,415.087 200.5,417.5C 194.285,419.331 188.619,418.331 183.5,414.5C 182.415,412.413 180.749,411.08 178.5,410.5C 177.11,409.101 176.11,407.434 175.5,405.5C 175.286,403.856 175.62,402.356 176.5,401C 176,400.5 175.5,400 175,399.5C 174.333,331.167 174.333,262.833 175,194.5C 175.263,191.736 176.763,190.069 179.5,189.5C 180.295,187.505 180.961,185.505 181.5,183.5C 185.105,183.201 188.439,182.035 191.5,180C 194.482,179.502 197.482,179.335 200.5,179.5 Z"/></g>
<g><path style="opacity:0.839" fill="#245620" d="M 319.5,185.5 C 321.587,186.585 322.92,188.251 323.5,190.5C 321.413,189.415 320.08,187.749 319.5,185.5 Z"/></g>
<g><path style="opacity:1" fill="#263f22" d="M 181.5,183.5 C 180.961,185.505 180.295,187.505 179.5,189.5C 176.763,190.069 175.263,191.736 175,194.5C 174.333,262.833 174.333,331.167 175,399.5C 175.5,400 176,400.5 176.5,401C 175.62,402.356 175.286,403.856 175.5,405.5C 174.224,403.438 173.39,401.104 173,398.5C 172.333,331.5 172.333,264.5 173,197.5C 174.066,191.634 176.899,186.967 181.5,183.5 Z"/></g>
<g><path style="opacity:1" fill="#233d22" d="M 323.5,190.5 C 324.776,192.562 325.61,194.896 326,197.5C 326.667,264.5 326.667,331.5 326,398.5C 325.538,402.422 324.038,405.755 321.5,408.5C 321.144,405.436 321.977,402.769 324,400.5C 324.82,330.478 324.654,260.478 323.5,190.5 Z"/></g>
<g><path style="opacity:1" fill="#20371f" d="M 283.5,192.5 C 283.333,261.167 283.5,329.834 284,398.5C 284.987,401.446 285.487,404.779 285.5,408.5C 283.554,406.266 282.387,403.599 282,400.5C 281.333,332.5 281.333,264.5 282,196.5C 282.21,194.942 282.71,193.609 283.5,192.5 Z"/></g>
<g><path style="opacity:0.063" fill="#5ba456" d="M 461.5,129.5 C 449.345,130.495 437.011,130.829 424.5,130.5C 424.833,230.668 424.499,330.668 423.5,430.5C 423.5,330.167 423.5,229.833 423.5,129.5C 436.167,129.5 448.833,129.5 461.5,129.5 Z"/></g>
<g><path style="opacity:1" fill="#345931" d="M 216.5,196.5 C 217.665,264.332 217.832,332.332 217,400.5C 214.683,409.316 209.183,414.982 200.5,417.5C 201.68,415.087 203.68,414.087 206.5,414.5C 209.422,411.211 212.088,407.544 214.5,403.5C 215.324,400.215 215.824,396.882 216,393.5C 216.5,327.834 216.667,262.168 216.5,196.5 Z"/></g>
<g><path style="opacity:0.667" fill="#375d32" d="M 178.5,410.5 C 180.749,411.08 182.415,412.413 183.5,414.5C 181.251,413.92 179.585,412.587 178.5,410.5 Z"/></g>
<g><path style="opacity:0.4" fill="#407c36" d="M 293.5,415.5 C 298.346,417.039 303.346,417.706 308.5,417.5C 305.36,418.641 302.027,418.808 298.5,418C 296.509,417.626 294.842,416.793 293.5,415.5 Z"/></g>
<g><path style="opacity:1" fill="#20391e" d="M 423.5,435.5 C 422.748,442.97 420.748,449.97 417.5,456.5C 419.457,449.743 420.457,442.743 420.5,435.5C 421.5,435.5 422.5,435.5 423.5,435.5 Z"/></g>
<g><path style="opacity:1" fill="#253b23" d="M 127.5,447.5 C 132.122,450.976 137.122,453.643 142.5,455.5C 142.5,455.833 142.5,456.167 142.5,456.5C 140.334,456.421 138.334,455.754 136.5,454.5C 135.558,454.608 134.725,454.941 134,455.5C 131.984,452.657 129.817,449.99 127.5,447.5 Z"/></g>
<g><path style="opacity:1" fill="#1e341c" d="M 78.5,448.5 C 80.7391,451.649 83.0724,454.816 85.5,458C 84.6198,459.356 84.2865,460.856 84.5,462.5C 81.5422,458.309 79.5422,453.642 78.5,448.5 Z"/></g>
<g><path style="opacity:0.38" fill="#43723d" d="M 362.5,453.5 C 360.974,455.13 358.974,455.963 356.5,456C 285.167,456.5 213.834,456.667 142.5,456.5C 142.5,456.167 142.5,455.833 142.5,455.5C 213.501,455.667 284.501,455.5 355.5,455C 357.813,454.338 360.146,453.838 362.5,453.5 Z"/></g>
<g><path style="opacity:1" fill="#1f361e" d="M 417.5,456.5 C 416.172,461.165 413.839,465.165 410.5,468.5C 410.328,466.508 410.995,464.842 412.5,463.5C 412.291,462.914 411.957,462.414 411.5,462C 413.189,459.747 415.189,457.914 417.5,456.5 Z"/></g>
<g><path style="opacity:0.997" fill="#182c17" d="M 91.5,473.5 C 97.071,474.738 100.738,478.071 102.5,483.5C 98.2294,480.899 94.5628,477.566 91.5,473.5 Z"/></g>
<g><path style="opacity:1" fill="#1c361a" d="M 389.5,488.5 C 385.175,492.161 380.175,494.494 374.5,495.5C 374.414,494.504 374.748,493.671 375.5,493C 378.976,492.524 381.976,491.19 384.5,489C 386.134,488.506 387.801,488.34 389.5,488.5 Z"/></g>
</svg>
