<?xml version="1.0" encoding="UTF-8"?>
<!DOCTYPE svg PUBLIC "-//W3C//DTD SVG 1.1//EN" "http://www.w3.org/Graphics/SVG/1.1/DTD/svg11.dtd">
<svg xmlns="http://www.w3.org/2000/svg" version="1.1" width="500px" height="500px" style="shape-rendering:geometricPrecision; text-rendering:geometricPrecision; image-rendering:optimizeQuality; fill-rule:evenodd; clip-rule:evenodd" xmlns:xlink="http://www.w3.org/1999/xlink">
<g><path style="opacity:1" fill="#040703" d="M 453.5,117.5 C 450.821,117.525 449.488,118.858 449.5,121.5C 445.301,122.866 443.301,125.866 443.5,130.5C 414.488,169.871 385.488,209.205 356.5,248.5C 355.5,248.5 354.5,248.5 353.5,248.5C 352.455,252.067 350.455,255.067 347.5,257.5C 346.754,258.736 346.421,260.07 346.5,261.5C 326.266,290.733 305.266,319.4 283.5,347.5C 281.107,348.353 279.774,350.019 279.5,352.5C 278.5,352.5 277.5,352.5 276.5,352.5C 276.5,354.167 276.5,355.833 276.5,357.5C 276.5,358.167 276.167,358.5 275.5,358.5C 272.5,358.167 271.167,359.5 271.5,362.5C 269.897,362.312 268.563,362.812 267.5,364C 268.167,364.333 268.833,364.667 269.5,365C 268.29,366.039 267.29,367.206 266.5,368.5C 261.724,373.891 255.724,377.225 248.5,378.5C 241.354,378.131 234.687,379.464 228.5,382.5C 225.63,383.634 222.63,384.3 219.5,384.5C 216.15,384.335 212.817,384.502 209.5,385C 208.944,385.383 208.611,385.883 208.5,386.5C 188.634,394.16 171.468,390.16 157,374.5C 154.473,370.779 152.473,366.779 151,362.5C 149.378,352.576 148.544,342.576 148.5,332.5C 149.089,328.029 148.423,324.029 146.5,320.5C 146.334,311.494 146.5,302.494 147,293.5C 147.41,292.099 147.91,290.766 148.5,289.5C 150.333,286.925 152.333,284.425 154.5,282C 154.167,281.667 153.833,281.333 153.5,281C 154.46,279.581 155.293,278.081 156,276.5C 156.333,276.833 156.667,277.167 157,277.5C 157.645,276.354 158.478,275.354 159.5,274.5C 158.637,273.274 158.637,271.94 159.5,270.5C 219.068,187.932 279.402,105.932 340.5,24.5C 342.984,22.1997 344.984,19.5331 346.5,16.5C 357.967,5.23018 371.633,1.73018 387.5,6C 393.427,8.9347 399.094,12.268 404.5,16C 420.885,28.719 437.552,41.0523 454.5,53C 468.745,66.4123 472.245,82.2456 465,100.5C 461.337,106.321 457.503,111.988 453.5,117.5 Z M 374.5,38.5 C 394.235,52.1228 413.735,66.1228 433,80.5C 434.187,82.0444 434.52,83.7111 434,85.5C 428.167,93.1667 422.333,100.833 416.5,108.5C 395.693,93.5264 375.026,78.3598 354.5,63C 360.683,54.3294 367.349,46.1627 374.5,38.5 Z M 375.5,120.5 C 376.585,122.587 378.251,123.92 380.5,124.5C 385.097,128.147 389.764,131.814 394.5,135.5C 395.583,136.365 395.749,137.365 395,138.5C 367.336,175.174 340.169,212.174 313.5,249.5C 311.1,251.296 309.433,253.63 308.5,256.5C 304.103,260.959 300.436,265.959 297.5,271.5C 295.016,273.8 293.016,276.467 291.5,279.5C 289.122,281.878 287.122,284.545 285.5,287.5C 282.102,290.627 279.435,294.293 277.5,298.5C 274.102,301.627 271.435,305.293 269.5,309.5C 260.269,320.947 251.269,332.614 242.5,344.5C 230.338,346.965 218.338,349.632 206.5,352.5C 200.746,352.959 195.079,353.959 189.5,355.5C 186.832,355.255 184.998,353.921 184,351.5C 183.698,345.467 183.198,339.467 182.5,333.5C 182.384,325.307 181.717,317.307 180.5,309.5C 180.234,305.395 180.734,301.395 182,297.5C 201.464,271.883 220.297,245.883 238.5,219.5C 241.802,216.026 244.968,212.359 248,208.5C 249.094,206.922 249.928,205.255 250.5,203.5C 255.896,197.709 260.563,191.376 264.5,184.5C 266.984,182.2 268.984,179.533 270.5,176.5C 273.185,173.81 275.518,170.81 277.5,167.5C 282.235,162.368 286.235,156.701 289.5,150.5C 292.933,147.399 295.6,143.732 297.5,139.5C 300.471,137.557 302.471,134.891 303.5,131.5C 313.809,118.185 324.143,104.852 334.5,91.5C 347.925,101.606 361.592,111.272 375.5,120.5 Z"/></g>
<g><path style="opacity:1" fill="#030603" d="M 281.5,15.5 C 282.992,18.4832 284.492,21.4832 286,24.5C 286.167,26 286.333,27.5 286.5,29C 284.986,33.7038 282.986,38.2038 280.5,42.5C 280.5,43.1667 280.167,43.5 279.5,43.5C 260.603,44.7626 241.436,44.7626 222,43.5C 219.581,44.5663 217.414,45.8996 215.5,47.5C 211.542,47.2511 207.876,47.9177 204.5,49.5C 201.572,49.5651 198.905,50.2318 196.5,51.5C 191.57,51.3735 187.237,52.7068 183.5,55.5C 173.14,59.506 162.806,63.8393 152.5,68.5C 147.929,68.8824 144.263,70.8824 141.5,74.5C 139.206,76.653 136.54,78.3197 133.5,79.5C 130.722,79.0217 128.722,80.0217 127.5,82.5C 126.914,82.2907 126.414,81.9574 126,81.5C 125.634,83.4517 124.801,85.1184 123.5,86.5C 120.81,89.1846 117.81,91.5179 114.5,93.5C 112.5,94.1667 110.5,94.8333 108.5,95.5C 108.5,96.8333 108.5,98.1667 108.5,99.5C 105.526,102.138 102.526,104.805 99.5,107.5C 98.1667,107.5 96.8333,107.5 95.5,107.5C 93.6981,110.138 91.6981,112.805 89.5,115.5C 88.5713,116.689 88.238,118.022 88.5,119.5C 87.8763,121.754 86.543,123.421 84.5,124.5C 83.5,124.5 82.5,124.5 81.5,124.5C 80.005,128.35 78.3383,132.017 76.5,135.5C 73.0689,141.373 69.4022,147.04 65.5,152.5C 60.4908,154.878 58.4908,158.878 59.5,164.5C 51.0066,183.163 45.0066,202.496 41.5,222.5C 39.0412,223.874 38.0412,226.04 38.5,229C 39.1227,233.147 39.4561,237.314 39.5,241.5C 39.1945,250.917 39.5279,260.25 40.5,269.5C 38.9309,274.998 38.5976,280.665 39.5,286.5C 40.1835,286.863 40.8501,287.196 41.5,287.5C 40.7717,293.042 41.7717,298.042 44.5,302.5C 45.4511,303.919 45.7845,305.585 45.5,307.5C 45.9987,311.49 46.4987,315.49 47,319.5C 48.4048,320.731 49.5714,322.064 50.5,323.5C 56.4713,339.11 63.8047,354.11 72.5,368.5C 72.2978,370.989 72.7978,373.323 74,375.5C 76.6924,378.692 79.1924,382.025 81.5,385.5C 82.7658,386.362 84.0992,387.029 85.5,387.5C 89.8241,392.125 94.1574,396.792 98.5,401.5C 99.5,404.5 101.5,406.5 104.5,407.5C 106.167,408.833 107.833,410.167 109.5,411.5C 111.61,414.022 112.776,416.689 113,419.5C 113.561,418.978 114.228,418.645 115,418.5C 116.406,419.414 117.906,420.08 119.5,420.5C 123.538,423.512 127.538,426.512 131.5,429.5C 131.973,430.906 132.973,431.573 134.5,431.5C 138.173,433 141.506,435 144.5,437.5C 145.234,438.708 145.567,440.041 145.5,441.5C 150.847,443.177 156.181,444.843 161.5,446.5C 164.157,446.935 166.491,447.935 168.5,449.5C 169.114,451.283 170.28,452.616 172,453.5C 174.081,452.667 176.248,452.667 178.5,453.5C 180.214,454.738 182.214,455.405 184.5,455.5C 189.712,456.467 194.712,457.8 199.5,459.5C 201.515,460.924 203.848,461.59 206.5,461.5C 206.833,461.5 207.167,461.5 207.5,461.5C 218.988,465.048 230.654,466.048 242.5,464.5C 247.842,465.761 253.175,465.761 258.5,464.5C 260.81,465.164 263.31,465.497 266,465.5C 269.805,465.696 273.305,465.03 276.5,463.5C 277.5,463.5 278.5,463.5 279.5,463.5C 285.162,463.031 290.829,462.531 296.5,462C 297.571,461.148 298.571,460.315 299.5,459.5C 303.375,459.644 307.208,459.31 311,458.5C 313.287,457.702 315.12,456.369 316.5,454.5C 321.537,451.993 326.87,449.993 332.5,448.5C 335.686,447.662 338.853,446.662 342,445.5C 343.03,445.164 343.53,444.497 343.5,443.5C 358.272,435.407 372.272,426.074 385.5,415.5C 388.089,414.581 390.089,412.914 391.5,410.5C 391.833,409.5 392.5,408.833 393.5,408.5C 397.167,406.833 399.833,404.167 401.5,400.5C 402.833,398.5 404.5,396.833 406.5,395.5C 408.587,394.415 409.92,392.749 410.5,390.5C 410.5,389.833 410.833,389.5 411.5,389.5C 413.587,388.415 414.92,386.749 415.5,384.5C 418.453,379.55 421.786,374.883 425.5,370.5C 427.929,367.847 430.263,365.014 432.5,362C 432.752,359.191 434.085,357.191 436.5,356C 435.748,355.329 435.414,354.496 435.5,353.5C 442.17,339.476 447.837,325.143 452.5,310.5C 454.04,308.162 454.706,305.495 454.5,302.5C 454.366,300.708 454.699,299.042 455.5,297.5C 457.667,292.17 458.667,286.503 458.5,280.5C 459.975,261.467 459.641,242.467 457.5,223.5C 457.876,218.106 456.876,213.106 454.5,208.5C 453.549,207.081 453.216,205.415 453.5,203.5C 453.59,200.848 452.924,198.515 451.5,196.5C 449.599,191.671 447.933,186.671 446.5,181.5C 446.267,176.105 446.6,170.772 447.5,165.5C 448.927,162.236 451.261,159.736 454.5,158C 460.937,155.922 466.937,156.756 472.5,160.5C 473.08,162.749 474.413,164.415 476.5,165.5C 481.209,175.317 484.542,185.65 486.5,196.5C 487.491,203.731 488.324,211.064 489,218.5C 489.708,219.381 490.542,220.047 491.5,220.5C 491.5,221.167 491.5,221.833 491.5,222.5C 491.655,231.022 492.322,239.356 493.5,247.5C 494.305,261.867 493.639,276.2 491.5,290.5C 490.396,291.997 489.396,293.664 488.5,295.5C 489.046,297.135 489.38,298.801 489.5,300.5C 488.8,306.668 487.467,312.668 485.5,318.5C 483.837,320.438 483.171,322.772 483.5,325.5C 479.819,340.896 473.819,355.229 465.5,368.5C 462.708,369.392 461.375,371.392 461.5,374.5C 460.5,374.5 459.5,374.5 458.5,374.5C 459.041,377.652 458.041,380.152 455.5,382C 456.337,383.011 456.67,384.178 456.5,385.5C 443.807,407.204 427.473,425.87 407.5,441.5C 405.255,443.361 402.588,444.361 399.5,444.5C 399.5,445.5 399.5,446.5 399.5,447.5C 398.167,447.5 396.833,447.5 395.5,447.5C 395.5,448.833 395.5,450.167 395.5,451.5C 389.844,455.996 383.844,459.996 377.5,463.5C 373.451,464.189 369.784,465.856 366.5,468.5C 365.158,467.098 364.324,467.431 364,469.5C 363.667,469.167 363.333,468.833 363,468.5C 362.517,469.448 362.351,470.448 362.5,471.5C 359.422,471.587 357.089,472.92 355.5,475.5C 352.813,475.336 350.146,475.503 347.5,476C 346.23,476.9 345.23,478.066 344.5,479.5C 341.302,479.971 338.636,481.305 336.5,483.5C 332.767,485.411 328.767,486.744 324.5,487.5C 320.694,487.412 317.028,488.079 313.5,489.5C 312.914,489.291 312.414,488.957 312,488.5C 308.552,489.742 305.385,491.408 302.5,493.5C 295.41,495.47 288.076,496.803 280.5,497.5C 273.604,497.294 266.937,497.961 260.5,499.5C 253.5,499.5 246.5,499.5 239.5,499.5C 232.711,498.125 225.711,497.458 218.5,497.5C 218.389,496.883 218.056,496.383 217.5,496C 213.848,495.501 210.182,495.335 206.5,495.5C 162.361,488.255 123.694,469.922 90.5,440.5C 89.0892,438.086 87.0892,436.419 84.5,435.5C 82.8333,434.5 81.5,433.167 80.5,431.5C 79.0892,429.086 77.0892,427.419 74.5,426.5C 63.6772,416.012 54.3439,404.345 46.5,391.5C 46.1298,388.733 44.7964,386.733 42.5,385.5C 41.6618,385.158 41.3284,384.492 41.5,383.5C 41.1298,380.733 39.7964,378.733 37.5,377.5C 23.655,353.979 14.3217,328.645 9.5,301.5C 9.66501,298.15 9.49834,294.817 9,291.5C 8.76791,290.263 8.26791,289.263 7.5,288.5C 7.66602,283.156 7.49935,277.823 7,272.5C 6.61742,271.944 6.11742,271.611 5.5,271.5C 4.20155,260.169 4.20155,248.835 5.5,237.5C 6.73729,232.04 7.40396,226.373 7.5,220.5C 7.91787,213.202 9.2512,206.202 11.5,199.5C 12.7682,197.095 13.4349,194.428 13.5,191.5C 13.8993,187.884 14.8993,184.55 16.5,181.5C 18.8627,177.922 20.196,173.922 20.5,169.5C 20.5569,168.391 20.8902,167.391 21.5,166.5C 24.1543,164.166 25.4876,161.166 25.5,157.5C 26.5969,154.314 27.9303,151.314 29.5,148.5C 30.1499,148.196 30.8165,147.863 31.5,147.5C 34.7369,141.977 38.0702,136.477 41.5,131C 40.7476,130.329 40.4142,129.496 40.5,128.5C 44.0068,122.148 48.0068,116.148 52.5,110.5C 54.5869,109.415 55.9202,107.749 56.5,105.5C 56.7376,103.596 57.7376,102.262 59.5,101.5C 62.2427,99.7607 64.2427,97.4274 65.5,94.5C 106.261,47.9435 157.594,20.4435 219.5,12C 238.171,10.0886 256.838,10.0886 275.5,12C 277.91,12.5995 279.91,13.7662 281.5,15.5 Z"/></g>
<g><path style="opacity:0.994" fill="#1c371a" d="M 281.5,15.5 C 289.556,22.9883 290.389,31.3216 284,40.5C 283.184,41.8228 282.017,42.4894 280.5,42.5C 282.986,38.2038 284.986,33.7038 286.5,29C 286.333,27.5 286.167,26 286,24.5C 284.492,21.4832 282.992,18.4832 281.5,15.5 Z"/></g>
<g><path style="opacity:0.714" fill="#2c6827" d="M 346.5,16.5 C 344.984,19.5331 342.984,22.1997 340.5,24.5C 341.529,21.1092 343.529,18.4426 346.5,16.5 Z"/></g>
<g><path style="opacity:0.773" fill="#2a4f27" d="M 279.5,43.5 C 279.082,44.2216 278.416,44.7216 277.5,45C 256.78,45.0109 236.113,45.8442 215.5,47.5C 217.414,45.8996 219.581,44.5663 222,43.5C 241.436,44.7626 260.603,44.7626 279.5,43.5 Z"/></g>
<g><path style="opacity:0.569" fill="#356f2f" d="M 215.5,47.5 C 212.054,48.6874 208.387,49.3541 204.5,49.5C 207.876,47.9177 211.542,47.2511 215.5,47.5 Z"/></g>
<g><path style="opacity:0.125" fill="#44733d" d="M 204.5,49.5 C 202.162,51.0395 199.495,51.7062 196.5,51.5C 198.905,50.2318 201.572,49.5651 204.5,49.5 Z"/></g>
<g><path style="opacity:0.361" fill="#3c6737" d="M 196.5,51.5 C 192.405,53.2791 188.072,54.6124 183.5,55.5C 187.237,52.7068 191.57,51.3735 196.5,51.5 Z"/></g>
<g><path style="opacity:0.937" fill="#2f4c2b" d="M 152.5,68.5 C 149.001,70.7505 145.335,72.7505 141.5,74.5C 144.263,70.8824 147.929,68.8824 152.5,68.5 Z"/></g>
<g><path style="opacity:0.988" fill="#294a25" d="M 133.5,79.5 C 130.725,82.6046 127.392,84.9379 123.5,86.5C 124.801,85.1184 125.634,83.4517 126,81.5C 126.414,81.9574 126.914,82.2907 127.5,82.5C 128.722,80.0217 130.722,79.0217 133.5,79.5 Z"/></g>
<g><path style="opacity:1" fill="#254521" d="M 114.5,93.5 C 112.833,95.8333 110.833,97.8333 108.5,99.5C 108.5,98.1667 108.5,96.8333 108.5,95.5C 110.5,94.8333 112.5,94.1667 114.5,93.5 Z"/></g>
<g><path style="opacity:0.824" fill="#2e5f29" d="M 65.5,94.5 C 64.2427,97.4274 62.2427,99.7607 59.5,101.5C 60.7573,98.5726 62.7573,96.2393 65.5,94.5 Z"/></g>
<g><path style="opacity:0.78" fill="#325d2e" d="M 56.5,105.5 C 55.9202,107.749 54.5869,109.415 52.5,110.5C 53.0798,108.251 54.4131,106.585 56.5,105.5 Z"/></g>
<g><path style="opacity:1" fill="#1c321b" d="M 99.5,107.5 C 96.1736,111.826 92.5069,115.826 88.5,119.5C 88.238,118.022 88.5713,116.689 89.5,115.5C 91.6981,112.805 93.6981,110.138 95.5,107.5C 96.8333,107.5 98.1667,107.5 99.5,107.5 Z"/></g>
<g><path style="opacity:0.667" fill="#31632d" d="M 375.5,120.5 C 377.749,121.08 379.415,122.413 380.5,124.5C 378.251,123.92 376.585,122.587 375.5,120.5 Z"/></g>
<g><path style="opacity:1" fill="#1e3b1b" d="M 453.5,117.5 C 450.136,121.857 446.802,126.191 443.5,130.5C 443.301,125.866 445.301,122.866 449.5,121.5C 449.488,118.858 450.821,117.525 453.5,117.5 Z"/></g>
<g><path style="opacity:1" fill="#182f17" d="M 40.5,128.5 C 40.4142,129.496 40.7476,130.329 41.5,131C 38.0702,136.477 34.7369,141.977 31.5,147.5C 30.8165,147.863 30.1499,148.196 29.5,148.5C 32.339,141.341 36.0057,134.674 40.5,128.5 Z"/></g>
<g><path style="opacity:0.998" fill="#264623" d="M 84.5,124.5 C 82.0659,128.382 79.3993,132.048 76.5,135.5C 78.3383,132.017 80.005,128.35 81.5,124.5C 82.5,124.5 83.5,124.5 84.5,124.5 Z"/></g>
<g><path style="opacity:1" fill="#234321" d="M 303.5,131.5 C 302.471,134.891 300.471,137.557 297.5,139.5C 298.262,135.82 300.262,133.153 303.5,131.5 Z"/></g>
<g><path style="opacity:1" fill="#22381f" d="M 65.5,152.5 C 64.0078,156.818 62.0078,160.818 59.5,164.5C 58.4908,158.878 60.4908,154.878 65.5,152.5 Z"/></g>
<g><path style="opacity:1" fill="#294f27" d="M 25.5,157.5 C 25.4876,161.166 24.1543,164.166 21.5,166.5C 22.0749,163.088 23.4082,160.088 25.5,157.5 Z"/></g>
<g><path style="opacity:1" fill="#203b1e" d="M 289.5,150.5 C 286.235,156.701 282.235,162.368 277.5,167.5C 277.227,165.549 277.893,164.049 279.5,163C 279.167,162.667 278.833,162.333 278.5,162C 281.947,160.218 283.78,157.385 284,153.5C 284.414,153.957 284.914,154.291 285.5,154.5C 286.711,153.726 286.711,152.893 285.5,152C 286.901,151.59 288.234,151.09 289.5,150.5 Z"/></g>
<g><path style="opacity:0.855" fill="#2f672c" d="M 472.5,160.5 C 474.587,161.585 475.92,163.251 476.5,165.5C 474.413,164.415 473.08,162.749 472.5,160.5 Z"/></g>
<g><path style="opacity:1" fill="#2f4c28" d="M 447.5,165.5 C 446.6,170.772 446.267,176.105 446.5,181.5C 443.631,175.93 443.965,170.597 447.5,165.5 Z"/></g>
<g><path style="opacity:1" fill="#285124" d="M 20.5,169.5 C 20.196,173.922 18.8627,177.922 16.5,181.5C 16.8606,177.085 18.1939,173.085 20.5,169.5 Z"/></g>
<g><path style="opacity:0.988" fill="#20451d" d="M 270.5,176.5 C 268.984,179.533 266.984,182.2 264.5,184.5C 265.262,180.82 267.262,178.153 270.5,176.5 Z"/></g>
<g><path style="opacity:0.533" fill="#336e2c" d="M 13.5,191.5 C 13.4349,194.428 12.7682,197.095 11.5,199.5C 11.2938,196.505 11.9605,193.838 13.5,191.5 Z"/></g>
<g><path style="opacity:0.447" fill="#3a7f32" d="M 451.5,196.5 C 452.924,198.515 453.59,200.848 453.5,203.5C 452.076,201.485 451.41,199.152 451.5,196.5 Z"/></g>
<g><path style="opacity:0.929" fill="#335d2d" d="M 454.5,208.5 C 456.876,213.106 457.876,218.106 457.5,223.5C 456.377,218.65 455.377,213.65 454.5,208.5 Z"/></g>
<g><path style="opacity:1" fill="#1c311a" d="M 486.5,196.5 C 489.085,204.191 490.751,212.191 491.5,220.5C 490.542,220.047 489.708,219.381 489,218.5C 488.324,211.064 487.491,203.731 486.5,196.5 Z"/></g>
<g><path style="opacity:1" fill="#1a3417" d="M 250.5,203.5 C 249.928,205.255 249.094,206.922 248,208.5C 244.968,212.359 241.802,216.026 238.5,219.5C 239.601,213.92 242.601,209.92 247.5,207.5C 247.5,206.167 247.5,204.833 247.5,203.5C 248.5,203.5 249.5,203.5 250.5,203.5 Z"/></g>
<g><path style="opacity:1" fill="#22361f" d="M 41.5,222.5 C 41.1316,229.008 40.465,235.342 39.5,241.5C 39.4561,237.314 39.1227,233.147 38.5,229C 38.0412,226.04 39.0412,223.874 41.5,222.5 Z"/></g>
<g><path style="opacity:0.957" fill="#3a6634" d="M 7.5,220.5 C 7.40396,226.373 6.73729,232.04 5.5,237.5C 5.32126,231.596 5.98792,225.929 7.5,220.5 Z"/></g>
<g><path style="opacity:0.58" fill="#294e26" d="M 491.5,222.5 C 493.176,230.605 493.843,238.938 493.5,247.5C 492.322,239.356 491.655,231.022 491.5,222.5 Z"/></g>
<g><path style="opacity:1" fill="#1e3f1b" d="M 313.5,249.5 C 313.439,253.071 311.773,255.404 308.5,256.5C 309.433,253.63 311.1,251.296 313.5,249.5 Z"/></g>
<g><path style="opacity:1" fill="#1c3419" d="M 356.5,248.5 C 353.882,253.413 350.548,257.746 346.5,261.5C 346.421,260.07 346.754,258.736 347.5,257.5C 350.455,255.067 352.455,252.067 353.5,248.5C 354.5,248.5 355.5,248.5 356.5,248.5 Z"/></g>
<g><path style="opacity:1" fill="#1b3219" d="M 308.5,256.5 C 308.657,257.873 308.49,259.207 308,260.5C 304.777,261.723 303.111,264.056 303,267.5C 301.226,268.965 299.392,270.298 297.5,271.5C 300.436,265.959 304.103,260.959 308.5,256.5 Z"/></g>
<g><path style="opacity:0.999" fill="#223d20" d="M 5.5,271.5 C 6.11742,271.611 6.61742,271.944 7,272.5C 7.49935,277.823 7.66602,283.156 7.5,288.5C 5.88267,283.084 5.21601,277.417 5.5,271.5 Z"/></g>
<g><path style="opacity:1" fill="#1e361b" d="M 40.5,269.5 C 40.502,275.523 40.8354,281.523 41.5,287.5C 40.8501,287.196 40.1835,286.863 39.5,286.5C 38.5976,280.665 38.9309,274.998 40.5,269.5 Z"/></g>
<g><path style="opacity:1" fill="#1c321a" d="M 159.5,270.5 C 158.637,271.94 158.637,273.274 159.5,274.5C 158.478,275.354 157.645,276.354 157,277.5C 156.667,277.167 156.333,276.833 156,276.5C 155.293,278.081 154.46,279.581 153.5,281C 153.833,281.333 154.167,281.667 154.5,282C 152.333,284.425 150.333,286.925 148.5,289.5C 150.389,282.044 154.056,275.711 159.5,270.5 Z"/></g>
<g><path style="opacity:1" fill="#21441d" d="M 291.5,279.5 C 290.972,283.294 288.972,285.961 285.5,287.5C 287.122,284.545 289.122,281.878 291.5,279.5 Z"/></g>
<g><path style="opacity:0.998" fill="#21401d" d="M 7.5,288.5 C 8.26791,289.263 8.76791,290.263 9,291.5C 9.49834,294.817 9.66501,298.15 9.5,301.5C 8.29112,297.382 7.62446,293.049 7.5,288.5 Z"/></g>
<g><path style="opacity:0.855" fill="#2a5f26" d="M 458.5,280.5 C 458.667,286.503 457.667,292.17 455.5,297.5C 456.049,291.626 457.049,285.959 458.5,280.5 Z"/></g>
<g><path style="opacity:1" fill="#264822" d="M 491.5,290.5 C 491.247,294.04 490.581,297.373 489.5,300.5C 489.38,298.801 489.046,297.135 488.5,295.5C 489.396,293.664 490.396,291.997 491.5,290.5 Z"/></g>
<g><path style="opacity:0.867" fill="#2f532a" d="M 41.5,287.5 C 42.6233,292.35 43.6233,297.35 44.5,302.5C 41.7717,298.042 40.7717,293.042 41.5,287.5 Z"/></g>
<g><path style="opacity:1" fill="#1d371a" d="M 277.5,298.5 C 277.08,300.094 276.414,301.594 275.5,303C 275.645,303.772 275.978,304.439 276.5,305C 274.778,307.511 272.445,309.011 269.5,309.5C 271.435,305.293 274.102,301.627 277.5,298.5 Z"/></g>
<g><path style="opacity:0.612" fill="#3d7831" d="M 454.5,302.5 C 454.706,305.495 454.04,308.162 452.5,310.5C 452.565,307.572 453.232,304.905 454.5,302.5 Z"/></g>
<g><path style="opacity:1" fill="#21451d" d="M 45.5,307.5 C 47.537,312.617 49.2036,317.95 50.5,323.5C 49.5714,322.064 48.4048,320.731 47,319.5C 46.4987,315.49 45.9987,311.49 45.5,307.5 Z"/></g>
<g><path style="opacity:0.69" fill="#396436" d="M 485.5,318.5 C 485.279,321.067 484.612,323.401 483.5,325.5C 483.171,322.772 483.837,320.438 485.5,318.5 Z"/></g>
<g><path style="opacity:0.998" fill="#22401f" d="M 180.5,309.5 C 181.717,317.307 182.384,325.307 182.5,333.5C 180.731,325.743 180.065,317.743 180.5,309.5 Z"/></g>
<g><path style="opacity:0.243" fill="#40763b" d="M 146.5,320.5 C 148.423,324.029 149.089,328.029 148.5,332.5C 147.775,328.605 147.109,324.605 146.5,320.5 Z"/></g>
<g><path style="opacity:1" fill="#1c391a" d="M 242.5,344.5 C 241.602,346.627 239.936,347.794 237.5,348C 227.047,349.097 216.714,350.597 206.5,352.5C 218.338,349.632 230.338,346.965 242.5,344.5 Z"/></g>
<g><path style="opacity:1" fill="#274825" d="M 283.5,347.5 C 281.656,351.192 279.323,354.525 276.5,357.5C 276.5,355.833 276.5,354.167 276.5,352.5C 277.5,352.5 278.5,352.5 279.5,352.5C 279.774,350.019 281.107,348.353 283.5,347.5 Z"/></g>
<g><path style="opacity:1" fill="#22411f" d="M 435.5,353.5 C 435.414,354.496 435.748,355.329 436.5,356C 434.085,357.191 432.752,359.191 432.5,362C 430.263,365.014 427.929,367.847 425.5,370.5C 428.585,364.661 431.918,358.994 435.5,353.5 Z"/></g>
<g><path style="opacity:1" fill="#254120" d="M 275.5,358.5 C 273.399,362.744 270.399,366.078 266.5,368.5C 267.29,367.206 268.29,366.039 269.5,365C 268.833,364.667 268.167,364.333 267.5,364C 268.563,362.812 269.897,362.312 271.5,362.5C 271.167,359.5 272.5,358.167 275.5,358.5 Z"/></g>
<g><path style="opacity:1" fill="#1d321b" d="M 465.5,368.5 C 463.281,374.607 460.281,380.273 456.5,385.5C 456.67,384.178 456.337,383.011 455.5,382C 458.041,380.152 459.041,377.652 458.5,374.5C 459.5,374.5 460.5,374.5 461.5,374.5C 461.375,371.392 462.708,369.392 465.5,368.5 Z"/></g>
<g><path style="opacity:0.976" fill="#326c2e" d="M 37.5,377.5 C 39.7964,378.733 41.1298,380.733 41.5,383.5C 39.684,381.882 38.3507,379.882 37.5,377.5 Z"/></g>
<g><path style="opacity:1" fill="#183016" d="M 72.5,368.5 C 77.0776,374.651 81.4109,380.985 85.5,387.5C 84.0992,387.029 82.7658,386.362 81.5,385.5C 79.1924,382.025 76.6924,378.692 74,375.5C 72.7978,373.323 72.2978,370.989 72.5,368.5 Z"/></g>
<g><path style="opacity:1" fill="#224020" d="M 248.5,378.5 C 242.072,380.452 235.405,381.786 228.5,382.5C 234.687,379.464 241.354,378.131 248.5,378.5 Z"/></g>
<g><path style="opacity:1" fill="#294725" d="M 219.5,384.5 C 216.054,385.687 212.387,386.354 208.5,386.5C 208.611,385.883 208.944,385.383 209.5,385C 212.817,384.502 216.15,384.335 219.5,384.5 Z"/></g>
<g><path style="opacity:0.718" fill="#30642d" d="M 415.5,384.5 C 414.92,386.749 413.587,388.415 411.5,389.5C 412.08,387.251 413.413,385.585 415.5,384.5 Z"/></g>
<g><path style="opacity:0.02" fill="#3d6837" d="M 42.5,385.5 C 44.7964,386.733 46.1298,388.733 46.5,391.5C 44.684,389.882 43.3507,387.882 42.5,385.5 Z"/></g>
<g><path style="opacity:0.651" fill="#326b2c" d="M 410.5,390.5 C 409.92,392.749 408.587,394.415 406.5,395.5C 407.08,393.251 408.413,391.585 410.5,390.5 Z"/></g>
<g><path style="opacity:0.804" fill="#397135" d="M 98.5,401.5 C 100.833,403.167 102.833,405.167 104.5,407.5C 101.5,406.5 99.5,404.5 98.5,401.5 Z"/></g>
<g><path style="opacity:0.894" fill="#244f23" d="M 401.5,400.5 C 399.833,404.167 397.167,406.833 393.5,408.5C 395.833,405.5 398.5,402.833 401.5,400.5 Z"/></g>
<g><path style="opacity:0.616" fill="#3b6e36" d="M 391.5,410.5 C 390.089,412.914 388.089,414.581 385.5,415.5C 386.911,413.086 388.911,411.419 391.5,410.5 Z"/></g>
<g><path style="opacity:1" fill="#254622" d="M 109.5,411.5 C 112.859,414.529 116.192,417.529 119.5,420.5C 117.906,420.08 116.406,419.414 115,418.5C 114.228,418.645 113.561,418.978 113,419.5C 112.776,416.689 111.61,414.022 109.5,411.5 Z"/></g>
<g><path style="opacity:0.62" fill="#3d7a31" d="M 74.5,426.5 C 77.0892,427.419 79.0892,429.086 80.5,431.5C 77.9108,430.581 75.9108,428.914 74.5,426.5 Z"/></g>
<g><path style="opacity:0.02" fill="#499541" d="M 131.5,429.5 C 133.027,429.427 134.027,430.094 134.5,431.5C 132.973,431.573 131.973,430.906 131.5,429.5 Z"/></g>
<g><path style="opacity:0.949" fill="#2f602a" d="M 84.5,435.5 C 87.0892,436.419 89.0892,438.086 90.5,440.5C 87.9108,439.581 85.9108,437.914 84.5,435.5 Z"/></g>
<g><path style="opacity:1" fill="#233d22" d="M 144.5,437.5 C 150.333,440.249 155.999,443.249 161.5,446.5C 156.181,444.843 150.847,443.177 145.5,441.5C 145.567,440.041 145.234,438.708 144.5,437.5 Z"/></g>
<g><path style="opacity:1" fill="#213a1f" d="M 407.5,441.5 C 403.817,445.18 399.817,448.514 395.5,451.5C 395.5,450.167 395.5,448.833 395.5,447.5C 396.833,447.5 398.167,447.5 399.5,447.5C 399.5,446.5 399.5,445.5 399.5,444.5C 402.588,444.361 405.255,443.361 407.5,441.5 Z"/></g>
<g><path style="opacity:0.271" fill="#386432" d="M 343.5,443.5 C 343.53,444.497 343.03,445.164 342,445.5C 338.853,446.662 335.686,447.662 332.5,448.5C 335.836,446.269 339.503,444.603 343.5,443.5 Z"/></g>
<g><path style="opacity:0.995" fill="#244520" d="M 168.5,449.5 C 172.149,450.267 175.482,451.6 178.5,453.5C 176.248,452.667 174.081,452.667 172,453.5C 170.28,452.616 169.114,451.283 168.5,449.5 Z"/></g>
<g><path style="opacity:0.373" fill="#438936" d="M 178.5,453.5 C 180.898,453.259 182.898,453.926 184.5,455.5C 182.214,455.405 180.214,454.738 178.5,453.5 Z"/></g>
<g><path style="opacity:1" fill="#1a3417" d="M 316.5,454.5 C 315.12,456.369 313.287,457.702 311,458.5C 307.208,459.31 303.375,459.644 299.5,459.5C 305.022,457.699 310.689,456.032 316.5,454.5 Z"/></g>
<g><path style="opacity:0.376" fill="#3e8337" d="M 199.5,459.5 C 202.152,459.41 204.485,460.076 206.5,461.5C 203.848,461.59 201.515,460.924 199.5,459.5 Z"/></g>
<g><path style="opacity:0.259" fill="#477b3e" d="M 207.5,461.5 C 219.081,463.406 230.748,464.406 242.5,464.5C 230.654,466.048 218.988,465.048 207.5,461.5 Z"/></g>
<g><path style="opacity:1" fill="#274923" d="M 299.5,459.5 C 298.571,460.315 297.571,461.148 296.5,462C 290.829,462.531 285.162,463.031 279.5,463.5C 285.991,461.899 292.657,460.566 299.5,459.5 Z"/></g>
<g><path style="opacity:0.706" fill="#377130" d="M 276.5,463.5 C 273.305,465.03 269.805,465.696 266,465.5C 263.31,465.497 260.81,465.164 258.5,464.5C 264.529,464.575 270.529,464.241 276.5,463.5 Z"/></g>
<g><path style="opacity:1" fill="#234021" d="M 377.5,463.5 C 370.495,468.005 363.161,472.005 355.5,475.5C 357.089,472.92 359.422,471.587 362.5,471.5C 362.351,470.448 362.517,469.448 363,468.5C 363.333,468.833 363.667,469.167 364,469.5C 364.324,467.431 365.158,467.098 366.5,468.5C 369.784,465.856 373.451,464.189 377.5,463.5 Z"/></g>
<g><path style="opacity:1" fill="#22421f" d="M 355.5,475.5 C 349.6,478.943 343.267,481.61 336.5,483.5C 338.636,481.305 341.302,479.971 344.5,479.5C 345.23,478.066 346.23,476.9 347.5,476C 350.146,475.503 352.813,475.336 355.5,475.5 Z"/></g>
<g><path style="opacity:1" fill="#1c3219" d="M 324.5,487.5 C 317.513,490.415 310.18,492.415 302.5,493.5C 305.385,491.408 308.552,489.742 312,488.5C 312.414,488.957 312.914,489.291 313.5,489.5C 317.028,488.079 320.694,487.412 324.5,487.5 Z"/></g>
<g><path style="opacity:1" fill="#1e3e1b" d="M 206.5,495.5 C 210.182,495.335 213.848,495.501 217.5,496C 218.056,496.383 218.389,496.883 218.5,497.5C 214.236,497.656 210.236,496.989 206.5,495.5 Z"/></g>
<g><path style="opacity:0.467" fill="#43713d" d="M 218.5,497.5 C 225.711,497.458 232.711,498.125 239.5,499.5C 235.833,499.5 232.167,499.5 228.5,499.5C 225.167,498.833 221.833,498.167 218.5,497.5 Z"/></g>
<g><path style="opacity:0.22" fill="#547c4f" d="M 280.5,497.5 C 277.167,498.167 273.833,498.833 270.5,499.5C 267.167,499.5 263.833,499.5 260.5,499.5C 266.937,497.961 273.604,497.294 280.5,497.5 Z"/></g>
</svg>
