<?xml version="1.0" encoding="UTF-8"?>
<!DOCTYPE svg PUBLIC "-//W3C//DTD SVG 1.1//EN" "http://www.w3.org/Graphics/SVG/1.1/DTD/svg11.dtd">
<svg xmlns="http://www.w3.org/2000/svg" version="1.1" width="500px" height="500px" style="shape-rendering:geometricPrecision; text-rendering:geometricPrecision; image-rendering:optimizeQuality; fill-rule:evenodd; clip-rule:evenodd" xmlns:xlink="http://www.w3.org/1999/xlink">
<g><path style="opacity:0.18" fill="#337c25" d="M 307.5,34.5 C 309.553,34.4021 311.22,35.0687 312.5,36.5C 310.447,36.5979 308.78,35.9313 307.5,34.5 Z"/></g>
<g><path style="opacity:0.941" fill="#213a1e" d="M 318.5,39.5 C 325.318,42.3264 331.318,46.3264 336.5,51.5C 332.668,49.2021 328.668,47.0354 324.5,45C 322.525,42.9084 320.525,41.0751 318.5,39.5 Z"/></g>
<g><path style="opacity:0.329" fill="#3e8932" d="M 165.5,87.5 C 165.573,89.0269 164.906,90.0269 163.5,90.5C 163.427,88.9731 164.094,87.9731 165.5,87.5 Z"/></g>
<g><path style="opacity:0.998" fill="#0f1106" d="M 307.5,34.5 C 308.78,35.9313 310.447,36.5979 312.5,36.5C 314.819,36.9925 316.819,37.9925 318.5,39.5C 320.525,41.0751 322.525,42.9084 324.5,45C 328.668,47.0354 332.668,49.2021 336.5,51.5C 351.824,63.4405 363.324,78.4405 371,96.5C 386.241,138.324 380.241,176.991 353,212.5C 339.884,227.623 324.051,238.623 305.5,245.5C 306.749,243.864 308.416,242.697 310.5,242C 306.168,241.417 301.835,240.917 297.5,240.5C 330.003,229.33 352.337,207.663 364.5,175.5C 371.107,157.514 372.94,138.847 370,119.5C 369.262,115.89 368.095,112.557 366.5,109.5C 357.446,78.9367 338.446,56.77 309.5,43C 263,24.6694 222.166,33.1694 187,68.5C 162.725,96.6805 154.725,129.014 163,165.5C 174.683,205.016 200.183,230.682 239.5,242.5C 236.025,242.997 232.692,243.497 229.5,244C 230.305,245.113 230.972,246.279 231.5,247.5C 197.1,236.43 173.433,214.097 160.5,180.5C 160.308,177.399 159.642,174.399 158.5,171.5C 158.709,170.914 159.043,170.414 159.5,170C 158.299,169.097 157.465,167.931 157,166.5C 154.75,150.591 153.916,134.591 154.5,118.5C 155.961,108.648 158.961,99.3145 163.5,90.5C 164.906,90.0269 165.573,89.0269 165.5,87.5C 182.439,55.418 208.773,35.5846 244.5,28C 258.5,26 272.5,26 286.5,28C 293.963,29.1083 300.963,31.275 307.5,34.5 Z"/></g>
<g><path style="opacity:1" fill="#fdc80f" d="M 366.5,109.5 C 367.871,119.077 368.871,128.743 369.5,138.5C 368.973,151.016 367.306,163.349 364.5,175.5C 352.337,207.663 330.003,229.33 297.5,240.5C 296.167,240.5 294.833,240.5 293.5,240.5C 284.85,242.19 276.017,243.19 267,243.5C 259.165,243.139 251.331,242.805 243.5,242.5C 242.167,242.5 240.833,242.5 239.5,242.5C 200.183,230.682 174.683,205.016 163,165.5C 154.725,129.014 162.725,96.6805 187,68.5C 222.166,33.1694 263,24.6694 309.5,43C 338.446,56.77 357.446,78.9367 366.5,109.5 Z"/></g>
<g><path style="opacity:1" fill="#130a01" d="M 289.5,95.5 C 287.969,93.3199 285.802,92.3199 283,92.5C 273.679,93.6791 269.845,99.0125 271.5,108.5C 270.167,108.5 268.833,108.5 267.5,108.5C 267.5,105.167 267.5,101.833 267.5,98.5C 267.5,97.5 267.5,96.5 267.5,95.5C 276.064,85.7261 285.231,85.0594 295,93.5C 295.667,94.8333 296.333,96.1667 297,97.5C 297.5,122.498 297.667,147.498 297.5,172.5C 301.167,172.5 304.833,172.5 308.5,172.5C 308.5,174.167 308.5,175.833 308.5,177.5C 303.167,177.5 297.833,177.5 292.5,177.5C 292.667,151.165 292.5,124.831 292,98.5C 291.623,97.0577 290.79,96.0577 289.5,95.5 Z"/></g>
<g><path style="opacity:1" fill="#664b04" d="M 267.5,98.5 C 267.5,101.833 267.5,105.167 267.5,108.5C 268.833,108.5 270.167,108.5 271.5,108.5C 270.081,109.451 268.415,109.784 266.5,109.5C 266.185,105.629 266.518,101.962 267.5,98.5 Z"/></g>
<g><path style="opacity:1" fill="#775b00" d="M 209.5,109.5 C 209.5,110.833 209.5,112.167 209.5,113.5C 222.011,113.171 234.345,113.505 246.5,114.5C 233.833,114.5 221.167,114.5 208.5,114.5C 208.216,112.585 208.549,110.919 209.5,109.5 Z"/></g>
<g><path style="opacity:0.918" fill="#1f371a" d="M 154.5,118.5 C 153.916,134.591 154.75,150.591 157,166.5C 157.465,167.931 158.299,169.097 159.5,170C 159.043,170.414 158.709,170.914 158.5,171.5C 159.642,174.399 160.308,177.399 160.5,180.5C 154.468,167.46 151.802,153.626 152.5,139C 152.708,131.972 153.375,125.139 154.5,118.5 Z"/></g>
<g><path style="opacity:1" fill="#ecbe1e" d="M 308.5,186.5 C 294.484,186.833 280.484,186.499 266.5,185.5C 251.255,169.92 235.921,154.253 220.5,138.5C 222.572,137.596 224.072,136.262 225,134.5C 225.669,137.028 226.502,137.028 227.5,134.5C 227.291,133.914 226.957,133.414 226.5,133C 231.5,132.667 236.5,132.333 241.5,132C 241.043,131.586 240.709,131.086 240.5,130.5C 243.709,129.213 246.875,129.213 250,130.5C 251.143,127.223 251.977,123.89 252.5,120.5C 251.127,120.657 249.793,120.49 248.5,120C 249.337,118.989 249.67,117.822 249.5,116.5C 254.11,118.688 255.61,122.355 254,127.5C 252.75,130.171 250.917,132.337 248.5,134C 241.833,134.333 235.167,134.667 228.5,135C 242.555,149.39 256.889,163.39 271.5,177C 275.821,177.499 280.154,177.666 284.5,177.5C 284.5,175.833 284.5,174.167 284.5,172.5C 280.033,172.867 275.7,172.367 271.5,171C 267.963,167.631 264.629,164.131 261.5,160.5C 264.937,160.552 267.937,161.719 270.5,164C 269.289,165.113 269.289,166.28 270.5,167.5C 271.685,168.853 273.019,170.02 274.5,171C 279.202,171.172 283.868,171.672 288.5,172.5C 284.158,176.14 284.825,178.14 290.5,178.5C 290.816,150.789 290.483,123.122 289.5,95.5C 290.79,96.0577 291.623,97.0577 292,98.5C 292.5,124.831 292.667,151.165 292.5,177.5C 297.833,177.5 303.167,177.5 308.5,177.5C 308.5,175.833 308.5,174.167 308.5,172.5C 304.833,172.5 301.167,172.5 297.5,172.5C 297.667,147.498 297.5,122.498 297,97.5C 296.333,96.1667 295.667,94.8333 295,93.5C 285.231,85.0594 276.064,85.7261 267.5,95.5C 267.371,91.9911 268.704,89.1578 271.5,87C 274.862,85.0846 278.529,84.0846 282.5,84C 283.701,83.0975 284.535,81.9308 285,80.5C 289.898,80.5273 293.398,82.694 295.5,87C 294.453,88.5777 294.453,90.0777 295.5,91.5C 297.263,90.0462 298.597,90.3796 299.5,92.5C 298.559,92.4895 297.892,92.9895 297.5,94C 297.63,95.0588 298.13,95.8921 299,96.5C 300.341,120.812 300.841,145.145 300.5,169.5C 303.394,169.958 305.894,169.291 308,167.5C 308.667,168.833 309.333,170.167 310,171.5C 312.125,170.149 313.292,170.815 313.5,173.5C 312.489,175.347 311.489,177.18 310.5,179C 311.634,180.016 311.301,180.683 309.5,181C 310.793,181.49 312.127,181.657 313.5,181.5C 313.481,174.63 314.814,174.13 317.5,180C 315.641,181.981 313.308,182.981 310.5,183C 309.177,183.816 308.511,184.983 308.5,186.5 Z"/></g>
<g><path style="opacity:1" fill="#140b01" d="M 209.5,109.5 C 222.504,109.333 235.504,109.5 248.5,110C 256.76,113.344 260.26,119.511 259,128.5C 255.623,135.952 249.79,140.119 241.5,141C 248.035,147.703 254.702,154.203 261.5,160.5C 264.629,164.131 267.963,167.631 271.5,171C 275.7,172.367 280.033,172.867 284.5,172.5C 284.5,174.167 284.5,175.833 284.5,177.5C 280.154,177.666 275.821,177.499 271.5,177C 256.889,163.39 242.555,149.39 228.5,135C 235.167,134.667 241.833,134.333 248.5,134C 250.917,132.337 252.75,130.171 254,127.5C 255.61,122.355 254.11,118.688 249.5,116.5C 249.027,115.094 248.027,114.427 246.5,114.5C 234.345,113.505 222.011,113.171 209.5,113.5C 209.5,112.167 209.5,110.833 209.5,109.5 Z"/></g>
<g><path style="opacity:1" fill="#e1b723" d="M 366.5,109.5 C 368.095,112.557 369.262,115.89 370,119.5C 372.94,138.847 371.107,157.514 364.5,175.5C 367.306,163.349 368.973,151.016 369.5,138.5C 368.871,128.743 367.871,119.077 366.5,109.5 Z"/></g>
<g><path style="opacity:1" fill="#110800" d="M 220.5,138.5 C 235.921,154.253 251.255,169.92 266.5,185.5C 280.484,186.499 294.484,186.833 308.5,186.5C 308.5,187.833 308.5,189.167 308.5,190.5C 293.833,190.5 279.167,190.5 264.5,190.5C 246.477,171.976 228.144,153.476 209.5,135C 214.04,133.662 217.707,134.829 220.5,138.5 Z"/></g>
<g><path style="opacity:1" fill="#574302" d="M 308.5,186.5 C 309.451,187.919 309.784,189.585 309.5,191.5C 294.324,191.829 279.324,191.496 264.5,190.5C 279.167,190.5 293.833,190.5 308.5,190.5C 308.5,189.167 308.5,187.833 308.5,186.5 Z"/></g>
<g><path style="opacity:1" fill="#020201" d="M 293.5,240.5 C 294.833,240.5 296.167,240.5 297.5,240.5C 301.835,240.917 306.168,241.417 310.5,242C 308.416,242.697 306.749,243.864 305.5,245.5C 302.67,246.735 299.67,247.735 296.5,248.5C 292.154,248.334 287.821,248.501 283.5,249C 281.509,249.374 279.842,250.207 278.5,251.5C 278.167,251.5 277.833,251.5 277.5,251.5C 275.801,251.34 274.134,251.506 272.5,252C 271.978,252.561 271.645,253.228 271.5,254C 272.822,325.489 272.822,396.989 271.5,468.5C 271.167,468.5 270.833,468.5 270.5,468.5C 267.904,469.265 265.237,469.599 262.5,469.5C 260.983,469.489 259.816,468.823 259,467.5C 258.5,395.834 258.333,324.167 258.5,252.5C 249.188,251.822 240.188,250.155 231.5,247.5C 230.972,246.279 230.305,245.113 229.5,244C 232.692,243.497 236.025,242.997 239.5,242.5C 240.833,242.5 242.167,242.5 243.5,242.5C 257.973,246.318 272.639,246.485 287.5,243C 289.974,242.963 291.974,242.13 293.5,240.5 Z"/></g>
<g><path style="opacity:1" fill="#c5a025" d="M 293.5,240.5 C 291.974,242.13 289.974,242.963 287.5,243C 272.639,246.485 257.973,246.318 243.5,242.5C 251.331,242.805 259.165,243.139 267,243.5C 276.017,243.19 284.85,242.19 293.5,240.5 Z"/></g>
<g><path style="opacity:0.949" fill="#192c15" d="M 296.5,248.5 C 290.755,250.284 284.755,251.284 278.5,251.5C 279.842,250.207 281.509,249.374 283.5,249C 287.821,248.501 292.154,248.334 296.5,248.5 Z"/></g>
<g><path style="opacity:0.627" fill="#254225" d="M 277.5,251.5 C 276.282,252.161 274.949,252.828 273.5,253.5C 274.663,323.793 274.83,394.126 274,464.5C 273.392,466.066 272.558,467.4 271.5,468.5C 272.822,396.989 272.822,325.489 271.5,254C 271.645,253.228 271.978,252.561 272.5,252C 274.134,251.506 275.801,251.34 277.5,251.5 Z"/></g>
<g><path style="opacity:0.2" fill="#306c24" d="M 270.5,468.5 C 269.508,470.026 268.008,470.693 266,470.5C 264.615,470.486 263.449,470.152 262.5,469.5C 265.237,469.599 267.904,469.265 270.5,468.5 Z"/></g>
</svg>
