<?xml version="1.0" encoding="UTF-8"?>
<!DOCTYPE svg PUBLIC "-//W3C//DTD SVG 1.1//EN" "http://www.w3.org/Graphics/SVG/1.1/DTD/svg11.dtd">
<svg xmlns="http://www.w3.org/2000/svg" version="1.1" width="283px" height="283px" style="shape-rendering:geometricPrecision; text-rendering:geometricPrecision; image-rendering:optimizeQuality; fill-rule:evenodd; clip-rule:evenodd" xmlns:xlink="http://www.w3.org/1999/xlink">
<g><path style="opacity:1" fill="#000000" d="M 61.5,35.5 C 114.501,35.3333 167.501,35.5 220.5,36C 251,64.1518 264.166,98.9851 260,140.5C 252.134,191.035 223.967,224.535 175.5,241C 123.142,253.435 79.6417,239.268 45,198.5C 17.0481,156.642 14.0481,112.975 36,67.5C 43.1927,55.8055 51.6927,45.1389 61.5,35.5 Z M 67.5,53.5 C 116.501,53.3333 165.501,53.5 214.5,54C 243.261,85.126 251.094,120.959 238,161.5C 216.23,209.978 178.73,232.145 125.5,228C 76.1699,217.338 47.3365,187.172 39,137.5C 35.8637,105.073 45.3637,77.0734 67.5,53.5 Z M 113.5,81.5 C 128.27,81.7172 133.104,88.7172 128,102.5C 122.49,108.043 116.323,108.876 109.5,105C 101.905,95.5822 103.238,87.7489 113.5,81.5 Z M 160.5,81.5 C 173.196,81.0255 178.696,87.0255 177,99.5C 169.417,109.698 161.417,110.031 153,100.5C 149.967,91.9086 152.467,85.5752 160.5,81.5 Z M 87.5,117.5 C 104.821,115.655 112.654,123.322 111,140.5C 105.235,152.302 96.4015,155.468 84.5,150C 76.0897,142.966 74.2564,134.466 79,124.5C 81.4412,121.546 84.2745,119.213 87.5,117.5 Z M 134.5,117.5 C 153.671,116.167 161.171,124.833 157,143.5C 150.316,152.785 141.816,154.952 131.5,150C 123.537,143.826 121.37,135.993 125,126.5C 127.406,122.592 130.572,119.592 134.5,117.5 Z M 181.5,117.5 C 199.317,115.816 207.15,123.816 205,141.5C 198.78,152.529 189.946,155.362 178.5,150C 169.661,142.471 168.161,133.638 174,123.5C 176.478,121.361 178.978,119.361 181.5,117.5 Z M 110.5,158.5 C 128.317,156.816 136.15,164.816 134,182.5C 127.78,193.529 118.946,196.362 107.5,191C 98.758,183.432 97.258,174.598 103,164.5C 105.114,161.879 107.614,159.879 110.5,158.5 Z M 158.5,158.5 C 175.821,156.655 183.654,164.322 182,181.5C 176.259,193.287 167.425,196.454 155.5,191C 146.687,183.4 145.187,174.567 151,164.5C 153.114,161.879 155.614,159.879 158.5,158.5 Z"/></g>
<g><path style="opacity:1" fill="#000000" d="M 73.5,67.5 C 118.835,67.3333 164.168,67.5 209.5,68C 234.546,101.543 237.046,136.709 217,173.5C 192.211,208.548 158.711,221.381 116.5,212C 73.1686,196.535 51.6686,165.701 52,119.5C 53.6247,99.7725 60.7913,82.4392 73.5,67.5 Z M 113.5,81.5 C 103.238,87.7489 101.905,95.5822 109.5,105C 116.323,108.876 122.49,108.043 128,102.5C 133.104,88.7172 128.27,81.7172 113.5,81.5 Z M 160.5,81.5 C 152.467,85.5752 149.967,91.9086 153,100.5C 161.417,110.031 169.417,109.698 177,99.5C 178.696,87.0255 173.196,81.0255 160.5,81.5 Z M 87.5,117.5 C 84.2745,119.213 81.4412,121.546 79,124.5C 74.2564,134.466 76.0897,142.966 84.5,150C 96.4015,155.468 105.235,152.302 111,140.5C 112.654,123.322 104.821,115.655 87.5,117.5 Z M 134.5,117.5 C 130.572,119.592 127.406,122.592 125,126.5C 121.37,135.993 123.537,143.826 131.5,150C 141.816,154.952 150.316,152.785 157,143.5C 161.171,124.833 153.671,116.167 134.5,117.5 Z M 181.5,117.5 C 178.978,119.361 176.478,121.361 174,123.5C 168.161,133.638 169.661,142.471 178.5,150C 189.946,155.362 198.78,152.529 205,141.5C 207.15,123.816 199.317,115.816 181.5,117.5 Z M 110.5,158.5 C 107.614,159.879 105.114,161.879 103,164.5C 97.258,174.598 98.758,183.432 107.5,191C 118.946,196.362 127.78,193.529 134,182.5C 136.15,164.816 128.317,156.816 110.5,158.5 Z M 158.5,158.5 C 155.614,159.879 153.114,161.879 151,164.5C 145.187,174.567 146.687,183.4 155.5,191C 167.425,196.454 176.259,193.287 182,181.5C 183.654,164.322 175.821,156.655 158.5,158.5 Z"/></g>
</svg>
