<svg version="1.1" id="Layer_1" xmlns="http://www.w3.org/2000/svg" xmlns:xlink="http://www.w3.org/1999/xlink" x="0px" y="0px"
	 width="100%" viewBox="0 0 283 283" enable-background="new 0 0 283 283" xml:space="preserve">
<path fill="#000000" opacity="1.000000" stroke="none" 
	d="
M162.000000,284.000000 
	C108.023636,284.000000 54.547272,284.000000 1.035454,284.000000 
	C1.035454,189.731995 1.035454,95.463959 1.035454,1.097967 
	C95.226257,1.097967 189.452652,1.097967 283.839539,1.097967 
	C283.839539,95.333115 283.839539,189.666534 283.839539,284.000000 
	C243.464127,284.000000 202.982071,284.000000 162.000000,284.000000 
M251.949951,177.335083 
	C256.470978,166.369659 259.918091,155.195312 261.158844,143.258316 
	C262.652893,128.884247 262.831879,114.579147 259.649445,100.528625 
	C256.601685,87.072800 251.694824,74.024307 243.723419,62.724293 
	C237.504547,53.908642 229.729019,46.180374 222.479874,38.117558 
	C221.691193,37.240376 219.806580,37.045345 218.429779,37.043930 
	C167.780075,36.991848 117.130287,36.987675 66.480629,37.061459 
	C64.995369,37.063622 63.154789,37.572781 62.082157,38.524410 
	C51.562523,47.857269 42.842560,58.734673 36.438347,71.217842 
	C24.551168,94.388474 20.048897,119.052139 24.171146,144.833298 
	C25.715611,154.492599 28.347656,164.172241 31.954460,173.258850 
	C36.556389,184.852493 43.027355,195.444946 51.311035,205.149292 
	C63.254822,219.141449 77.453720,229.611786 94.063484,237.005020 
	C114.880791,246.271072 136.730743,249.617111 159.187485,245.808044 
	C170.416458,243.903397 181.900970,241.293915 192.219345,236.662613 
	C219.082321,224.605499 238.843796,204.707169 251.949951,177.335083 
z"/>
<path fill="#FFC90E" opacity="1.000000" stroke="none" 
	d="
M251.736191,177.657745 
	C238.843796,204.707169 219.082321,224.605499 192.219345,236.662613 
	C181.900970,241.293915 170.416458,243.903397 159.187485,245.808044 
	C136.730743,249.617111 114.880791,246.271072 94.063484,237.005020 
	C77.453720,229.611786 63.254822,219.141449 51.311035,205.149292 
	C43.027355,195.444946 36.556389,184.852493 31.954460,173.258850 
	C28.347656,164.172241 25.715611,154.492599 24.171146,144.833298 
	C20.048897,119.052139 24.551168,94.388474 36.438347,71.217842 
	C42.842560,58.734673 51.562523,47.857269 62.082157,38.524410 
	C63.154789,37.572781 64.995369,37.063622 66.480629,37.061459 
	C117.130287,36.987675 167.780075,36.991848 218.429779,37.043930 
	C219.806580,37.045345 221.691193,37.240376 222.479874,38.117558 
	C229.729019,46.180374 237.504547,53.908642 243.723419,62.724293 
	C251.694824,74.024307 256.601685,87.072800 259.649445,100.528625 
	C262.831879,114.579147 262.652893,128.884247 261.158844,143.258316 
	C259.918091,155.195312 256.470978,166.369659 251.736191,177.657745 
M193.399628,216.944199 
	C207.542953,209.067032 219.078751,198.265793 227.956253,184.838257 
	C241.261612,164.713470 247.552841,142.870331 245.204529,118.343468 
	C243.129501,96.670876 234.932648,77.990967 221.595139,61.300724 
	C219.420563,58.579536 215.744446,55.290844 212.737946,55.266399 
	C165.941147,54.885860 119.140251,54.976307 72.340660,55.095257 
	C70.631157,55.099606 68.309082,56.034920 67.319542,57.333961 
	C61.711761,64.695679 55.676342,71.881279 51.171745,79.904564 
	C39.479912,100.729263 37.496658,123.534706 41.249043,146.551666 
	C44.410637,165.944717 53.637794,182.983643 67.045609,197.451309 
	C77.594490,208.834091 90.074875,217.758728 104.693718,223.093933 
	C112.843735,226.068314 121.372116,229.082825 129.901840,229.698502 
	C144.256088,230.734604 158.923386,231.315247 172.797012,225.910339 
	C179.541901,223.282669 186.041595,220.025620 193.399628,216.944199 
z"/>
<path fill="#000000" opacity="1.000000" stroke="none" 
	d="
M193.025940,216.998840 
	C186.041595,220.025620 179.541901,223.282669 172.797012,225.910339 
	C158.923386,231.315247 144.256088,230.734604 129.901840,229.698502 
	C121.372116,229.082825 112.843735,226.068314 104.693718,223.093933 
	C90.074875,217.758728 77.594490,208.834091 67.045609,197.451309 
	C53.637794,182.983643 44.410637,165.944717 41.249043,146.551666 
	C37.496658,123.534706 39.479912,100.729263 51.171745,79.904564 
	C55.676342,71.881279 61.711761,64.695679 67.319542,57.333961 
	C68.309082,56.034920 70.631157,55.099606 72.340660,55.095257 
	C119.140251,54.976307 165.941147,54.885860 212.737946,55.266399 
	C215.744446,55.290844 219.420563,58.579536 221.595139,61.300724 
	C234.932648,77.990967 243.129501,96.670876 245.204529,118.343468 
	C247.552841,142.870331 241.261612,164.713470 227.956253,184.838257 
	C219.078751,198.265793 207.542953,209.067032 193.025940,216.998840 
M226.953888,158.152191 
	C227.085754,157.181473 227.081406,156.168106 227.370026,155.246490 
	C231.371384,142.469711 233.083481,129.619934 231.157745,116.127304 
	C229.053085,101.381088 223.955185,88.023552 215.938919,75.621239 
	C212.921005,70.952110 209.389542,68.728912 203.162048,68.790886 
	C162.362228,69.196922 121.555489,69.129684 80.753822,68.831863 
	C75.790184,68.795631 72.798218,70.886261 70.437042,74.223976 
	C59.150127,90.178978 53.419033,108.081024 53.112705,127.577721 
	C53.031567,132.742096 54.275932,137.935822 55.005356,143.102844 
	C57.725979,162.374939 66.830963,178.532761 80.578583,191.800735 
	C90.289108,201.172470 101.650063,208.257599 114.996750,212.195160 
	C129.998535,216.621033 144.840057,218.424515 160.275436,215.053421 
	C177.391251,211.315338 192.250870,203.626022 204.991592,191.579056 
	C214.774780,182.328583 221.118790,170.918015 226.953888,158.152191 
z"/>
<path fill="#FFC90E" opacity="1.000000" stroke="none" 
	d="
M226.784424,158.521729 
	C221.118790,170.918015 214.774780,182.328583 204.991592,191.579056 
	C192.250870,203.626022 177.391251,211.315338 160.275436,215.053421 
	C144.840057,218.424515 129.998535,216.621033 114.996750,212.195160 
	C101.650063,208.257599 90.289108,201.172470 80.578583,191.800735 
	C66.830963,178.532761 57.725979,162.374939 55.005356,143.102844 
	C54.275932,137.935822 53.031567,132.742096 53.112705,127.577721 
	C53.419033,108.081024 59.150127,90.178978 70.437042,74.223976 
	C72.798218,70.886261 75.790184,68.795631 80.753822,68.831863 
	C121.555489,69.129684 162.362228,69.196922 203.162048,68.790886 
	C209.389542,68.728912 212.921005,70.952110 215.938919,75.621239 
	C223.955185,88.023552 229.053085,101.381088 231.157745,116.127304 
	C233.083481,129.619934 231.371384,142.469711 227.370026,155.246490 
	C227.081406,156.168106 227.085754,157.181473 226.784424,158.521729 
M97.256935,153.999969 
	C105.175903,153.537964 110.110542,148.461716 112.317894,141.830933 
	C114.530373,135.184723 113.629295,128.320618 107.584122,122.977905 
	C101.796547,117.862877 95.173553,117.799469 88.757034,119.947800 
	C80.050591,122.862823 76.257164,131.084442 78.019463,140.671310 
	C79.295738,147.614288 88.088127,153.998093 97.256935,153.999969 
M144.297852,119.000000 
	C143.466278,119.000000 142.629013,119.063614 141.804001,118.990021 
	C134.650345,118.351936 129.827866,122.127533 126.794022,127.912384 
	C123.869583,133.488632 123.655991,139.658264 127.114220,145.194778 
	C133.377258,155.221756 147.458359,158.003922 156.245255,147.501663 
	C160.947983,141.880905 160.969925,135.865875 159.240372,130.058472 
	C157.346893,123.700539 152.508575,119.340439 144.297852,119.000000 
M206.999695,132.917007 
	C206.548767,125.831306 199.189072,119.788544 194.280655,119.049599 
	C183.445206,117.418327 177.377350,120.493919 173.114380,129.759613 
	C170.910461,134.549957 171.068649,143.709213 177.365753,149.029434 
	C182.744858,153.574066 190.720001,155.843185 196.282928,152.844818 
	C203.759964,148.814743 208.617905,143.072144 206.999695,132.917007 
M136.000000,177.488495 
	C135.697495,175.086792 135.903336,172.472366 135.003082,170.320786 
	C131.412201,161.738815 122.449196,157.599289 112.925095,160.126221 
	C106.682892,161.782379 100.568733,169.436722 100.841202,178.330948 
	C101.086609,186.341888 109.604546,195.649887 119.549599,195.092972 
	C128.145874,194.611588 135.987350,187.072128 136.000000,177.488495 
M182.699707,184.807266 
	C185.246368,177.953049 184.821411,171.478455 180.102341,165.631958 
	C174.832199,159.102707 167.507965,159.156784 160.353943,160.348312 
	C155.239014,161.200241 149.198410,168.736176 149.041122,173.323044 
	C148.781219,180.903168 149.438065,187.615768 157.871368,191.672394 
	C168.566971,196.817261 174.656113,196.406128 182.699707,184.807266 
M106.236694,92.272263 
	C106.158470,94.087402 105.897583,95.916336 106.033501,97.715294 
	C106.636269,105.693466 115.998619,111.305244 123.358658,108.172997 
	C129.896973,105.390465 132.774277,100.651657 131.996811,93.946251 
	C131.423813,89.004379 126.471687,83.809715 121.503120,83.023819 
	C115.303619,82.043213 108.239578,85.612572 106.236694,92.272263 
M160.156830,84.332344 
	C153.738144,88.158173 151.172379,95.470337 154.158981,101.425636 
	C157.414703,107.917595 165.202209,110.935608 171.278275,107.882904 
	C179.374405,103.815292 180.684601,98.670677 178.101715,90.805885 
	C175.914673,84.146362 167.834488,81.403877 160.156830,84.332344 
z"/>
<path fill="#000000" opacity="1.000000" stroke="none" 
	d="
M96.816971,153.999985 
	C88.088127,153.998093 79.295738,147.614288 78.019463,140.671310 
	C76.257164,131.084442 80.050591,122.862823 88.757034,119.947800 
	C95.173553,117.799469 101.796547,117.862877 107.584122,122.977905 
	C113.629295,128.320618 114.530373,135.184723 112.317894,141.830933 
	C110.110542,148.461716 105.175903,153.537964 96.816971,153.999985 
z"/>
<path fill="#000000" opacity="1.000000" stroke="none" 
	d="
M144.744614,119.000015 
	C152.508575,119.340439 157.346893,123.700539 159.240372,130.058472 
	C160.969925,135.865875 160.947983,141.880905 156.245255,147.501663 
	C147.458359,158.003922 133.377258,155.221756 127.114220,145.194778 
	C123.655991,139.658264 123.869583,133.488632 126.794022,127.912384 
	C129.827866,122.127533 134.650345,118.351936 141.804001,118.990021 
	C142.629013,119.063614 143.466278,119.000000 144.744614,119.000015 
z"/>
<path fill="#000000" opacity="1.000000" stroke="none" 
	d="
M206.999832,133.362457 
	C208.617905,143.072144 203.759964,148.814743 196.282928,152.844818 
	C190.720001,155.843185 182.744858,153.574066 177.365753,149.029434 
	C171.068649,143.709213 170.910461,134.549957 173.114380,129.759613 
	C177.377350,120.493919 183.445206,117.418327 194.280655,119.049599 
	C199.189072,119.788544 206.548767,125.831306 206.999832,133.362457 
z"/>
<path fill="#000000" opacity="1.000000" stroke="none" 
	d="
M136.000000,177.940247 
	C135.987350,187.072128 128.145874,194.611588 119.549599,195.092972 
	C109.604546,195.649887 101.086609,186.341888 100.841202,178.330948 
	C100.568733,169.436722 106.682892,161.782379 112.925095,160.126221 
	C122.449196,157.599289 131.412201,161.738815 135.003082,170.320786 
	C135.903336,172.472366 135.697495,175.086792 136.000000,177.940247 
z"/>
<path fill="#000000" opacity="1.000000" stroke="none" 
	d="
M182.423096,185.089569 
	C174.656113,196.406128 168.566971,196.817261 157.871368,191.672394 
	C149.438065,187.615768 148.781219,180.903168 149.041122,173.323044 
	C149.198410,168.736176 155.239014,161.200241 160.353943,160.348312 
	C167.507965,159.156784 174.832199,159.102707 180.102341,165.631958 
	C184.821411,171.478455 185.246368,177.953049 182.423096,185.089569 
z"/>
<path fill="#000000" opacity="1.000000" stroke="none" 
	d="
M106.523422,91.978867 
	C108.239578,85.612572 115.303619,82.043213 121.503120,83.023819 
	C126.471687,83.809715 131.423813,89.004379 131.996811,93.946251 
	C132.774277,100.651657 129.896973,105.390465 123.358658,108.172997 
	C115.998619,111.305244 106.636269,105.693466 106.033501,97.715294 
	C105.897583,95.916336 106.158470,94.087402 106.523422,91.978867 
z"/>
<path fill="#000000" opacity="1.000000" stroke="none" 
	d="
M160.529694,84.173431 
	C167.834488,81.403877 175.914673,84.146362 178.101715,90.805885 
	C180.684601,98.670677 179.374405,103.815292 171.278275,107.882904 
	C165.202209,110.935608 157.414703,107.917595 154.158981,101.425636 
	C151.172379,95.470337 153.738144,88.158173 160.529694,84.173431 
z"/>
</svg>